<?xml version="1.0" encoding="UTF-8" standalone="no"?>
<svg width="375px" height="512px" viewBox="0 0 375 512" version="1.1" xmlns="http://www.w3.org/2000/svg" xmlns:xlink="http://www.w3.org/1999/xlink">
    <!-- Generator: Sketch 45.1 (43504) - http://www.bohemiancoding.com/sketch -->
    <title>lxr_bg_2</title>
    <desc>Created with Sketch.</desc>
    <defs>
        <linearGradient x1="31.822288%" y1="0%" x2="31.822288%" y2="100%" id="linearGradient-1">
            <stop stop-color="#EEAD92" offset="0%"></stop>
            <stop stop-color="#6018DC" offset="100%"></stop>
        </linearGradient>
        <rect id="path-2" x="0" y="0" width="375" height="508.10386"></rect>
        <linearGradient x1="70.294911%" y1="95.7836525%" x2="25.5816677%" y2="10.6662269%" id="linearGradient-4">
            <stop stop-color="#520457" offset="0%"></stop>
            <stop stop-color="#CA4E65" offset="48.3284676%"></stop>
            <stop stop-color="#EE6469" offset="67.6827545%"></stop>
            <stop stop-color="#F8B38E" offset="86.9047752%"></stop>
            <stop stop-color="#FFE1AD" offset="100%"></stop>
        </linearGradient>
        <path d="M15.4116247,33.7371716 C17.2311256,33.388198 18.7022992,32.6359958 19.8251455,31.4805648 C21.5094149,29.7474184 22.9811907,26.8717939 24.7432621,24.855052 C25.9179763,23.5105574 28.800966,21.9993199 33.3922313,20.3213394 C28.988814,20.5694256 26.371397,20.6631069 25.5399803,20.6023832 C24.2928552,20.5112977 24.0829079,19.9979399 23.1509162,19.0370953 C22.2189245,18.0762507 11.9800419,7.43032372 8.65385153,4.00185846 C5.32766113,0.573393196 4.15873266,-0.0502400231 0.165124646,0.688279429 C3.72182002,10.6593848 10.1533171,29.1136289 11.7187717,31.1650718 C12.7624081,32.5327004 13.9933591,33.390067 15.4116247,33.7371716 Z" id="path-5"></path>
        <filter x="-97.8%" y="-73.5%" width="295.6%" height="295.0%" filterUnits="objectBoundingBox" id="filter-6">
            <feOffset dx="0" dy="8" in="SourceAlpha" result="shadowOffsetOuter1"></feOffset>
            <feGaussianBlur stdDeviation="9.5" in="shadowOffsetOuter1" result="shadowBlurOuter1"></feGaussianBlur>
            <feColorMatrix values="0 0 0 0 0.823529412   0 0 0 0 0.141176471   0 0 0 0 0.141176471  0 0 0 0.3 0" type="matrix" in="shadowBlurOuter1"></feColorMatrix>
        </filter>
        <circle id="path-7" cx="332.5" cy="377.5" r="47.5"></circle>
        <filter x="-34.2%" y="-25.8%" width="168.4%" height="168.4%" filterUnits="objectBoundingBox" id="filter-8">
            <feOffset dx="0" dy="8" in="SourceAlpha" result="shadowOffsetOuter1"></feOffset>
            <feGaussianBlur stdDeviation="9.5" in="shadowOffsetOuter1" result="shadowBlurOuter1"></feGaussianBlur>
            <feColorMatrix values="0 0 0 0 0.823529412   0 0 0 0 0.141176471   0 0 0 0 0.141176471  0 0 0 0.3 0" type="matrix" in="shadowBlurOuter1"></feColorMatrix>
        </filter>
        <filter x="-8.6%" y="-155.4%" width="117.2%" height="410.8%" filterUnits="objectBoundingBox" id="filter-9">
            <feGaussianBlur stdDeviation="1" in="SourceGraphic"></feGaussianBlur>
        </filter>
        <filter x="-5.6%" y="-67.8%" width="111.3%" height="235.7%" filterUnits="objectBoundingBox" id="filter-10">
            <feGaussianBlur stdDeviation="1" in="SourceGraphic"></feGaussianBlur>
        </filter>
        <rect id="path-11" x="0" y="408.182222" width="375" height="103.817778"></rect>
        <circle id="path-13" cx="196.82959" cy="101.82959" r="55.8295902"></circle>
        <filter x="-10.7%" y="-10.7%" width="121.5%" height="121.5%" filterUnits="objectBoundingBox" id="filter-14">
            <feOffset dx="0" dy="0" in="SourceAlpha" result="shadowOffsetOuter1"></feOffset>
            <feGaussianBlur stdDeviation="4" in="shadowOffsetOuter1" result="shadowBlurOuter1"></feGaussianBlur>
            <feColorMatrix values="0 0 0 0 0.588679766   0 0 0 0 0.902059958   0 0 0 0 1  0 0 0 1 0" type="matrix" in="shadowBlurOuter1"></feColorMatrix>
        </filter>
        <circle id="path-15" cx="62.8295902" cy="56.8295902" r="55.8295902"></circle>
        <filter x="-10.7%" y="-10.7%" width="121.5%" height="121.5%" filterUnits="objectBoundingBox" id="filter-16">
            <feOffset dx="0" dy="0" in="SourceAlpha" result="shadowOffsetOuter1"></feOffset>
            <feGaussianBlur stdDeviation="4" in="shadowOffsetOuter1" result="shadowBlurOuter1"></feGaussianBlur>
            <feColorMatrix values="0 0 0 0 0.588679766   0 0 0 0 0.902059958   0 0 0 0 1  0 0 0 1 0" type="matrix" in="shadowBlurOuter1"></feColorMatrix>
        </filter>
        <circle id="path-17" cx="264.82959" cy="123.82959" r="55.8295902"></circle>
        <filter x="-10.7%" y="-10.7%" width="121.5%" height="121.5%" filterUnits="objectBoundingBox" id="filter-18">
            <feOffset dx="0" dy="0" in="SourceAlpha" result="shadowOffsetOuter1"></feOffset>
            <feGaussianBlur stdDeviation="4" in="shadowOffsetOuter1" result="shadowBlurOuter1"></feGaussianBlur>
            <feColorMatrix values="0 0 0 0 0.588679766   0 0 0 0 0.902059958   0 0 0 0 1  0 0 0 1 0" type="matrix" in="shadowBlurOuter1"></feColorMatrix>
        </filter>
        <circle id="path-19" cx="363.866536" cy="128.866536" r="92.8665365"></circle>
        <filter x="-6.5%" y="-6.5%" width="112.9%" height="112.9%" filterUnits="objectBoundingBox" id="filter-20">
            <feOffset dx="0" dy="0" in="SourceAlpha" result="shadowOffsetOuter1"></feOffset>
            <feGaussianBlur stdDeviation="4" in="shadowOffsetOuter1" result="shadowBlurOuter1"></feGaussianBlur>
            <feColorMatrix values="0 0 0 0 0.588679766   0 0 0 0 0.902059958   0 0 0 0 1  0 0 0 1 0" type="matrix" in="shadowBlurOuter1"></feColorMatrix>
        </filter>
        <circle id="path-21" cx="391.678992" cy="134.324095" r="69.3240945"></circle>
        <filter x="-8.7%" y="-8.7%" width="117.3%" height="117.3%" filterUnits="objectBoundingBox" id="filter-22">
            <feOffset dx="0" dy="0" in="SourceAlpha" result="shadowOffsetOuter1"></feOffset>
            <feGaussianBlur stdDeviation="4" in="shadowOffsetOuter1" result="shadowBlurOuter1"></feGaussianBlur>
            <feColorMatrix values="0 0 0 0 0.588679766   0 0 0 0 0.902059958   0 0 0 0 1  0 0 0 1 0" type="matrix" in="shadowBlurOuter1"></feColorMatrix>
        </filter>
        <circle id="path-23" cx="439.501543" cy="64.5015435" r="64.5015435"></circle>
        <filter x="-9.3%" y="-9.3%" width="118.6%" height="118.6%" filterUnits="objectBoundingBox" id="filter-24">
            <feOffset dx="0" dy="0" in="SourceAlpha" result="shadowOffsetOuter1"></feOffset>
            <feGaussianBlur stdDeviation="4" in="shadowOffsetOuter1" result="shadowBlurOuter1"></feGaussianBlur>
            <feColorMatrix values="0 0 0 0 0.588679766   0 0 0 0 0.902059958   0 0 0 0 1  0 0 0 1 0" type="matrix" in="shadowBlurOuter1"></feColorMatrix>
        </filter>
        <circle id="path-25" cx="105.458252" cy="158.458252" r="104.541748"></circle>
        <filter x="-5.7%" y="-5.7%" width="111.5%" height="111.5%" filterUnits="objectBoundingBox" id="filter-26">
            <feOffset dx="0" dy="0" in="SourceAlpha" result="shadowOffsetOuter1"></feOffset>
            <feGaussianBlur stdDeviation="4" in="shadowOffsetOuter1" result="shadowBlurOuter1"></feGaussianBlur>
            <feColorMatrix values="0 0 0 0 0.588679766   0 0 0 0 0.902059958   0 0 0 0 1  0 0 0 1 0" type="matrix" in="shadowBlurOuter1"></feColorMatrix>
        </filter>
    </defs>
    <g id="乐新人-1.2" stroke="none" stroke-width="1" fill="none" fill-rule="evenodd">
        <g id="1-2-收集页面" transform="translate(0.000000, -65.000000)">
            <g id="lxr_bg_2" transform="translate(0.000000, 65.000000)">
                <g id="云">
                    <mask id="mask-3" fill="white">
                        <use xlink:href="#path-2"></use>
                    </mask>
                    <use id="Mask-Copy" fill="url(#linearGradient-1)" xlink:href="#path-2"></use>
                    <g id="繁星" mask="url(#mask-3)">
                        <g transform="translate(-37.000000, 14.000000)">
                            <path d="M140.926262,295.665371 C139.381087,295.665371 138.128476,294.41276 138.128476,292.867585 C138.128476,291.322411 139.381087,290.069799 140.926262,290.069799 C142.471436,290.069799 143.724048,291.322411 143.724048,292.867585 C143.724048,294.41276 142.471436,295.665371 140.926262,295.665371 Z M120.494443,367.277779 C119.335415,367.277779 118.395836,366.3382 118.395836,365.179172 C118.395836,364.020143 119.335415,363.080565 120.494443,363.080565 C121.653472,363.080565 122.59305,364.020143 122.59305,365.179172 C122.59305,366.3382 121.653472,367.277779 120.494443,367.277779 Z M67.2163168,288.347221 C66.0572883,288.347221 65.11771,287.407643 65.11771,286.248614 C65.11771,285.089586 66.0572883,284.150007 67.2163168,284.150007 C68.3753453,284.150007 69.3149236,285.089586 69.3149236,286.248614 C69.3149236,287.407643 68.3753453,288.347221 67.2163168,288.347221 Z M130.360763,452.128128 C129.201734,452.128128 128.262156,451.18855 128.262156,450.029521 C128.262156,448.870493 129.201734,447.930914 130.360763,447.930914 C131.519791,447.930914 132.45937,448.870493 132.45937,450.029521 C132.45937,451.18855 131.519791,452.128128 130.360763,452.128128 Z M29.1907866,405.676027 C28.3264105,405.676027 27.6256952,404.975311 27.6256952,404.110935 C27.6256952,403.246559 28.3264105,402.545844 29.1907866,402.545844 C30.0551628,402.545844 30.7558781,403.246559 30.7558781,404.110935 C30.7558781,404.975311 30.0551628,405.676027 29.1907866,405.676027 Z M106.14808,421.462138 C105.283704,421.462138 104.582989,420.761423 104.582989,419.897047 C104.582989,419.032671 105.283704,418.331955 106.14808,418.331955 C107.012456,418.331955 107.713172,419.032671 107.713172,419.897047 C107.713172,420.761423 107.012456,421.462138 106.14808,421.462138 Z M52.8699539,342.531581 C52.0055778,342.531581 51.3048624,341.830865 51.3048624,340.966489 C51.3048624,340.102113 52.0055778,339.401398 52.8699539,339.401398 C53.7343301,339.401398 54.4350454,340.102113 54.4350454,340.966489 C54.4350454,341.830865 53.7343301,342.531581 52.8699539,342.531581 Z M121.934192,352.3979 C121.069816,352.3979 120.3691,351.697185 120.3691,350.832809 C120.3691,349.968433 121.069816,349.267717 121.934192,349.267717 C122.798568,349.267717 123.499283,349.968433 123.499283,350.832809 C123.499283,351.697185 122.798568,352.3979 121.934192,352.3979 Z M68.6560654,273.467343 C67.7916893,273.467343 67.090974,272.766627 67.090974,271.902251 C67.090974,271.037875 67.7916893,270.33716 68.6560654,270.33716 C69.5204416,270.33716 70.2211569,271.037875 70.2211569,271.902251 C70.2211569,272.766627 69.5204416,273.467343 68.6560654,273.467343 Z M131.800512,437.24825 C130.936135,437.24825 130.23542,436.547534 130.23542,435.683158 C130.23542,434.818782 130.936135,434.118067 131.800512,434.118067 C132.664888,434.118067 133.365603,434.818782 133.365603,435.683158 C133.365603,436.547534 132.664888,437.24825 131.800512,437.24825 Z M39.5891032,371.22127 C38.4309133,371.22127 37.4920149,370.282371 37.4920149,369.124181 C37.4920149,367.965991 38.4309133,367.027093 39.5891032,367.027093 C40.7472931,367.027093 41.6861915,367.965991 41.6861915,369.124181 C41.6861915,370.282371 40.7472931,371.22127 39.5891032,371.22127 Z M155.201776,306.457024 C154.490881,306.457024 153.914587,305.88073 153.914587,305.169835 C153.914587,304.458941 154.490881,303.882647 155.201776,303.882647 C155.912671,303.882647 156.488965,304.458941 156.488965,305.169835 C156.488965,305.88073 155.912671,306.457024 155.201776,306.457024 Z M133.830052,313.045174 C132.934595,313.045174 132.208684,312.319263 132.208684,311.423806 C132.208684,310.52835 132.934595,309.802439 133.830052,309.802439 C134.725508,309.802439 135.451419,310.52835 135.451419,311.423806 C135.451419,312.319263 134.725508,313.045174 133.830052,313.045174 Z M141.128669,333.562201 C140.561512,333.562201 140.10174,333.102429 140.10174,332.535271 C140.10174,331.968114 140.561512,331.508342 141.128669,331.508342 C141.695827,331.508342 142.155598,331.968114 142.155598,332.535271 C142.155598,333.102429 141.695827,333.562201 141.128669,333.562201 Z M87.8505427,254.631643 C87.2833853,254.631643 86.8236134,254.171871 86.8236134,253.604714 C86.8236134,253.037556 87.2833853,252.577784 87.8505427,252.577784 C88.4177001,252.577784 88.8774721,253.037556 88.8774721,253.604714 C88.8774721,254.171871 88.4177001,254.631643 87.8505427,254.631643 Z M150.994989,418.41255 C150.427831,418.41255 149.968059,417.952778 149.968059,417.385621 C149.968059,416.818463 150.427831,416.358691 150.994989,416.358691 C151.562146,416.358691 152.021918,416.818463 152.021918,417.385621 C152.021918,417.952778 151.562146,418.41255 150.994989,418.41255 Z M97.7168624,339.481992 C97.149705,339.481992 96.6899331,339.022221 96.6899331,338.455063 C96.6899331,337.887906 97.149705,337.428134 97.7168624,337.428134 C98.2840198,337.428134 98.7437918,337.887906 98.7437918,338.455063 C98.7437918,339.022221 98.2840198,339.481992 97.7168624,339.481992 Z M38.5189442,388.813591 C37.9517868,388.813591 37.4920149,388.353819 37.4920149,387.786662 C37.4920149,387.219504 37.9517868,386.759732 38.5189442,386.759732 C39.0861016,386.759732 39.5458736,387.219504 39.5458736,387.786662 C39.5458736,388.353819 39.0861016,388.813591 38.5189442,388.813591 Z M367.851615,143.724048 C366.30644,143.724048 365.053829,142.471436 365.053829,140.926262 C365.053829,139.381087 366.30644,138.128476 367.851615,138.128476 C369.39679,138.128476 370.649401,139.381087 370.649401,140.926262 C370.649401,142.471436 369.39679,143.724048 367.851615,143.724048 Z M379.691199,268.039676 C378.146024,268.039676 376.893413,266.787065 376.893413,265.24189 C376.893413,263.696716 378.146024,262.444104 379.691199,262.444104 C381.236373,262.444104 382.488985,263.696716 382.488985,265.24189 C382.488985,266.787065 381.236373,268.039676 379.691199,268.039676 Z M4.77105003,337.103914 C3.22587544,337.103914 1.97326394,335.851303 1.97326394,334.306128 C1.97326394,332.760953 3.22587544,331.508342 4.77105003,331.508342 C6.31622462,331.508342 7.56883612,332.760953 7.56883612,334.306128 C7.56883612,335.851303 6.31622462,337.103914 4.77105003,337.103914 Z M319.794101,189.684024 C318.635073,189.684024 317.695494,188.744446 317.695494,187.585417 C317.695494,186.426389 318.635073,185.48681 319.794101,185.48681 C320.95313,185.48681 321.892708,186.426389 321.892708,187.585417 C321.892708,188.744446 320.95313,189.684024 319.794101,189.684024 Z M290.54557,71.1581978 C289.386541,71.1581978 288.446963,70.2186196 288.446963,69.0595911 C288.446963,67.9005625 289.386541,66.9609843 290.54557,66.9609843 C291.704598,66.9609843 292.644177,67.9005625 292.644177,69.0595911 C292.644177,70.2186196 291.704598,71.1581978 290.54557,71.1581978 Z M11.9649265,189.684024 C10.805898,189.684024 9.8663197,188.744446 9.8663197,187.585417 C9.8663197,186.426389 10.805898,185.48681 11.9649265,185.48681 C13.123955,185.48681 14.0635333,186.426389 14.0635333,187.585417 C14.0635333,188.744446 13.123955,189.684024 11.9649265,189.684024 Z M360.699129,186.643729 C359.834752,186.643729 359.134037,185.943014 359.134037,185.078638 C359.134037,184.214262 359.834752,183.513546 360.699129,183.513546 C361.563505,183.513546 362.26422,184.214262 362.26422,185.078638 C362.26422,185.943014 361.563505,186.643729 360.699129,186.643729 Z M449.496006,166.33263 C448.63163,166.33263 447.930914,165.631915 447.930914,164.767539 C447.930914,163.903163 448.63163,163.202448 449.496006,163.202448 C450.360382,163.202448 451.061097,163.903163 451.061097,164.767539 C451.061097,165.631915 450.360382,166.33263 449.496006,166.33263 Z M52.8699539,186.643729 C52.0055778,186.643729 51.3048624,185.943014 51.3048624,185.078638 C51.3048624,184.214262 52.0055778,183.513546 52.8699539,183.513546 C53.7343301,183.513546 54.4350454,184.214262 54.4350454,185.078638 C54.4350454,185.943014 53.7343301,186.643729 52.8699539,186.643729 Z M354.779337,30.7558781 C353.914961,30.7558781 353.214245,30.0551628 353.214245,29.1907866 C353.214245,28.3264105 353.914961,27.6256952 354.779337,27.6256952 C355.643713,27.6256952 356.344428,28.3264105 356.344428,29.1907866 C356.344428,30.0551628 355.643713,30.7558781 354.779337,30.7558781 Z M427.790103,413.569083 C426.925726,413.569083 426.225011,412.868367 426.225011,412.003991 C426.225011,411.139615 426.925726,410.4389 427.790103,410.4389 C428.654479,410.4389 429.355194,411.139615 429.355194,412.003991 C429.355194,412.868367 428.654479,413.569083 427.790103,413.569083 Z M382.405032,206.376369 C381.540656,206.376369 380.83994,205.675653 380.83994,204.811277 C380.83994,203.946901 381.540656,203.246186 382.405032,203.246186 C383.269408,203.246186 383.970123,203.946901 383.970123,204.811277 C383.970123,205.675653 383.269408,206.376369 382.405032,206.376369 Z M74.5758573,206.376369 C73.7114811,206.376369 73.0107658,205.675653 73.0107658,204.811277 C73.0107658,203.946901 73.7114811,203.246186 74.5758573,203.246186 C75.4402334,203.246186 76.1409488,203.946901 76.1409488,204.811277 C76.1409488,205.675653 75.4402334,206.376369 74.5758573,206.376369 Z M376.48524,50.4885175 C375.620864,50.4885175 374.920149,49.7878022 374.920149,48.923426 C374.920149,48.0590499 375.620864,47.3583346 376.48524,47.3583346 C377.349616,47.3583346 378.050332,48.0590499 378.050332,48.923426 C378.050332,49.7878022 377.349616,50.4885175 376.48524,50.4885175 Z M449.496006,433.301722 C448.63163,433.301722 447.930914,432.601007 447.930914,431.73663 C447.930914,430.872254 448.63163,430.171539 449.496006,430.171539 C450.360382,430.171539 451.061097,430.872254 451.061097,431.73663 C451.061097,432.601007 450.360382,433.301722 449.496006,433.301722 Z M343.47175,134.429597 C342.31356,134.429597 341.374662,133.490698 341.374662,132.332508 C341.374662,131.174318 342.31356,130.23542 343.47175,130.23542 C344.62994,130.23542 345.568838,131.174318 345.568838,132.332508 C345.568838,133.490698 344.62994,134.429597 343.47175,134.429597 Z M413.699352,144.649381 C412.988457,144.649381 412.412163,144.073087 412.412163,143.362192 C412.412163,142.651298 412.988457,142.075004 413.699352,142.075004 C414.410247,142.075004 414.986541,142.651298 414.986541,143.362192 C414.986541,144.073087 414.410247,144.649381 413.699352,144.649381 Z M502.49623,124.338282 C501.785335,124.338282 501.209041,123.761988 501.209041,123.051093 C501.209041,122.340199 501.785335,121.763905 502.49623,121.763905 C503.207124,121.763905 503.783418,122.340199 503.783418,123.051093 C503.783418,123.761988 503.207124,124.338282 502.49623,124.338282 Z M425.538936,268.965009 C424.828041,268.965009 424.251747,268.388715 424.251747,267.677821 C424.251747,266.966926 424.828041,266.390632 425.538936,266.390632 C426.249831,266.390632 426.826125,266.966926 426.826125,267.677821 C426.826125,268.388715 426.249831,268.965009 425.538936,268.965009 Z M50.6187872,338.029247 C49.9078925,338.029247 49.3315985,337.452953 49.3315985,336.742059 C49.3315985,336.031164 49.9078925,335.45487 50.6187872,335.45487 C51.3296819,335.45487 51.9059759,336.031164 51.9059759,336.742059 C51.9059759,337.452953 51.3296819,338.029247 50.6187872,338.029247 Z M392.327628,151.237531 C391.432171,151.237531 390.70626,150.51162 390.70626,149.616163 C390.70626,148.720706 391.432171,147.994796 392.327628,147.994796 C393.223084,147.994796 393.948995,148.720706 393.948995,149.616163 C393.948995,150.51162 393.223084,151.237531 392.327628,151.237531 Z M481.124505,130.926432 C480.229048,130.926432 479.503137,130.200521 479.503137,129.305064 C479.503137,128.409608 480.229048,127.683697 481.124505,127.683697 C482.019962,127.683697 482.745873,128.409608 482.745873,129.305064 C482.745873,130.200521 482.019962,130.926432 481.124505,130.926432 Z M404.167211,275.553159 C403.271755,275.553159 402.545844,274.827248 402.545844,273.931791 C402.545844,273.036335 403.271755,272.310424 404.167211,272.310424 C405.062668,272.310424 405.788579,273.036335 405.788579,273.931791 C405.788579,274.827248 405.062668,275.553159 404.167211,275.553159 Z M459.418602,378.162884 C458.523145,378.162884 457.797234,377.436973 457.797234,376.541516 C457.797234,375.64606 458.523145,374.920149 459.418602,374.920149 C460.314058,374.920149 461.039969,375.64606 461.039969,376.541516 C461.039969,377.436973 460.314058,378.162884 459.418602,378.162884 Z M29.2470627,344.617397 C28.3516061,344.617397 27.6256952,343.891486 27.6256952,342.996029 C27.6256952,342.100573 28.3516061,341.374662 29.2470627,341.374662 C30.1425193,341.374662 30.8684303,342.100573 30.8684303,342.996029 C30.8684303,343.891486 30.1425193,344.617397 29.2470627,344.617397 Z M399.626245,171.754558 C399.059088,171.754558 398.599316,171.294786 398.599316,170.727628 C398.599316,170.160471 399.059088,169.700699 399.626245,169.700699 C400.193403,169.700699 400.653175,170.160471 400.653175,170.727628 C400.653175,171.294786 400.193403,171.754558 399.626245,171.754558 Z M488.423123,151.443459 C487.855965,151.443459 487.396193,150.983687 487.396193,150.416529 C487.396193,149.849372 487.855965,149.3896 488.423123,149.3896 C488.99028,149.3896 489.450052,149.849372 489.450052,150.416529 C489.450052,150.983687 488.99028,151.443459 488.423123,151.443459 Z M91.7970706,171.754558 C91.2299132,171.754558 90.7701412,171.294786 90.7701412,170.727628 C90.7701412,170.160471 91.2299132,169.700699 91.7970706,169.700699 C92.364228,169.700699 92.8239999,170.160471 92.8239999,170.727628 C92.8239999,171.294786 92.364228,171.754558 91.7970706,171.754558 Z M393.706453,15.8667063 C393.139296,15.8667063 392.679524,15.4069343 392.679524,14.8397769 C392.679524,14.2726195 393.139296,13.8128476 393.706453,13.8128476 C394.273611,13.8128476 394.733383,14.2726195 394.733383,14.8397769 C394.733383,15.4069343 394.273611,15.8667063 393.706453,15.8667063 Z M466.717219,398.679911 C466.150062,398.679911 465.69029,398.220139 465.69029,397.652981 C465.69029,397.085824 466.150062,396.626052 466.717219,396.626052 C467.284377,396.626052 467.744149,397.085824 467.744149,397.652981 C467.744149,398.220139 467.284377,398.679911 466.717219,398.679911 Z M364.107494,157.94171 C363.540337,157.94171 363.080565,157.481938 363.080565,156.914781 C363.080565,156.347623 363.540337,155.887851 364.107494,155.887851 C364.674652,155.887851 365.134424,156.347623 365.134424,156.914781 C365.134424,157.481938 364.674652,157.94171 364.107494,157.94171 Z M452.904372,137.630611 C452.337214,137.630611 451.877442,137.170839 451.877442,136.603682 C451.877442,136.036524 452.337214,135.576752 452.904372,135.576752 C453.471529,135.576752 453.931301,136.036524 453.931301,136.603682 C453.931301,137.170839 453.471529,137.630611 452.904372,137.630611 Z M358.187703,2.0538587 C357.620545,2.0538587 357.160773,1.59408677 357.160773,1.02692935 C357.160773,0.45977193 357.620545,0 358.187703,0 C358.75486,0 359.214632,0.45977193 359.214632,1.02692935 C359.214632,1.59408677 358.75486,2.0538587 358.187703,2.0538587 Z M450.931108,92.8239999 C450.36395,92.8239999 449.904178,92.364228 449.904178,91.7970706 C449.904178,91.2299132 450.36395,90.7701412 450.931108,90.7701412 C451.498265,90.7701412 451.958037,91.2299132 451.958037,91.7970706 C451.958037,92.364228 451.498265,92.8239999 450.931108,92.8239999 Z M1.02692935,351.321576 C0.45977193,351.321576 0,350.861804 0,350.294647 C0,349.727489 0.45977193,349.267717 1.02692935,349.267717 C1.59408677,349.267717 2.0538587,349.727489 2.0538587,350.294647 C2.0538587,350.861804 1.59408677,351.321576 1.02692935,351.321576 Z M250.729863,39.7159645 C249.570835,39.7159645 248.631256,38.7763862 248.631256,37.6173577 C248.631256,36.4583292 249.570835,35.5187509 250.729863,35.5187509 C251.888892,35.5187509 252.82847,36.4583292 252.82847,37.6173577 C252.82847,38.7763862 251.888892,39.7159645 250.729863,39.7159645 Z M323.740629,422.529169 C322.5816,422.529169 321.642022,421.589591 321.642022,420.430562 C321.642022,419.271534 322.5816,418.331955 323.740629,418.331955 C324.899658,418.331955 325.839236,419.271534 325.839236,420.430562 C325.839236,421.589591 324.899658,422.529169 323.740629,422.529169 Z M244.276556,289.253454 C243.41218,289.253454 242.711465,288.552739 242.711465,287.688363 C242.711465,286.823987 243.41218,286.123271 244.276556,286.123271 C245.140932,286.123271 245.841648,286.823987 245.841648,287.688363 C245.841648,288.552739 245.140932,289.253454 244.276556,289.253454 Z M299.527946,391.863179 C298.66357,391.863179 297.962855,391.162464 297.962855,390.298088 C297.962855,389.433712 298.66357,388.732996 299.527946,388.732996 C300.392323,388.732996 301.093038,389.433712 301.093038,390.298088 C301.093038,391.162464 300.392323,391.863179 299.527946,391.863179 Z M215.028025,170.727628 C214.163649,170.727628 213.462933,170.026913 213.462933,169.162537 C213.462933,168.298161 214.163649,167.597445 215.028025,167.597445 C215.892401,167.597445 216.593116,168.298161 216.593116,169.162537 C216.593116,170.026913 215.892401,170.727628 215.028025,170.727628 Z M252.169612,24.8360863 C251.305236,24.8360863 250.60452,24.135371 250.60452,23.2709948 C250.60452,22.4066187 251.305236,21.7059033 252.169612,21.7059033 C253.033988,21.7059033 253.734703,22.4066187 253.734703,23.2709948 C253.734703,24.135371 253.033988,24.8360863 252.169612,24.8360863 Z M325.180378,407.649291 C324.316002,407.649291 323.615286,406.948575 323.615286,406.084199 C323.615286,405.219823 324.316002,404.519108 325.180378,404.519108 C326.044754,404.519108 326.745469,405.219823 326.745469,406.084199 C326.745469,406.948575 326.044754,407.649291 325.180378,407.649291 Z M211.263066,258.745225 C210.104876,258.745225 209.165978,257.806326 209.165978,256.648137 C209.165978,255.489947 210.104876,254.551048 211.263066,254.551048 C212.421256,254.551048 213.360154,255.489947 213.360154,256.648137 C213.360154,257.806326 212.421256,258.745225 211.263066,258.745225 Z M182.014535,140.219399 C180.856345,140.219399 179.917446,139.2805 179.917446,138.122311 C179.917446,136.964121 180.856345,136.025222 182.014535,136.025222 C183.172725,136.025222 184.111623,136.964121 184.111623,138.122311 C184.111623,139.2805 183.172725,140.219399 182.014535,140.219399 Z M291.356988,235.419522 C290.646093,235.419522 290.069799,234.843228 290.069799,234.132334 C290.069799,233.421439 290.646093,232.845145 291.356988,232.845145 C292.067883,232.845145 292.644177,233.421439 292.644177,234.132334 C292.644177,234.843228 292.067883,235.419522 291.356988,235.419522 Z M262.108457,116.893696 C261.397562,116.893696 260.821268,116.317402 260.821268,115.606508 C260.821268,114.895613 261.397562,114.319319 262.108457,114.319319 C262.819351,114.319319 263.395645,114.895613 263.395645,115.606508 C263.395645,116.317402 262.819351,116.893696 262.108457,116.893696 Z M260.118944,253.847256 C259.223487,253.847256 258.497576,253.121345 258.497576,252.225888 C258.497576,251.330431 259.223487,250.60452 260.118944,250.60452 C261.0144,250.60452 261.740311,251.330431 261.740311,252.225888 C261.740311,253.121345 261.0144,253.847256 260.118944,253.847256 Z M230.870412,135.321429 C229.974956,135.321429 229.249045,134.595518 229.249045,133.700062 C229.249045,132.804605 229.974956,132.078694 230.870412,132.078694 C231.765869,132.078694 232.49178,132.804605 232.49178,133.700062 C232.49178,134.595518 231.765869,135.321429 230.870412,135.321429 Z M271.364089,6.00038658 C270.796932,6.00038658 270.33716,5.54061465 270.33716,4.97345723 C270.33716,4.40629981 270.796932,3.94652788 271.364089,3.94652788 C271.931247,3.94652788 272.391018,4.40629981 272.391018,4.97345723 C272.391018,5.54061465 271.931247,6.00038658 271.364089,6.00038658 Z M344.374855,388.813591 C343.807698,388.813591 343.347926,388.353819 343.347926,387.786662 C343.347926,387.219504 343.807698,386.759732 344.374855,386.759732 C344.942012,386.759732 345.401784,387.219504 345.401784,387.786662 C345.401784,388.353819 344.942012,388.813591 344.374855,388.813591 Z M259.874933,167.67804 C259.307776,167.67804 258.848004,167.218268 258.848004,166.651111 C258.848004,166.083953 259.307776,165.624181 259.874933,165.624181 C260.442091,165.624181 260.901863,166.083953 260.901863,166.651111 C260.901863,167.218268 260.442091,167.67804 259.874933,167.67804 Z M253.604714,272.391018 C253.037556,272.391018 252.577784,271.931247 252.577784,271.364089 C252.577784,270.796932 253.037556,270.33716 253.604714,270.33716 C254.171871,270.33716 254.631643,270.796932 254.631643,271.364089 C254.631643,271.931247 254.171871,272.391018 253.604714,272.391018 Z M224.356182,153.865192 C223.789025,153.865192 223.329253,153.40542 223.329253,152.838263 C223.329253,152.271106 223.789025,151.811334 224.356182,151.811334 C224.92334,151.811334 225.383112,152.271106 225.383112,152.838263 C225.383112,153.40542 224.92334,153.865192 224.356182,153.865192 Z" id="Combined-Shape" fill="#FFFFFF" fill-rule="evenodd" opacity="0.5"></path>
                            <g id="飞" stroke-width="1" fill="none" fill-rule="evenodd" transform="translate(144.177509, 117.161012) rotate(-5.000000) translate(-144.177509, -117.161012) translate(69.677509, 94.661012)">
                                <path d="M134.737235,34.7887124 L135.5932,35.2035308 L135.5932,39.4899081 L135.5932,39.4899081 C135.5932,39.7262762 135.401586,39.9178904 135.165218,39.9178904 L135.165218,39.9178904 L135.165218,39.9178904 C134.928849,39.9178904 134.737235,39.7262762 134.737235,39.4899081 L134.737235,34.7887124 Z" id="Rectangle-2-Copy-2" fill="#D1D4D7"></path>
                                <path d="M80.6214604,38.1019231 C116.988735,38.1019231 146.86584,38.1297688 148.54228,30.3303204 C148.595032,30.0848976 148.545899,28.9356836 148.54228,28.6745725 C147.892844,23.1138173 132.871601,18.939707 126.530198,19.3270624 C118.206438,19.3270624 103.460215,19.3270624 80.6214604,19.3270624 C43.1212088,19.3270624 12.8190916,18.8566033 12.700641,29.5427954 C12.7183286,33.7119435 18.0013021,37.9875216 80.6214604,38.1019231 Z" id="Oval" fill="#F5F5F5"></path>
                                <path d="M140.80982,24.3002292 C142.256831,24.3013542 143.644025,24.3002373 144.971402,24.2968785 C145.573558,24.685391 148.348361,26.3814389 148.538226,28.7144927 C147.405216,28.7243979 144.82979,28.7258559 140.811949,28.7188666 L140.811949,28.7188331 C139.591164,28.7167095 138.602648,27.7264719 138.602648,26.5056856 L138.602648,26.5056856 L138.602648,26.5056856 C138.602648,25.2876449 139.590065,24.3002277 140.808106,24.3002277 C140.808677,24.3002277 140.809249,24.300228 140.80982,24.3002284 L140.80982,24.3002292 Z M58.533389,27.0578874 C57.6184712,27.0578874 56.8767837,26.5481902 56.8767837,24.8490803 C56.8767837,23.1499703 57.6184712,22.6402731 58.533389,22.6402731 C59.4483069,22.6402731 60.1899944,23.1766134 60.1899944,24.8490803 C60.1899944,26.5215471 59.4483069,27.0578874 58.533389,27.0578874 Z M50.8025641,27.0578874 C49.8876462,27.0578874 49.1459587,26.5481902 49.1459587,24.8490803 C49.1459587,23.1499703 49.8876462,22.6402731 50.8025641,22.6402731 C51.7174819,22.6402731 52.4591694,23.1766134 52.4591694,24.8490803 C52.4591694,26.5215471 51.7174819,27.0578874 50.8025641,27.0578874 Z M43.0717391,27.0578874 C42.1568212,27.0578874 41.4151338,26.5481902 41.4151338,24.8490803 C41.4151338,23.1499703 42.1568212,22.6402731 43.0717391,22.6402731 C43.986657,22.6402731 44.7283445,23.1766134 44.7283445,24.8490803 C44.7283445,26.5215471 43.986657,27.0578874 43.0717391,27.0578874 Z M66.264214,27.0578874 C65.3492961,27.0578874 64.6076087,26.5481902 64.6076087,24.8490803 C64.6076087,23.1499703 65.3492961,22.6402731 66.264214,22.6402731 C67.1791319,22.6402731 67.9208194,23.1766134 67.9208194,24.8490803 C67.9208194,26.5215471 67.1791319,27.0578874 66.264214,27.0578874 Z M73.995039,27.0578874 C73.0801211,27.0578874 72.3384336,26.5481902 72.3384336,24.8490803 C72.3384336,23.1499703 73.0801211,22.6402731 73.995039,22.6402731 C74.9099569,22.6402731 75.6516443,23.1766134 75.6516443,24.8490803 C75.6516443,26.5215471 74.9099569,27.0578874 73.995039,27.0578874 Z M81.7258639,27.0578874 C80.8109461,27.0578874 80.0692586,26.5481902 80.0692586,24.8490803 C80.0692586,23.1499703 80.8109461,22.6402731 81.7258639,22.6402731 C82.6407818,22.6402731 83.3824693,23.1766134 83.3824693,24.8490803 C83.3824693,26.5215471 82.6407818,27.0578874 81.7258639,27.0578874 Z M89.4566889,27.0578874 C88.541771,27.0578874 87.8000836,26.5481902 87.8000836,24.8490803 C87.8000836,23.1499703 88.541771,22.6402731 89.4566889,22.6402731 C90.3716068,22.6402731 91.1132943,23.1766134 91.1132943,24.8490803 C91.1132943,26.5215471 90.3716068,27.0578874 89.4566889,27.0578874 Z M97.1875139,27.0578874 C96.272596,27.0578874 95.5309085,26.5481902 95.5309085,24.8490803 C95.5309085,23.1499703 96.272596,22.6402731 97.1875139,22.6402731 C98.1024318,22.6402731 98.8441192,23.1766134 98.8441192,24.8490803 C98.8441192,26.5215471 98.1024318,27.0578874 97.1875139,27.0578874 Z M104.918339,27.0578874 C104.003421,27.0578874 103.261734,26.5481902 103.261734,24.8490803 C103.261734,23.1499703 104.003421,22.6402731 104.918339,22.6402731 C105.833257,22.6402731 106.574944,23.1766134 106.574944,24.8490803 C106.574944,26.5215471 105.833257,27.0578874 104.918339,27.0578874 Z M112.649164,27.0578874 C111.734246,27.0578874 110.992558,26.5481902 110.992558,24.8490803 C110.992558,23.1499703 111.734246,22.6402731 112.649164,22.6402731 C113.564082,22.6402731 114.305769,23.1766134 114.305769,24.8490803 C114.305769,26.5215471 113.564082,27.0578874 112.649164,27.0578874 Z" id="Combined-Shape" fill="#003776"></path>
                                <path d="M80.6214604,38.1019231 C116.988735,38.1019231 146.86584,38.1297688 148.54228,30.3303204 C128.278911,30.3303204 29.5965979,30.2336356 12.8013354,30.3303204 C12.819023,34.4994685 18.0013021,37.9875216 80.6214604,38.1019231 Z" id="Oval-Copy" fill="#D6D8DB"></path>
                                <path d="M55.7834785,29.2708971 L91.8926911,29.2708971 L91.8926911,29.2708971 C93.265068,29.2708971 94.3775992,30.3834283 94.3775992,31.7558051 L94.3775992,31.7558051 L94.3775992,31.7558051 C94.3775992,33.1497907 93.2686744,34.2908508 91.8752574,34.3306618 C83.5627343,34.5681595 75.2137973,34.1961966 66.8284467,33.2147758 C61.7782495,32.623701 58.0029761,31.9623252 55.5026266,31.2306482 L55.5026266,31.2306482 C54.9725707,31.075538 54.6686172,30.5201012 54.8237274,29.9900453 C54.9484581,29.5638046 55.3393627,29.2708971 55.7834785,29.2708971 Z" id="Rectangle-2" fill="#FFFFFF"></path>
                                <path d="M71.882487,33.6885114 L86.2397333,34.1797594 L86.2397333,37.762731 L86.2397333,37.762731 C86.2397333,38.8673005 85.3443028,39.762731 84.2397333,39.762731 L73.882487,39.762731 L73.882487,39.762731 C72.7779175,39.762731 71.882487,38.8673005 71.882487,37.762731 L71.882487,33.6885114 Z" id="Rectangle-2-Copy" fill="#F7F7F7"></path>
                                <g id="Path-18">
                                    <use fill="black" fill-opacity="1" filter="url(#filter-6)" xlink:href="#path-5"></use>
                                    <use fill="url(#linearGradient-4)" fill-rule="evenodd" xlink:href="#path-5"></use>
                                </g>
                                <path d="M7.44432727,20.9836678 L18.7705051,20.9836678 L18.7705051,20.9836678 C19.9928011,20.9836678 20.9836678,21.9745345 20.9836678,23.1968304 L20.9836678,23.1968304 L20.9836678,23.1968304 C20.9836678,24.4203147 19.9939948,25.4132829 18.7705173,25.4173498 L9.12363804,25.4494167 L7.44432727,20.9836678 Z" id="Rectangle-31" fill="#FFFFFF"></path>
                                <path d="M75.7478994,44.1803453 C74.5280089,44.1803453 73.5390923,43.1914286 73.5390923,41.9715381 C73.5390923,40.7516476 74.5280089,39.762731 75.7478994,39.762731 C76.9677899,39.762731 77.9567066,40.7516476 77.9567066,41.9715381 C77.9567066,43.1914286 76.9677899,44.1803453 75.7478994,44.1803453 Z M75.7478994,43.0759417 C76.3578447,43.0759417 76.852303,42.5814834 76.852303,41.9715381 C76.852303,41.3615929 76.3578447,40.8671346 75.7478994,40.8671346 C75.1379542,40.8671346 74.6434959,41.3615929 74.6434959,41.9715381 C74.6434959,42.5814834 75.1379542,43.0759417 75.7478994,43.0759417 Z" id="Combined-Shape" fill="#000000"></path>
                                <path d="M80.6695879,44.7304458 C79.4496974,44.7304458 78.4607808,43.7415291 78.4607808,42.5216386 C78.4607808,41.3017481 79.4496974,40.3128315 80.6695879,40.3128315 C81.8894784,40.3128315 82.8783951,41.3017481 82.8783951,42.5216386 C82.8783951,43.7415291 81.8894784,44.7304458 80.6695879,44.7304458 Z M80.6695879,43.6260422 C81.2795332,43.6260422 81.7739915,43.1315839 81.7739915,42.5216386 C81.7739915,41.9116934 81.2795332,41.4172351 80.6695879,41.4172351 C80.0596427,41.4172351 79.5651844,41.9116934 79.5651844,42.5216386 C79.5651844,43.1315839 80.0596427,43.6260422 80.6695879,43.6260422 Z" id="Combined-Shape-Copy" fill="#000000"></path>
                                <path d="M135.289437,43.6239409 C134.069546,43.6239409 133.08063,42.6350243 133.08063,41.4151338 C133.08063,40.1952433 134.069546,39.2063266 135.289437,39.2063266 C136.509327,39.2063266 137.498244,40.1952433 137.498244,41.4151338 C137.498244,42.6350243 136.509327,43.6239409 135.289437,43.6239409 Z M135.289437,42.5195373 C135.899382,42.5195373 136.393841,42.025079 136.393841,41.4151338 C136.393841,40.8051885 135.899382,40.3107302 135.289437,40.3107302 C134.679492,40.3107302 134.185033,40.8051885 134.185033,41.4151338 C134.185033,42.025079 134.679492,42.5195373 135.289437,42.5195373 Z" id="Combined-Shape-Copy-2" fill="#000000"></path>
                            </g>
                            <g id="Oval-19-Copy" fill="none" opacity="0.449999988">
                                <use fill="black" fill-opacity="1" filter="url(#filter-8)" xlink:href="#path-7"></use>
                                <use fill="url(#linearGradient-4)" fill-rule="evenodd" xlink:href="#path-7"></use>
                            </g>
                        </g>
                    </g>
                </g>
                <path d="M280.361341,77.2255665 C281.516846,77.1971572 313.242613,77.1472187 313.242613,76.6645632 C313.242613,76.1819077 281.412722,75.2980178 280.361341,75.2980178 C279.30996,75.2980178 278.457648,75.4335332 278.457648,76.2617922 C278.457648,77.0900512 279.205836,77.2539759 280.361341,77.2255665 Z" id="Oval-14-Copy" fill="#FFFFFF" opacity="0.400000006" filter="url(#filter-9)" transform="translate(295.850130, 76.263282) rotate(-36.000000) translate(-295.850130, -76.263282) "></path>
                <path d="M258.78888,125.899624 C260.553627,125.856236 276.846585,125.125414 307.667753,123.70716 C276.687561,122.22495 260.394603,121.483845 258.78888,121.483845 C256.380295,121.483845 254.427751,121.794294 254.427751,123.691734 C254.427751,125.589175 256.141759,125.964706 258.78888,125.899624 Z" id="Oval-14" fill="#FFFFFF" opacity="0.699999988" filter="url(#filter-10)" transform="translate(281.047752, 123.695147) rotate(-36.000000) translate(-281.047752, -123.695147) "></path>
                <mask id="mask-12" fill="white">
                    <use xlink:href="#path-11"></use>
                </mask>
                <use id="Mask" fill-opacity="0" fill="#D8D8D8" xlink:href="#path-11"></use>
                <g id="云" mask="url(#mask-12)">
                    <g transform="translate(-65.000000, 413.000000)">
                        <g id="Oval-Copy-5">
                            <use fill="black" fill-opacity="1" filter="url(#filter-14)" xlink:href="#path-13"></use>
                            <use fill="#FFFFFF" fill-rule="evenodd" xlink:href="#path-13"></use>
                        </g>
                        <g id="Oval-Copy-6">
                            <use fill="black" fill-opacity="1" filter="url(#filter-16)" xlink:href="#path-15"></use>
                            <use fill="#FFFFFF" fill-rule="evenodd" xlink:href="#path-15"></use>
                        </g>
                        <g id="Oval-Copy-4">
                            <use fill="black" fill-opacity="1" filter="url(#filter-18)" xlink:href="#path-17"></use>
                            <use fill="#FFFFFF" fill-rule="evenodd" xlink:href="#path-17"></use>
                        </g>
                        <g id="Oval-Copy-2">
                            <use fill="black" fill-opacity="1" filter="url(#filter-20)" xlink:href="#path-19"></use>
                            <use fill="#FFFFFF" fill-rule="evenodd" xlink:href="#path-19"></use>
                        </g>
                        <g id="Oval-Copy-3">
                            <use fill="black" fill-opacity="1" filter="url(#filter-22)" xlink:href="#path-21"></use>
                            <use fill="#FFFFFF" fill-rule="evenodd" xlink:href="#path-21"></use>
                        </g>
                        <g id="Oval">
                            <use fill="black" fill-opacity="1" filter="url(#filter-24)" xlink:href="#path-23"></use>
                            <use fill="#FFFFFF" fill-rule="evenodd" xlink:href="#path-23"></use>
                        </g>
                        <g id="Oval-Copy">
                            <use fill="black" fill-opacity="1" filter="url(#filter-26)" xlink:href="#path-25"></use>
                            <use fill="#FFFFFF" fill-rule="evenodd" xlink:href="#path-25"></use>
                        </g>
                    </g>
                </g>
            </g>
        </g>
    </g>
</svg>