<?xml version="1.0" encoding="UTF-8" standalone="no"?>
<svg width="375px" height="511px" viewBox="0 0 375 511" version="1.1" xmlns="http://www.w3.org/2000/svg" xmlns:xlink="http://www.w3.org/1999/xlink">
    <!-- Generator: Sketch 45.1 (43504) - http://www.bohemiancoding.com/sketch -->
    <title>lxr_bg_1</title>
    <desc>Created with Sketch.</desc>
    <defs>
        <linearGradient x1="31.822288%" y1="0%" x2="31.822288%" y2="100%" id="linearGradient-1">
            <stop stop-color="#FFCA78" offset="0%"></stop>
            <stop stop-color="#EE7074" offset="100%"></stop>
        </linearGradient>
        <rect id="path-2" x="0" y="0" width="375" height="508.10386"></rect>
        <rect id="path-4" x="0" y="407.182222" width="375" height="103.817778"></rect>
        <circle id="path-6" cx="196.82959" cy="101.82959" r="55.8295902"></circle>
        <filter x="-10.7%" y="-10.7%" width="121.5%" height="121.5%" filterUnits="objectBoundingBox" id="filter-7">
            <feOffset dx="0" dy="0" in="SourceAlpha" result="shadowOffsetOuter1"></feOffset>
            <feGaussianBlur stdDeviation="4" in="shadowOffsetOuter1" result="shadowBlurOuter1"></feGaussianBlur>
            <feColorMatrix values="0 0 0 0 0.588679766   0 0 0 0 0.902059958   0 0 0 0 1  0 0 0 1 0" type="matrix" in="shadowBlurOuter1"></feColorMatrix>
        </filter>
        <circle id="path-8" cx="62.8295902" cy="56.8295902" r="55.8295902"></circle>
        <filter x="-10.7%" y="-10.7%" width="121.5%" height="121.5%" filterUnits="objectBoundingBox" id="filter-9">
            <feOffset dx="0" dy="0" in="SourceAlpha" result="shadowOffsetOuter1"></feOffset>
            <feGaussianBlur stdDeviation="4" in="shadowOffsetOuter1" result="shadowBlurOuter1"></feGaussianBlur>
            <feColorMatrix values="0 0 0 0 0.588679766   0 0 0 0 0.902059958   0 0 0 0 1  0 0 0 1 0" type="matrix" in="shadowBlurOuter1"></feColorMatrix>
        </filter>
        <circle id="path-10" cx="264.82959" cy="123.82959" r="55.8295902"></circle>
        <filter x="-10.7%" y="-10.7%" width="121.5%" height="121.5%" filterUnits="objectBoundingBox" id="filter-11">
            <feOffset dx="0" dy="0" in="SourceAlpha" result="shadowOffsetOuter1"></feOffset>
            <feGaussianBlur stdDeviation="4" in="shadowOffsetOuter1" result="shadowBlurOuter1"></feGaussianBlur>
            <feColorMatrix values="0 0 0 0 0.588679766   0 0 0 0 0.902059958   0 0 0 0 1  0 0 0 1 0" type="matrix" in="shadowBlurOuter1"></feColorMatrix>
        </filter>
        <circle id="path-12" cx="363.866536" cy="128.866536" r="92.8665365"></circle>
        <filter x="-6.5%" y="-6.5%" width="112.9%" height="112.9%" filterUnits="objectBoundingBox" id="filter-13">
            <feOffset dx="0" dy="0" in="SourceAlpha" result="shadowOffsetOuter1"></feOffset>
            <feGaussianBlur stdDeviation="4" in="shadowOffsetOuter1" result="shadowBlurOuter1"></feGaussianBlur>
            <feColorMatrix values="0 0 0 0 0.588679766   0 0 0 0 0.902059958   0 0 0 0 1  0 0 0 1 0" type="matrix" in="shadowBlurOuter1"></feColorMatrix>
        </filter>
        <circle id="path-14" cx="391.678992" cy="134.324095" r="69.3240945"></circle>
        <filter x="-8.7%" y="-8.7%" width="117.3%" height="117.3%" filterUnits="objectBoundingBox" id="filter-15">
            <feOffset dx="0" dy="0" in="SourceAlpha" result="shadowOffsetOuter1"></feOffset>
            <feGaussianBlur stdDeviation="4" in="shadowOffsetOuter1" result="shadowBlurOuter1"></feGaussianBlur>
            <feColorMatrix values="0 0 0 0 0.588679766   0 0 0 0 0.902059958   0 0 0 0 1  0 0 0 1 0" type="matrix" in="shadowBlurOuter1"></feColorMatrix>
        </filter>
        <circle id="path-16" cx="439.501543" cy="64.5015435" r="64.5015435"></circle>
        <filter x="-9.3%" y="-9.3%" width="118.6%" height="118.6%" filterUnits="objectBoundingBox" id="filter-17">
            <feOffset dx="0" dy="0" in="SourceAlpha" result="shadowOffsetOuter1"></feOffset>
            <feGaussianBlur stdDeviation="4" in="shadowOffsetOuter1" result="shadowBlurOuter1"></feGaussianBlur>
            <feColorMatrix values="0 0 0 0 0.588679766   0 0 0 0 0.902059958   0 0 0 0 1  0 0 0 1 0" type="matrix" in="shadowBlurOuter1"></feColorMatrix>
        </filter>
        <circle id="path-18" cx="105.458252" cy="158.458252" r="104.541748"></circle>
        <filter x="-5.7%" y="-5.7%" width="111.5%" height="111.5%" filterUnits="objectBoundingBox" id="filter-19">
            <feOffset dx="0" dy="0" in="SourceAlpha" result="shadowOffsetOuter1"></feOffset>
            <feGaussianBlur stdDeviation="4" in="shadowOffsetOuter1" result="shadowBlurOuter1"></feGaussianBlur>
            <feColorMatrix values="0 0 0 0 0.588679766   0 0 0 0 0.902059958   0 0 0 0 1  0 0 0 1 0" type="matrix" in="shadowBlurOuter1"></feColorMatrix>
        </filter>
    </defs>
    <g id="乐新人-1.2" stroke="none" stroke-width="1" fill="none" fill-rule="evenodd">
        <g id="1-1-收集页面" transform="translate(0.000000, -66.000000)">
            <g id="cutter" transform="translate(0.000000, 66.000000)">
                <g id="lxr_bg_1">
                    <g id="Group">
                        <mask id="mask-3" fill="white">
                            <use xlink:href="#path-2"></use>
                        </mask>
                        <use id="Mask-Copy" fill="url(#linearGradient-1)" xlink:href="#path-2"></use>
                        <path d="M103.926262,309.665371 C102.381087,309.665371 101.128476,308.41276 101.128476,306.867585 C101.128476,305.322411 102.381087,304.069799 103.926262,304.069799 C105.471436,304.069799 106.724048,305.322411 106.724048,306.867585 C106.724048,308.41276 105.471436,309.665371 103.926262,309.665371 Z M83.4944432,381.277779 C82.3354147,381.277779 81.3958364,380.3382 81.3958364,379.179172 C81.3958364,378.020143 82.3354147,377.080565 83.4944432,377.080565 C84.6534717,377.080565 85.59305,378.020143 85.59305,379.179172 C85.59305,380.3382 84.6534717,381.277779 83.4944432,381.277779 Z M30.2163168,302.347221 C29.0572883,302.347221 28.11771,301.407643 28.11771,300.248614 C28.11771,299.089586 29.0572883,298.150007 30.2163168,298.150007 C31.3753453,298.150007 32.3149236,299.089586 32.3149236,300.248614 C32.3149236,301.407643 31.3753453,302.347221 30.2163168,302.347221 Z M93.3607629,466.128128 C92.2017344,466.128128 91.2621561,465.18855 91.2621561,464.029521 C91.2621561,462.870493 92.2017344,461.930914 93.3607629,461.930914 C94.5197914,461.930914 95.4593697,462.870493 95.4593697,464.029521 C95.4593697,465.18855 94.5197914,466.128128 93.3607629,466.128128 Z M-7.80921336,419.676027 C-8.67358951,419.676027 -9.37430484,418.975311 -9.37430484,418.110935 C-9.37430484,417.246559 -8.67358951,416.545844 -7.80921336,416.545844 C-6.9448372,416.545844 -6.24412187,417.246559 -6.24412187,418.110935 C-6.24412187,418.975311 -6.9448372,419.676027 -7.80921336,419.676027 Z M69.1480803,435.462138 C68.2837042,435.462138 67.5829888,434.761423 67.5829888,433.897047 C67.5829888,433.032671 68.2837042,432.331955 69.1480803,432.331955 C70.0124565,432.331955 70.7131718,433.032671 70.7131718,433.897047 C70.7131718,434.761423 70.0124565,435.462138 69.1480803,435.462138 Z M15.8699539,356.531581 C15.0055778,356.531581 14.3048624,355.830865 14.3048624,354.966489 C14.3048624,354.102113 15.0055778,353.401398 15.8699539,353.401398 C16.7343301,353.401398 17.4350454,354.102113 17.4350454,354.966489 C17.4350454,355.830865 16.7343301,356.531581 15.8699539,356.531581 Z M84.9341918,366.3979 C84.0698157,366.3979 83.3691003,365.697185 83.3691003,364.832809 C83.3691003,363.968433 84.0698157,363.267717 84.9341918,363.267717 C85.798568,363.267717 86.4992833,363.968433 86.4992833,364.832809 C86.4992833,365.697185 85.798568,366.3979 84.9341918,366.3979 Z M31.6560654,287.467343 C30.7916893,287.467343 30.090974,286.766627 30.090974,285.902251 C30.090974,285.037875 30.7916893,284.33716 31.6560654,284.33716 C32.5204416,284.33716 33.2211569,285.037875 33.2211569,285.902251 C33.2211569,286.766627 32.5204416,287.467343 31.6560654,287.467343 Z M94.8005115,451.24825 C93.9361354,451.24825 93.23542,450.547534 93.23542,449.683158 C93.23542,448.818782 93.9361354,448.118067 94.8005115,448.118067 C95.6648877,448.118067 96.365603,448.818782 96.365603,449.683158 C96.365603,450.547534 95.6648877,451.24825 94.8005115,451.24825 Z M2.58910318,385.22127 C1.43091328,385.22127 0.492014862,384.282371 0.492014862,383.124181 C0.492014862,381.965991 1.43091328,381.027093 2.58910318,381.027093 C3.74729308,381.027093 4.68619151,381.965991 4.68619151,383.124181 C4.68619151,384.282371 3.74729308,385.22127 2.58910318,385.22127 Z M118.201776,320.457024 C117.490881,320.457024 116.914587,319.88073 116.914587,319.169835 C116.914587,318.458941 117.490881,317.882647 118.201776,317.882647 C118.912671,317.882647 119.488965,318.458941 119.488965,319.169835 C119.488965,319.88073 118.912671,320.457024 118.201776,320.457024 Z M96.8300516,327.045174 C95.934595,327.045174 95.208684,326.319263 95.208684,325.423806 C95.208684,324.52835 95.934595,323.802439 96.8300516,323.802439 C97.7255081,323.802439 98.4514191,324.52835 98.4514191,325.423806 C98.4514191,326.319263 97.7255081,327.045174 96.8300516,327.045174 Z M104.128669,347.562201 C103.561512,347.562201 103.10174,347.102429 103.10174,346.535271 C103.10174,345.968114 103.561512,345.508342 104.128669,345.508342 C104.695827,345.508342 105.155598,345.968114 105.155598,346.535271 C105.155598,347.102429 104.695827,347.562201 104.128669,347.562201 Z M50.8505427,268.631643 C50.2833853,268.631643 49.8236134,268.171871 49.8236134,267.604714 C49.8236134,267.037556 50.2833853,266.577784 50.8505427,266.577784 C51.4177001,266.577784 51.8774721,267.037556 51.8774721,267.604714 C51.8774721,268.171871 51.4177001,268.631643 50.8505427,268.631643 Z M113.994989,432.41255 C113.427831,432.41255 112.968059,431.952778 112.968059,431.385621 C112.968059,430.818463 113.427831,430.358691 113.994989,430.358691 C114.562146,430.358691 115.021918,430.818463 115.021918,431.385621 C115.021918,431.952778 114.562146,432.41255 113.994989,432.41255 Z M60.7168624,353.481992 C60.149705,353.481992 59.6899331,353.022221 59.6899331,352.455063 C59.6899331,351.887906 60.149705,351.428134 60.7168624,351.428134 C61.2840198,351.428134 61.7437918,351.887906 61.7437918,352.455063 C61.7437918,353.022221 61.2840198,353.481992 60.7168624,353.481992 Z M1.51894421,402.813591 C0.951786792,402.813591 0.492014862,402.353819 0.492014862,401.786662 C0.492014862,401.219504 0.951786792,400.759732 1.51894421,400.759732 C2.08610163,400.759732 2.54587356,401.219504 2.54587356,401.786662 C2.54587356,402.353819 2.08610163,402.813591 1.51894421,402.813591 Z M330.851615,157.724048 C329.30644,157.724048 328.053829,156.471436 328.053829,154.926262 C328.053829,153.381087 329.30644,152.128476 330.851615,152.128476 C332.39679,152.128476 333.649401,153.381087 333.649401,154.926262 C333.649401,156.471436 332.39679,157.724048 330.851615,157.724048 Z M342.691199,282.039676 C341.146024,282.039676 339.893413,280.787065 339.893413,279.24189 C339.893413,277.696716 341.146024,276.444104 342.691199,276.444104 C344.236373,276.444104 345.488985,277.696716 345.488985,279.24189 C345.488985,280.787065 344.236373,282.039676 342.691199,282.039676 Z M-32.22895,351.103914 C-33.7741246,351.103914 -35.0267361,349.851303 -35.0267361,348.306128 C-35.0267361,346.760953 -33.7741246,345.508342 -32.22895,345.508342 C-30.6837754,345.508342 -29.4311639,346.760953 -29.4311639,348.306128 C-29.4311639,349.851303 -30.6837754,351.103914 -32.22895,351.103914 Z M282.794101,203.684024 C281.635073,203.684024 280.695494,202.744446 280.695494,201.585417 C280.695494,200.426389 281.635073,199.48681 282.794101,199.48681 C283.95313,199.48681 284.892708,200.426389 284.892708,201.585417 C284.892708,202.744446 283.95313,203.684024 282.794101,203.684024 Z M253.54557,85.1581978 C252.386541,85.1581978 251.446963,84.2186196 251.446963,83.0595911 C251.446963,81.9005625 252.386541,80.9609843 253.54557,80.9609843 C254.704598,80.9609843 255.644177,81.9005625 255.644177,83.0595911 C255.644177,84.2186196 254.704598,85.1581978 253.54557,85.1581978 Z M-25.0350735,203.684024 C-26.194102,203.684024 -27.1336803,202.744446 -27.1336803,201.585417 C-27.1336803,200.426389 -26.194102,199.48681 -25.0350735,199.48681 C-23.876045,199.48681 -22.9364667,200.426389 -22.9364667,201.585417 C-22.9364667,202.744446 -23.876045,203.684024 -25.0350735,203.684024 Z M323.699129,200.643729 C322.834752,200.643729 322.134037,199.943014 322.134037,199.078638 C322.134037,198.214262 322.834752,197.513546 323.699129,197.513546 C324.563505,197.513546 325.26422,198.214262 325.26422,199.078638 C325.26422,199.943014 324.563505,200.643729 323.699129,200.643729 Z M412.496006,180.33263 C411.63163,180.33263 410.930914,179.631915 410.930914,178.767539 C410.930914,177.903163 411.63163,177.202448 412.496006,177.202448 C413.360382,177.202448 414.061097,177.903163 414.061097,178.767539 C414.061097,179.631915 413.360382,180.33263 412.496006,180.33263 Z M15.8699539,200.643729 C15.0055778,200.643729 14.3048624,199.943014 14.3048624,199.078638 C14.3048624,198.214262 15.0055778,197.513546 15.8699539,197.513546 C16.7343301,197.513546 17.4350454,198.214262 17.4350454,199.078638 C17.4350454,199.943014 16.7343301,200.643729 15.8699539,200.643729 Z M317.779337,44.7558781 C316.914961,44.7558781 316.214245,44.0551628 316.214245,43.1907866 C316.214245,42.3264105 316.914961,41.6256952 317.779337,41.6256952 C318.643713,41.6256952 319.344428,42.3264105 319.344428,43.1907866 C319.344428,44.0551628 318.643713,44.7558781 317.779337,44.7558781 Z M390.790103,427.569083 C389.925726,427.569083 389.225011,426.868367 389.225011,426.003991 C389.225011,425.139615 389.925726,424.4389 390.790103,424.4389 C391.654479,424.4389 392.355194,425.139615 392.355194,426.003991 C392.355194,426.868367 391.654479,427.569083 390.790103,427.569083 Z M345.405032,220.376369 C344.540656,220.376369 343.83994,219.675653 343.83994,218.811277 C343.83994,217.946901 344.540656,217.246186 345.405032,217.246186 C346.269408,217.246186 346.970123,217.946901 346.970123,218.811277 C346.970123,219.675653 346.269408,220.376369 345.405032,220.376369 Z M37.5758573,220.376369 C36.7114811,220.376369 36.0107658,219.675653 36.0107658,218.811277 C36.0107658,217.946901 36.7114811,217.246186 37.5758573,217.246186 C38.4402334,217.246186 39.1409488,217.946901 39.1409488,218.811277 C39.1409488,219.675653 38.4402334,220.376369 37.5758573,220.376369 Z M339.48524,64.4885175 C338.620864,64.4885175 337.920149,63.7878022 337.920149,62.923426 C337.920149,62.0590499 338.620864,61.3583346 339.48524,61.3583346 C340.349616,61.3583346 341.050332,62.0590499 341.050332,62.923426 C341.050332,63.7878022 340.349616,64.4885175 339.48524,64.4885175 Z M412.496006,447.301722 C411.63163,447.301722 410.930914,446.601007 410.930914,445.73663 C410.930914,444.872254 411.63163,444.171539 412.496006,444.171539 C413.360382,444.171539 414.061097,444.872254 414.061097,445.73663 C414.061097,446.601007 413.360382,447.301722 412.496006,447.301722 Z M306.47175,148.429597 C305.31356,148.429597 304.374662,147.490698 304.374662,146.332508 C304.374662,145.174318 305.31356,144.23542 306.47175,144.23542 C307.62994,144.23542 308.568838,145.174318 308.568838,146.332508 C308.568838,147.490698 307.62994,148.429597 306.47175,148.429597 Z M376.699352,158.649381 C375.988457,158.649381 375.412163,158.073087 375.412163,157.362192 C375.412163,156.651298 375.988457,156.075004 376.699352,156.075004 C377.410247,156.075004 377.986541,156.651298 377.986541,157.362192 C377.986541,158.073087 377.410247,158.649381 376.699352,158.649381 Z M465.49623,138.338282 C464.785335,138.338282 464.209041,137.761988 464.209041,137.051093 C464.209041,136.340199 464.785335,135.763905 465.49623,135.763905 C466.207124,135.763905 466.783418,136.340199 466.783418,137.051093 C466.783418,137.761988 466.207124,138.338282 465.49623,138.338282 Z M388.538936,282.965009 C387.828041,282.965009 387.251747,282.388715 387.251747,281.677821 C387.251747,280.966926 387.828041,280.390632 388.538936,280.390632 C389.249831,280.390632 389.826125,280.966926 389.826125,281.677821 C389.826125,282.388715 389.249831,282.965009 388.538936,282.965009 Z M13.6187872,352.029247 C12.9078925,352.029247 12.3315985,351.452953 12.3315985,350.742059 C12.3315985,350.031164 12.9078925,349.45487 13.6187872,349.45487 C14.3296819,349.45487 14.9059759,350.031164 14.9059759,350.742059 C14.9059759,351.452953 14.3296819,352.029247 13.6187872,352.029247 Z M355.327628,165.237531 C354.432171,165.237531 353.70626,164.51162 353.70626,163.616163 C353.70626,162.720706 354.432171,161.994796 355.327628,161.994796 C356.223084,161.994796 356.948995,162.720706 356.948995,163.616163 C356.948995,164.51162 356.223084,165.237531 355.327628,165.237531 Z M444.124505,144.926432 C443.229048,144.926432 442.503137,144.200521 442.503137,143.305064 C442.503137,142.409608 443.229048,141.683697 444.124505,141.683697 C445.019962,141.683697 445.745873,142.409608 445.745873,143.305064 C445.745873,144.200521 445.019962,144.926432 444.124505,144.926432 Z M367.167211,289.553159 C366.271755,289.553159 365.545844,288.827248 365.545844,287.931791 C365.545844,287.036335 366.271755,286.310424 367.167211,286.310424 C368.062668,286.310424 368.788579,287.036335 368.788579,287.931791 C368.788579,288.827248 368.062668,289.553159 367.167211,289.553159 Z M422.418602,392.162884 C421.523145,392.162884 420.797234,391.436973 420.797234,390.541516 C420.797234,389.64606 421.523145,388.920149 422.418602,388.920149 C423.314058,388.920149 424.039969,389.64606 424.039969,390.541516 C424.039969,391.436973 423.314058,392.162884 422.418602,392.162884 Z M-7.75293727,358.617397 C-8.64839385,358.617397 -9.37430484,357.891486 -9.37430484,356.996029 C-9.37430484,356.100573 -8.64839385,355.374662 -7.75293727,355.374662 C-6.85748068,355.374662 -6.1315697,356.100573 -6.1315697,356.996029 C-6.1315697,357.891486 -6.85748068,358.617397 -7.75293727,358.617397 Z M362.626245,185.754558 C362.059088,185.754558 361.599316,185.294786 361.599316,184.727628 C361.599316,184.160471 362.059088,183.700699 362.626245,183.700699 C363.193403,183.700699 363.653175,184.160471 363.653175,184.727628 C363.653175,185.294786 363.193403,185.754558 362.626245,185.754558 Z M451.423123,165.443459 C450.855965,165.443459 450.396193,164.983687 450.396193,164.416529 C450.396193,163.849372 450.855965,163.3896 451.423123,163.3896 C451.99028,163.3896 452.450052,163.849372 452.450052,164.416529 C452.450052,164.983687 451.99028,165.443459 451.423123,165.443459 Z M54.7970706,185.754558 C54.2299132,185.754558 53.7701412,185.294786 53.7701412,184.727628 C53.7701412,184.160471 54.2299132,183.700699 54.7970706,183.700699 C55.364228,183.700699 55.8239999,184.160471 55.8239999,184.727628 C55.8239999,185.294786 55.364228,185.754558 54.7970706,185.754558 Z M356.706453,29.8667063 C356.139296,29.8667063 355.679524,29.4069343 355.679524,28.8397769 C355.679524,28.2726195 356.139296,27.8128476 356.706453,27.8128476 C357.273611,27.8128476 357.733383,28.2726195 357.733383,28.8397769 C357.733383,29.4069343 357.273611,29.8667063 356.706453,29.8667063 Z M429.717219,412.679911 C429.150062,412.679911 428.69029,412.220139 428.69029,411.652981 C428.69029,411.085824 429.150062,410.626052 429.717219,410.626052 C430.284377,410.626052 430.744149,411.085824 430.744149,411.652981 C430.744149,412.220139 430.284377,412.679911 429.717219,412.679911 Z M327.107494,171.94171 C326.540337,171.94171 326.080565,171.481938 326.080565,170.914781 C326.080565,170.347623 326.540337,169.887851 327.107494,169.887851 C327.674652,169.887851 328.134424,170.347623 328.134424,170.914781 C328.134424,171.481938 327.674652,171.94171 327.107494,171.94171 Z M415.904372,151.630611 C415.337214,151.630611 414.877442,151.170839 414.877442,150.603682 C414.877442,150.036524 415.337214,149.576752 415.904372,149.576752 C416.471529,149.576752 416.931301,150.036524 416.931301,150.603682 C416.931301,151.170839 416.471529,151.630611 415.904372,151.630611 Z M321.187703,16.0538587 C320.620545,16.0538587 320.160773,15.5940868 320.160773,15.0269293 C320.160773,14.4597719 320.620545,14 321.187703,14 C321.75486,14 322.214632,14.4597719 322.214632,15.0269293 C322.214632,15.5940868 321.75486,16.0538587 321.187703,16.0538587 Z M413.931108,106.824 C413.36395,106.824 412.904178,106.364228 412.904178,105.797071 C412.904178,105.229913 413.36395,104.770141 413.931108,104.770141 C414.498265,104.770141 414.958037,105.229913 414.958037,105.797071 C414.958037,106.364228 414.498265,106.824 413.931108,106.824 Z M-35.9730707,365.321576 C-36.5402281,365.321576 -37,364.861804 -37,364.294647 C-37,363.727489 -36.5402281,363.267717 -35.9730707,363.267717 C-35.4059132,363.267717 -34.9461413,363.727489 -34.9461413,364.294647 C-34.9461413,364.861804 -35.4059132,365.321576 -35.9730707,365.321576 Z M213.729863,53.7159645 C212.570835,53.7159645 211.631256,52.7763862 211.631256,51.6173577 C211.631256,50.4583292 212.570835,49.5187509 213.729863,49.5187509 C214.888892,49.5187509 215.82847,50.4583292 215.82847,51.6173577 C215.82847,52.7763862 214.888892,53.7159645 213.729863,53.7159645 Z M286.740629,436.529169 C285.5816,436.529169 284.642022,435.589591 284.642022,434.430562 C284.642022,433.271534 285.5816,432.331955 286.740629,432.331955 C287.899658,432.331955 288.839236,433.271534 288.839236,434.430562 C288.839236,435.589591 287.899658,436.529169 286.740629,436.529169 Z M207.276556,303.253454 C206.41218,303.253454 205.711465,302.552739 205.711465,301.688363 C205.711465,300.823987 206.41218,300.123271 207.276556,300.123271 C208.140932,300.123271 208.841648,300.823987 208.841648,301.688363 C208.841648,302.552739 208.140932,303.253454 207.276556,303.253454 Z M262.527946,405.863179 C261.66357,405.863179 260.962855,405.162464 260.962855,404.298088 C260.962855,403.433712 261.66357,402.732996 262.527946,402.732996 C263.392323,402.732996 264.093038,403.433712 264.093038,404.298088 C264.093038,405.162464 263.392323,405.863179 262.527946,405.863179 Z M178.028025,184.727628 C177.163649,184.727628 176.462933,184.026913 176.462933,183.162537 C176.462933,182.298161 177.163649,181.597445 178.028025,181.597445 C178.892401,181.597445 179.593116,182.298161 179.593116,183.162537 C179.593116,184.026913 178.892401,184.727628 178.028025,184.727628 Z M215.169612,38.8360863 C214.305236,38.8360863 213.60452,38.135371 213.60452,37.2709948 C213.60452,36.4066187 214.305236,35.7059033 215.169612,35.7059033 C216.033988,35.7059033 216.734703,36.4066187 216.734703,37.2709948 C216.734703,38.135371 216.033988,38.8360863 215.169612,38.8360863 Z M288.180378,421.649291 C287.316002,421.649291 286.615286,420.948575 286.615286,420.084199 C286.615286,419.219823 287.316002,418.519108 288.180378,418.519108 C289.044754,418.519108 289.745469,419.219823 289.745469,420.084199 C289.745469,420.948575 289.044754,421.649291 288.180378,421.649291 Z M174.263066,272.745225 C173.104876,272.745225 172.165978,271.806326 172.165978,270.648137 C172.165978,269.489947 173.104876,268.551048 174.263066,268.551048 C175.421256,268.551048 176.360154,269.489947 176.360154,270.648137 C176.360154,271.806326 175.421256,272.745225 174.263066,272.745225 Z M145.014535,154.219399 C143.856345,154.219399 142.917446,153.2805 142.917446,152.122311 C142.917446,150.964121 143.856345,150.025222 145.014535,150.025222 C146.172725,150.025222 147.111623,150.964121 147.111623,152.122311 C147.111623,153.2805 146.172725,154.219399 145.014535,154.219399 Z M254.356988,249.419522 C253.646093,249.419522 253.069799,248.843228 253.069799,248.132334 C253.069799,247.421439 253.646093,246.845145 254.356988,246.845145 C255.067883,246.845145 255.644177,247.421439 255.644177,248.132334 C255.644177,248.843228 255.067883,249.419522 254.356988,249.419522 Z M225.108457,130.893696 C224.397562,130.893696 223.821268,130.317402 223.821268,129.606508 C223.821268,128.895613 224.397562,128.319319 225.108457,128.319319 C225.819351,128.319319 226.395645,128.895613 226.395645,129.606508 C226.395645,130.317402 225.819351,130.893696 225.108457,130.893696 Z M223.118944,267.847256 C222.223487,267.847256 221.497576,267.121345 221.497576,266.225888 C221.497576,265.330431 222.223487,264.60452 223.118944,264.60452 C224.0144,264.60452 224.740311,265.330431 224.740311,266.225888 C224.740311,267.121345 224.0144,267.847256 223.118944,267.847256 Z M193.870412,149.321429 C192.974956,149.321429 192.249045,148.595518 192.249045,147.700062 C192.249045,146.804605 192.974956,146.078694 193.870412,146.078694 C194.765869,146.078694 195.49178,146.804605 195.49178,147.700062 C195.49178,148.595518 194.765869,149.321429 193.870412,149.321429 Z M234.364089,20.0003866 C233.796932,20.0003866 233.33716,19.5406146 233.33716,18.9734572 C233.33716,18.4062998 233.796932,17.9465279 234.364089,17.9465279 C234.931247,17.9465279 235.391018,18.4062998 235.391018,18.9734572 C235.391018,19.5406146 234.931247,20.0003866 234.364089,20.0003866 Z M307.374855,402.813591 C306.807698,402.813591 306.347926,402.353819 306.347926,401.786662 C306.347926,401.219504 306.807698,400.759732 307.374855,400.759732 C307.942012,400.759732 308.401784,401.219504 308.401784,401.786662 C308.401784,402.353819 307.942012,402.813591 307.374855,402.813591 Z M222.874933,181.67804 C222.307776,181.67804 221.848004,181.218268 221.848004,180.651111 C221.848004,180.083953 222.307776,179.624181 222.874933,179.624181 C223.442091,179.624181 223.901863,180.083953 223.901863,180.651111 C223.901863,181.218268 223.442091,181.67804 222.874933,181.67804 Z M216.604714,286.391018 C216.037556,286.391018 215.577784,285.931247 215.577784,285.364089 C215.577784,284.796932 216.037556,284.33716 216.604714,284.33716 C217.171871,284.33716 217.631643,284.796932 217.631643,285.364089 C217.631643,285.931247 217.171871,286.391018 216.604714,286.391018 Z M187.356182,167.865192 C186.789025,167.865192 186.329253,167.40542 186.329253,166.838263 C186.329253,166.271106 186.789025,165.811334 187.356182,165.811334 C187.92334,165.811334 188.383112,166.271106 188.383112,166.838263 C188.383112,167.40542 187.92334,167.865192 187.356182,167.865192 Z" id="Combined-Shape" fill="#FFFFFF" opacity="0.5" mask="url(#mask-3)"></path>
                        <rect id="Rectangle-2" fill="#FFFFFF" opacity="0.600000024" mask="url(#mask-3)" x="44" y="71" width="296" height="415"></rect>
                        <rect id="Rectangle-2-Copy-2" fill="#FFFFFF" opacity="0.600000024" mask="url(#mask-3)" x="39" y="67" width="296" height="415"></rect>
                        <rect id="Rectangle-2-Copy" fill="#FFFFFF" mask="url(#mask-3)" x="34" y="63" width="296" height="415"></rect>
                    </g>
                    <mask id="mask-5" fill="white">
                        <use xlink:href="#path-4"></use>
                    </mask>
                    <use id="Mask" fill-opacity="0" fill="#D8D8D8" xlink:href="#path-4"></use>
                    <g id="云" mask="url(#mask-5)">
                        <g transform="translate(-65.000000, 412.000000)">
                            <g id="Oval-Copy-5">
                                <use fill="black" fill-opacity="1" filter="url(#filter-7)" xlink:href="#path-6"></use>
                                <use fill="#FFFFFF" fill-rule="evenodd" xlink:href="#path-6"></use>
                            </g>
                            <g id="Oval-Copy-6">
                                <use fill="black" fill-opacity="1" filter="url(#filter-9)" xlink:href="#path-8"></use>
                                <use fill="#FFFFFF" fill-rule="evenodd" xlink:href="#path-8"></use>
                            </g>
                            <g id="Oval-Copy-4">
                                <use fill="black" fill-opacity="1" filter="url(#filter-11)" xlink:href="#path-10"></use>
                                <use fill="#FFFFFF" fill-rule="evenodd" xlink:href="#path-10"></use>
                            </g>
                            <g id="Oval-Copy-2">
                                <use fill="black" fill-opacity="1" filter="url(#filter-13)" xlink:href="#path-12"></use>
                                <use fill="#FFFFFF" fill-rule="evenodd" xlink:href="#path-12"></use>
                            </g>
                            <g id="Oval-Copy-3">
                                <use fill="black" fill-opacity="1" filter="url(#filter-15)" xlink:href="#path-14"></use>
                                <use fill="#FFFFFF" fill-rule="evenodd" xlink:href="#path-14"></use>
                            </g>
                            <g id="Oval">
                                <use fill="black" fill-opacity="1" filter="url(#filter-17)" xlink:href="#path-16"></use>
                                <use fill="#FFFFFF" fill-rule="evenodd" xlink:href="#path-16"></use>
                            </g>
                            <g id="Oval-Copy">
                                <use fill="black" fill-opacity="1" filter="url(#filter-19)" xlink:href="#path-18"></use>
                                <use fill="#FFFFFF" fill-rule="evenodd" xlink:href="#path-18"></use>
                            </g>
                        </g>
                    </g>
                </g>
            </g>
        </g>
    </g>
</svg>