<?xml version="1.0" encoding="UTF-8" standalone="no"?>
<svg width="375px" height="511px" viewBox="0 0 375 511" version="1.1" xmlns="http://www.w3.org/2000/svg" xmlns:xlink="http://www.w3.org/1999/xlink">
    <!-- Generator: Sketch 45.1 (43504) - http://www.bohemiancoding.com/sketch -->
    <title>lxr_bg_3</title>
    <desc>Created with Sketch.</desc>
    <defs>
        <linearGradient x1="31.822288%" y1="0%" x2="31.822288%" y2="100%" id="linearGradient-1">
            <stop stop-color="#FFCA78" offset="0%"></stop>
            <stop stop-color="#EE7074" offset="100%"></stop>
        </linearGradient>
        <rect id="path-2" x="0" y="0" width="375" height="508"></rect>
        <linearGradient x1="70.294911%" y1="95.7836525%" x2="25.5816677%" y2="10.6662269%" id="linearGradient-4">
            <stop stop-color="#520457" offset="0%"></stop>
            <stop stop-color="#CA4E65" offset="48.3284676%"></stop>
            <stop stop-color="#EE6469" offset="67.6827545%"></stop>
            <stop stop-color="#F8B38E" offset="86.9047752%"></stop>
            <stop stop-color="#FFE1AD" offset="100%"></stop>
        </linearGradient>
        <circle id="path-5" cx="332.5" cy="377.5" r="47.5"></circle>
        <filter x="-34.2%" y="-25.8%" width="168.4%" height="168.4%" filterUnits="objectBoundingBox" id="filter-6">
            <feOffset dx="0" dy="8" in="SourceAlpha" result="shadowOffsetOuter1"></feOffset>
            <feGaussianBlur stdDeviation="9.5" in="shadowOffsetOuter1" result="shadowBlurOuter1"></feGaussianBlur>
            <feColorMatrix values="0 0 0 0 0.823529412   0 0 0 0 0.141176471   0 0 0 0 0.141176471  0 0 0 0.3 0" type="matrix" in="shadowBlurOuter1"></feColorMatrix>
        </filter>
        <filter x="-8.6%" y="-155.4%" width="117.2%" height="410.8%" filterUnits="objectBoundingBox" id="filter-7">
            <feGaussianBlur stdDeviation="1" in="SourceGraphic"></feGaussianBlur>
        </filter>
        <filter x="-5.6%" y="-67.8%" width="111.3%" height="235.7%" filterUnits="objectBoundingBox" id="filter-8">
            <feGaussianBlur stdDeviation="1" in="SourceGraphic"></feGaussianBlur>
        </filter>
        <rect id="path-9" x="0" y="0.182222174" width="375" height="103.817778"></rect>
        <circle id="path-11" cx="196.82959" cy="101.82959" r="55.8295902"></circle>
        <filter x="-10.7%" y="-10.7%" width="121.5%" height="121.5%" filterUnits="objectBoundingBox" id="filter-12">
            <feOffset dx="0" dy="0" in="SourceAlpha" result="shadowOffsetOuter1"></feOffset>
            <feGaussianBlur stdDeviation="4" in="shadowOffsetOuter1" result="shadowBlurOuter1"></feGaussianBlur>
            <feColorMatrix values="0 0 0 0 0.588679766   0 0 0 0 0.902059958   0 0 0 0 1  0 0 0 1 0" type="matrix" in="shadowBlurOuter1"></feColorMatrix>
        </filter>
        <circle id="path-13" cx="62.8295902" cy="56.8295902" r="55.8295902"></circle>
        <filter x="-10.7%" y="-10.7%" width="121.5%" height="121.5%" filterUnits="objectBoundingBox" id="filter-14">
            <feOffset dx="0" dy="0" in="SourceAlpha" result="shadowOffsetOuter1"></feOffset>
            <feGaussianBlur stdDeviation="4" in="shadowOffsetOuter1" result="shadowBlurOuter1"></feGaussianBlur>
            <feColorMatrix values="0 0 0 0 0.588679766   0 0 0 0 0.902059958   0 0 0 0 1  0 0 0 1 0" type="matrix" in="shadowBlurOuter1"></feColorMatrix>
        </filter>
        <circle id="path-15" cx="264.82959" cy="123.82959" r="55.8295902"></circle>
        <filter x="-10.7%" y="-10.7%" width="121.5%" height="121.5%" filterUnits="objectBoundingBox" id="filter-16">
            <feOffset dx="0" dy="0" in="SourceAlpha" result="shadowOffsetOuter1"></feOffset>
            <feGaussianBlur stdDeviation="4" in="shadowOffsetOuter1" result="shadowBlurOuter1"></feGaussianBlur>
            <feColorMatrix values="0 0 0 0 0.588679766   0 0 0 0 0.902059958   0 0 0 0 1  0 0 0 1 0" type="matrix" in="shadowBlurOuter1"></feColorMatrix>
        </filter>
        <circle id="path-17" cx="363.866536" cy="128.866536" r="92.8665365"></circle>
        <filter x="-6.5%" y="-6.5%" width="112.9%" height="112.9%" filterUnits="objectBoundingBox" id="filter-18">
            <feOffset dx="0" dy="0" in="SourceAlpha" result="shadowOffsetOuter1"></feOffset>
            <feGaussianBlur stdDeviation="4" in="shadowOffsetOuter1" result="shadowBlurOuter1"></feGaussianBlur>
            <feColorMatrix values="0 0 0 0 0.588679766   0 0 0 0 0.902059958   0 0 0 0 1  0 0 0 1 0" type="matrix" in="shadowBlurOuter1"></feColorMatrix>
        </filter>
        <circle id="path-19" cx="391.678992" cy="134.324095" r="69.3240945"></circle>
        <filter x="-8.7%" y="-8.7%" width="117.3%" height="117.3%" filterUnits="objectBoundingBox" id="filter-20">
            <feOffset dx="0" dy="0" in="SourceAlpha" result="shadowOffsetOuter1"></feOffset>
            <feGaussianBlur stdDeviation="4" in="shadowOffsetOuter1" result="shadowBlurOuter1"></feGaussianBlur>
            <feColorMatrix values="0 0 0 0 0.588679766   0 0 0 0 0.902059958   0 0 0 0 1  0 0 0 1 0" type="matrix" in="shadowBlurOuter1"></feColorMatrix>
        </filter>
        <circle id="path-21" cx="439.501543" cy="64.5015435" r="64.5015435"></circle>
        <filter x="-9.3%" y="-9.3%" width="118.6%" height="118.6%" filterUnits="objectBoundingBox" id="filter-22">
            <feOffset dx="0" dy="0" in="SourceAlpha" result="shadowOffsetOuter1"></feOffset>
            <feGaussianBlur stdDeviation="4" in="shadowOffsetOuter1" result="shadowBlurOuter1"></feGaussianBlur>
            <feColorMatrix values="0 0 0 0 0.588679766   0 0 0 0 0.902059958   0 0 0 0 1  0 0 0 1 0" type="matrix" in="shadowBlurOuter1"></feColorMatrix>
        </filter>
        <circle id="path-23" cx="105.458252" cy="158.458252" r="104.541748"></circle>
        <filter x="-5.7%" y="-5.7%" width="111.5%" height="111.5%" filterUnits="objectBoundingBox" id="filter-24">
            <feOffset dx="0" dy="0" in="SourceAlpha" result="shadowOffsetOuter1"></feOffset>
            <feGaussianBlur stdDeviation="4" in="shadowOffsetOuter1" result="shadowBlurOuter1"></feGaussianBlur>
            <feColorMatrix values="0 0 0 0 0.588679766   0 0 0 0 0.902059958   0 0 0 0 1  0 0 0 1 0" type="matrix" in="shadowBlurOuter1"></feColorMatrix>
        </filter>
        <rect id="path-25" x="8" y="8" width="323" height="176"></rect>
        <rect id="path-26" x="24" y="23" width="22" height="22"></rect>
        <rect id="path-27" x="51" y="23" width="22" height="22"></rect>
        <rect id="path-28" x="78" y="23" width="22" height="22"></rect>
        <rect id="path-29" x="105" y="23" width="22" height="22"></rect>
        <rect id="path-30" x="8" y="8" width="323" height="44"></rect>
        <rect id="path-31" x="24" y="19" width="22" height="22"></rect>
        <rect id="path-32" x="51" y="19" width="22" height="22"></rect>
        <polygon id="path-33" points="17.5203494 17.362165 17.5203494 0.018993836 0.177450122 0.018993836 0.177450122 17.362165 17.5203494 17.362165"></polygon>
    </defs>
    <g id="乐新人-1.2" stroke="none" stroke-width="1" fill="none" fill-rule="evenodd">
        <g id="1-3-收集页面" transform="translate(0.000000, -66.000000)">
            <g id="lxr_bg_3" transform="translate(0.000000, 66.000000)">
                <g id="云">
                    <mask id="mask-3" fill="white">
                        <use xlink:href="#path-2"></use>
                    </mask>
                    <use id="Mask-Copy" fill="url(#linearGradient-1)" xlink:href="#path-2"></use>
                    <g id="繁星" mask="url(#mask-3)">
                        <g transform="translate(-37.000000, 14.000000)">
                            <path d="M140.926262,295.665371 C139.381087,295.665371 138.128476,294.41276 138.128476,292.867585 C138.128476,291.322411 139.381087,290.069799 140.926262,290.069799 C142.471436,290.069799 143.724048,291.322411 143.724048,292.867585 C143.724048,294.41276 142.471436,295.665371 140.926262,295.665371 Z M120.494443,367.277779 C119.335415,367.277779 118.395836,366.3382 118.395836,365.179172 C118.395836,364.020143 119.335415,363.080565 120.494443,363.080565 C121.653472,363.080565 122.59305,364.020143 122.59305,365.179172 C122.59305,366.3382 121.653472,367.277779 120.494443,367.277779 Z M67.2163168,288.347221 C66.0572883,288.347221 65.11771,287.407643 65.11771,286.248614 C65.11771,285.089586 66.0572883,284.150007 67.2163168,284.150007 C68.3753453,284.150007 69.3149236,285.089586 69.3149236,286.248614 C69.3149236,287.407643 68.3753453,288.347221 67.2163168,288.347221 Z M130.360763,452.128128 C129.201734,452.128128 128.262156,451.18855 128.262156,450.029521 C128.262156,448.870493 129.201734,447.930914 130.360763,447.930914 C131.519791,447.930914 132.45937,448.870493 132.45937,450.029521 C132.45937,451.18855 131.519791,452.128128 130.360763,452.128128 Z M106.14808,421.462138 C105.283704,421.462138 104.582989,420.761423 104.582989,419.897047 C104.582989,419.032671 105.283704,418.331955 106.14808,418.331955 C107.012456,418.331955 107.713172,419.032671 107.713172,419.897047 C107.713172,420.761423 107.012456,421.462138 106.14808,421.462138 Z M52.8699539,342.531581 C52.0055778,342.531581 51.3048624,341.830865 51.3048624,340.966489 C51.3048624,340.102113 52.0055778,339.401398 52.8699539,339.401398 C53.7343301,339.401398 54.4350454,340.102113 54.4350454,340.966489 C54.4350454,341.830865 53.7343301,342.531581 52.8699539,342.531581 Z M121.934192,352.3979 C121.069816,352.3979 120.3691,351.697185 120.3691,350.832809 C120.3691,349.968433 121.069816,349.267717 121.934192,349.267717 C122.798568,349.267717 123.499283,349.968433 123.499283,350.832809 C123.499283,351.697185 122.798568,352.3979 121.934192,352.3979 Z M68.6560654,273.467343 C67.7916893,273.467343 67.090974,272.766627 67.090974,271.902251 C67.090974,271.037875 67.7916893,270.33716 68.6560654,270.33716 C69.5204416,270.33716 70.2211569,271.037875 70.2211569,271.902251 C70.2211569,272.766627 69.5204416,273.467343 68.6560654,273.467343 Z M131.800512,437.24825 C130.936135,437.24825 130.23542,436.547534 130.23542,435.683158 C130.23542,434.818782 130.936135,434.118067 131.800512,434.118067 C132.664888,434.118067 133.365603,434.818782 133.365603,435.683158 C133.365603,436.547534 132.664888,437.24825 131.800512,437.24825 Z M39.5891032,371.22127 C38.4309133,371.22127 37.4920149,370.282371 37.4920149,369.124181 C37.4920149,367.965991 38.4309133,367.027093 39.5891032,367.027093 C40.7472931,367.027093 41.6861915,367.965991 41.6861915,369.124181 C41.6861915,370.282371 40.7472931,371.22127 39.5891032,371.22127 Z M155.201776,306.457024 C154.490881,306.457024 153.914587,305.88073 153.914587,305.169835 C153.914587,304.458941 154.490881,303.882647 155.201776,303.882647 C155.912671,303.882647 156.488965,304.458941 156.488965,305.169835 C156.488965,305.88073 155.912671,306.457024 155.201776,306.457024 Z M133.830052,313.045174 C132.934595,313.045174 132.208684,312.319263 132.208684,311.423806 C132.208684,310.52835 132.934595,309.802439 133.830052,309.802439 C134.725508,309.802439 135.451419,310.52835 135.451419,311.423806 C135.451419,312.319263 134.725508,313.045174 133.830052,313.045174 Z M141.128669,333.562201 C140.561512,333.562201 140.10174,333.102429 140.10174,332.535271 C140.10174,331.968114 140.561512,331.508342 141.128669,331.508342 C141.695827,331.508342 142.155598,331.968114 142.155598,332.535271 C142.155598,333.102429 141.695827,333.562201 141.128669,333.562201 Z M87.8505427,254.631643 C87.2833853,254.631643 86.8236134,254.171871 86.8236134,253.604714 C86.8236134,253.037556 87.2833853,252.577784 87.8505427,252.577784 C88.4177001,252.577784 88.8774721,253.037556 88.8774721,253.604714 C88.8774721,254.171871 88.4177001,254.631643 87.8505427,254.631643 Z M150.994989,418.41255 C150.427831,418.41255 149.968059,417.952778 149.968059,417.385621 C149.968059,416.818463 150.427831,416.358691 150.994989,416.358691 C151.562146,416.358691 152.021918,416.818463 152.021918,417.385621 C152.021918,417.952778 151.562146,418.41255 150.994989,418.41255 Z M97.7168624,339.481992 C97.149705,339.481992 96.6899331,339.022221 96.6899331,338.455063 C96.6899331,337.887906 97.149705,337.428134 97.7168624,337.428134 C98.2840198,337.428134 98.7437918,337.887906 98.7437918,338.455063 C98.7437918,339.022221 98.2840198,339.481992 97.7168624,339.481992 Z M38.5189442,388.813591 C37.9517868,388.813591 37.4920149,388.353819 37.4920149,387.786662 C37.4920149,387.219504 37.9517868,386.759732 38.5189442,386.759732 C39.0861016,386.759732 39.5458736,387.219504 39.5458736,387.786662 C39.5458736,388.353819 39.0861016,388.813591 38.5189442,388.813591 Z M367.851615,143.724048 C366.30644,143.724048 365.053829,142.471436 365.053829,140.926262 C365.053829,139.381087 366.30644,138.128476 367.851615,138.128476 C369.39679,138.128476 370.649401,139.381087 370.649401,140.926262 C370.649401,142.471436 369.39679,143.724048 367.851615,143.724048 Z M379.691199,268.039676 C378.146024,268.039676 376.893413,266.787065 376.893413,265.24189 C376.893413,263.696716 378.146024,262.444104 379.691199,262.444104 C381.236373,262.444104 382.488985,263.696716 382.488985,265.24189 C382.488985,266.787065 381.236373,268.039676 379.691199,268.039676 Z M319.794101,189.684024 C318.635073,189.684024 317.695494,188.744446 317.695494,187.585417 C317.695494,186.426389 318.635073,185.48681 319.794101,185.48681 C320.95313,185.48681 321.892708,186.426389 321.892708,187.585417 C321.892708,188.744446 320.95313,189.684024 319.794101,189.684024 Z M290.54557,71.1581978 C289.386541,71.1581978 288.446963,70.2186196 288.446963,69.0595911 C288.446963,67.9005625 289.386541,66.9609843 290.54557,66.9609843 C291.704598,66.9609843 292.644177,67.9005625 292.644177,69.0595911 C292.644177,70.2186196 291.704598,71.1581978 290.54557,71.1581978 Z M360.699129,186.643729 C359.834752,186.643729 359.134037,185.943014 359.134037,185.078638 C359.134037,184.214262 359.834752,183.513546 360.699129,183.513546 C361.563505,183.513546 362.26422,184.214262 362.26422,185.078638 C362.26422,185.943014 361.563505,186.643729 360.699129,186.643729 Z M52.8699539,186.643729 C52.0055778,186.643729 51.3048624,185.943014 51.3048624,185.078638 C51.3048624,184.214262 52.0055778,183.513546 52.8699539,183.513546 C53.7343301,183.513546 54.4350454,184.214262 54.4350454,185.078638 C54.4350454,185.943014 53.7343301,186.643729 52.8699539,186.643729 Z M354.779337,30.7558781 C353.914961,30.7558781 353.214245,30.0551628 353.214245,29.1907866 C353.214245,28.3264105 353.914961,27.6256952 354.779337,27.6256952 C355.643713,27.6256952 356.344428,28.3264105 356.344428,29.1907866 C356.344428,30.0551628 355.643713,30.7558781 354.779337,30.7558781 Z M382.405032,206.376369 C381.540656,206.376369 380.83994,205.675653 380.83994,204.811277 C380.83994,203.946901 381.540656,203.246186 382.405032,203.246186 C383.269408,203.246186 383.970123,203.946901 383.970123,204.811277 C383.970123,205.675653 383.269408,206.376369 382.405032,206.376369 Z M74.5758573,206.376369 C73.7114811,206.376369 73.0107658,205.675653 73.0107658,204.811277 C73.0107658,203.946901 73.7114811,203.246186 74.5758573,203.246186 C75.4402334,203.246186 76.1409488,203.946901 76.1409488,204.811277 C76.1409488,205.675653 75.4402334,206.376369 74.5758573,206.376369 Z M376.48524,50.4885175 C375.620864,50.4885175 374.920149,49.7878022 374.920149,48.923426 C374.920149,48.0590499 375.620864,47.3583346 376.48524,47.3583346 C377.349616,47.3583346 378.050332,48.0590499 378.050332,48.923426 C378.050332,49.7878022 377.349616,50.4885175 376.48524,50.4885175 Z M343.47175,134.429597 C342.31356,134.429597 341.374662,133.490698 341.374662,132.332508 C341.374662,131.174318 342.31356,130.23542 343.47175,130.23542 C344.62994,130.23542 345.568838,131.174318 345.568838,132.332508 C345.568838,133.490698 344.62994,134.429597 343.47175,134.429597 Z M413.699352,144.649381 C412.988457,144.649381 412.412163,144.073087 412.412163,143.362192 C412.412163,142.651298 412.988457,142.075004 413.699352,142.075004 C414.410247,142.075004 414.986541,142.651298 414.986541,143.362192 C414.986541,144.073087 414.410247,144.649381 413.699352,144.649381 Z M50.6187872,338.029247 C49.9078925,338.029247 49.3315985,337.452953 49.3315985,336.742059 C49.3315985,336.031164 49.9078925,335.45487 50.6187872,335.45487 C51.3296819,335.45487 51.9059759,336.031164 51.9059759,336.742059 C51.9059759,337.452953 51.3296819,338.029247 50.6187872,338.029247 Z M392.327628,151.237531 C391.432171,151.237531 390.70626,150.51162 390.70626,149.616163 C390.70626,148.720706 391.432171,147.994796 392.327628,147.994796 C393.223084,147.994796 393.948995,148.720706 393.948995,149.616163 C393.948995,150.51162 393.223084,151.237531 392.327628,151.237531 Z M404.167211,275.553159 C403.271755,275.553159 402.545844,274.827248 402.545844,273.931791 C402.545844,273.036335 403.271755,272.310424 404.167211,272.310424 C405.062668,272.310424 405.788579,273.036335 405.788579,273.931791 C405.788579,274.827248 405.062668,275.553159 404.167211,275.553159 Z M399.626245,171.754558 C399.059088,171.754558 398.599316,171.294786 398.599316,170.727628 C398.599316,170.160471 399.059088,169.700699 399.626245,169.700699 C400.193403,169.700699 400.653175,170.160471 400.653175,170.727628 C400.653175,171.294786 400.193403,171.754558 399.626245,171.754558 Z M91.7970706,171.754558 C91.2299132,171.754558 90.7701412,171.294786 90.7701412,170.727628 C90.7701412,170.160471 91.2299132,169.700699 91.7970706,169.700699 C92.364228,169.700699 92.8239999,170.160471 92.8239999,170.727628 C92.8239999,171.294786 92.364228,171.754558 91.7970706,171.754558 Z M393.706453,15.8667063 C393.139296,15.8667063 392.679524,15.4069343 392.679524,14.8397769 C392.679524,14.2726195 393.139296,13.8128476 393.706453,13.8128476 C394.273611,13.8128476 394.733383,14.2726195 394.733383,14.8397769 C394.733383,15.4069343 394.273611,15.8667063 393.706453,15.8667063 Z M364.107494,157.94171 C363.540337,157.94171 363.080565,157.481938 363.080565,156.914781 C363.080565,156.347623 363.540337,155.887851 364.107494,155.887851 C364.674652,155.887851 365.134424,156.347623 365.134424,156.914781 C365.134424,157.481938 364.674652,157.94171 364.107494,157.94171 Z M358.187703,2.0538587 C357.620545,2.0538587 357.160773,1.59408677 357.160773,1.02692935 C357.160773,0.45977193 357.620545,0 358.187703,0 C358.75486,0 359.214632,0.45977193 359.214632,1.02692935 C359.214632,1.59408677 358.75486,2.0538587 358.187703,2.0538587 Z M250.729863,39.7159645 C249.570835,39.7159645 248.631256,38.7763862 248.631256,37.6173577 C248.631256,36.4583292 249.570835,35.5187509 250.729863,35.5187509 C251.888892,35.5187509 252.82847,36.4583292 252.82847,37.6173577 C252.82847,38.7763862 251.888892,39.7159645 250.729863,39.7159645 Z M323.740629,422.529169 C322.5816,422.529169 321.642022,421.589591 321.642022,420.430562 C321.642022,419.271534 322.5816,418.331955 323.740629,418.331955 C324.899658,418.331955 325.839236,419.271534 325.839236,420.430562 C325.839236,421.589591 324.899658,422.529169 323.740629,422.529169 Z M244.276556,289.253454 C243.41218,289.253454 242.711465,288.552739 242.711465,287.688363 C242.711465,286.823987 243.41218,286.123271 244.276556,286.123271 C245.140932,286.123271 245.841648,286.823987 245.841648,287.688363 C245.841648,288.552739 245.140932,289.253454 244.276556,289.253454 Z M299.527946,391.863179 C298.66357,391.863179 297.962855,391.162464 297.962855,390.298088 C297.962855,389.433712 298.66357,388.732996 299.527946,388.732996 C300.392323,388.732996 301.093038,389.433712 301.093038,390.298088 C301.093038,391.162464 300.392323,391.863179 299.527946,391.863179 Z M215.028025,170.727628 C214.163649,170.727628 213.462933,170.026913 213.462933,169.162537 C213.462933,168.298161 214.163649,167.597445 215.028025,167.597445 C215.892401,167.597445 216.593116,168.298161 216.593116,169.162537 C216.593116,170.026913 215.892401,170.727628 215.028025,170.727628 Z M252.169612,24.8360863 C251.305236,24.8360863 250.60452,24.135371 250.60452,23.2709948 C250.60452,22.4066187 251.305236,21.7059033 252.169612,21.7059033 C253.033988,21.7059033 253.734703,22.4066187 253.734703,23.2709948 C253.734703,24.135371 253.033988,24.8360863 252.169612,24.8360863 Z M325.180378,407.649291 C324.316002,407.649291 323.615286,406.948575 323.615286,406.084199 C323.615286,405.219823 324.316002,404.519108 325.180378,404.519108 C326.044754,404.519108 326.745469,405.219823 326.745469,406.084199 C326.745469,406.948575 326.044754,407.649291 325.180378,407.649291 Z M211.263066,258.745225 C210.104876,258.745225 209.165978,257.806326 209.165978,256.648137 C209.165978,255.489947 210.104876,254.551048 211.263066,254.551048 C212.421256,254.551048 213.360154,255.489947 213.360154,256.648137 C213.360154,257.806326 212.421256,258.745225 211.263066,258.745225 Z M182.014535,140.219399 C180.856345,140.219399 179.917446,139.2805 179.917446,138.122311 C179.917446,136.964121 180.856345,136.025222 182.014535,136.025222 C183.172725,136.025222 184.111623,136.964121 184.111623,138.122311 C184.111623,139.2805 183.172725,140.219399 182.014535,140.219399 Z M291.356988,235.419522 C290.646093,235.419522 290.069799,234.843228 290.069799,234.132334 C290.069799,233.421439 290.646093,232.845145 291.356988,232.845145 C292.067883,232.845145 292.644177,233.421439 292.644177,234.132334 C292.644177,234.843228 292.067883,235.419522 291.356988,235.419522 Z M262.108457,116.893696 C261.397562,116.893696 260.821268,116.317402 260.821268,115.606508 C260.821268,114.895613 261.397562,114.319319 262.108457,114.319319 C262.819351,114.319319 263.395645,114.895613 263.395645,115.606508 C263.395645,116.317402 262.819351,116.893696 262.108457,116.893696 Z M260.118944,253.847256 C259.223487,253.847256 258.497576,253.121345 258.497576,252.225888 C258.497576,251.330431 259.223487,250.60452 260.118944,250.60452 C261.0144,250.60452 261.740311,251.330431 261.740311,252.225888 C261.740311,253.121345 261.0144,253.847256 260.118944,253.847256 Z M230.870412,135.321429 C229.974956,135.321429 229.249045,134.595518 229.249045,133.700062 C229.249045,132.804605 229.974956,132.078694 230.870412,132.078694 C231.765869,132.078694 232.49178,132.804605 232.49178,133.700062 C232.49178,134.595518 231.765869,135.321429 230.870412,135.321429 Z M271.364089,6.00038658 C270.796932,6.00038658 270.33716,5.54061465 270.33716,4.97345723 C270.33716,4.40629981 270.796932,3.94652788 271.364089,3.94652788 C271.931247,3.94652788 272.391018,4.40629981 272.391018,4.97345723 C272.391018,5.54061465 271.931247,6.00038658 271.364089,6.00038658 Z M344.374855,388.813591 C343.807698,388.813591 343.347926,388.353819 343.347926,387.786662 C343.347926,387.219504 343.807698,386.759732 344.374855,386.759732 C344.942012,386.759732 345.401784,387.219504 345.401784,387.786662 C345.401784,388.353819 344.942012,388.813591 344.374855,388.813591 Z M259.874933,167.67804 C259.307776,167.67804 258.848004,167.218268 258.848004,166.651111 C258.848004,166.083953 259.307776,165.624181 259.874933,165.624181 C260.442091,165.624181 260.901863,166.083953 260.901863,166.651111 C260.901863,167.218268 260.442091,167.67804 259.874933,167.67804 Z M253.604714,272.391018 C253.037556,272.391018 252.577784,271.931247 252.577784,271.364089 C252.577784,270.796932 253.037556,270.33716 253.604714,270.33716 C254.171871,270.33716 254.631643,270.796932 254.631643,271.364089 C254.631643,271.931247 254.171871,272.391018 253.604714,272.391018 Z M224.356182,153.865192 C223.789025,153.865192 223.329253,153.40542 223.329253,152.838263 C223.329253,152.271106 223.789025,151.811334 224.356182,151.811334 C224.92334,151.811334 225.383112,152.271106 225.383112,152.838263 C225.383112,153.40542 224.92334,153.865192 224.356182,153.865192 Z" id="Combined-Shape" fill="#FFFFFF" fill-rule="evenodd" opacity="0.5"></path>
                            <g id="Oval-19-Copy" fill="none" opacity="0.449999988">
                                <use fill="black" fill-opacity="1" filter="url(#filter-6)" xlink:href="#path-5"></use>
                                <use fill="url(#linearGradient-4)" fill-rule="evenodd" xlink:href="#path-5"></use>
                            </g>
                        </g>
                    </g>
                    <path d="M280.361341,76.2255665 C281.516846,76.1971572 313.242613,76.1472187 313.242613,75.6645632 C313.242613,75.1819077 281.412722,74.2980178 280.361341,74.2980178 C279.30996,74.2980178 278.457648,74.4335332 278.457648,75.2617922 C278.457648,76.0900512 279.205836,76.2539759 280.361341,76.2255665 Z" id="Oval-14-Copy" fill="#FFFFFF" opacity="0.400000006" filter="url(#filter-7)" mask="url(#mask-3)" transform="translate(295.850130, 75.263282) rotate(-36.000000) translate(-295.850130, -75.263282) "></path>
                    <path d="M258.78888,124.899624 C260.553627,124.856236 276.846585,124.125414 307.667753,122.70716 C276.687561,121.22495 260.394603,120.483845 258.78888,120.483845 C256.380295,120.483845 254.427751,120.794294 254.427751,122.691734 C254.427751,124.589175 256.141759,124.964706 258.78888,124.899624 Z" id="Oval-14" fill="#FFFFFF" opacity="0.699999988" filter="url(#filter-8)" mask="url(#mask-3)" transform="translate(281.047752, 122.695147) rotate(-36.000000) translate(-281.047752, -122.695147) "></path>
                </g>
                <g id="lxr_yun" transform="translate(0.000000, 407.000000)">
                    <mask id="mask-10" fill="white">
                        <use xlink:href="#path-9"></use>
                    </mask>
                    <use id="Mask" fill-opacity="0" fill="#D8D8D8" xlink:href="#path-9"></use>
                    <g id="云" mask="url(#mask-10)">
                        <g transform="translate(-65.000000, 5.000000)">
                            <g id="Oval-Copy-5">
                                <use fill="black" fill-opacity="1" filter="url(#filter-12)" xlink:href="#path-11"></use>
                                <use fill="#FFFFFF" fill-rule="evenodd" xlink:href="#path-11"></use>
                            </g>
                            <g id="Oval-Copy-6">
                                <use fill="black" fill-opacity="1" filter="url(#filter-14)" xlink:href="#path-13"></use>
                                <use fill="#FFFFFF" fill-rule="evenodd" xlink:href="#path-13"></use>
                            </g>
                            <g id="Oval-Copy-4">
                                <use fill="black" fill-opacity="1" filter="url(#filter-16)" xlink:href="#path-15"></use>
                                <use fill="#FFFFFF" fill-rule="evenodd" xlink:href="#path-15"></use>
                            </g>
                            <g id="Oval-Copy-2">
                                <use fill="black" fill-opacity="1" filter="url(#filter-18)" xlink:href="#path-17"></use>
                                <use fill="#FFFFFF" fill-rule="evenodd" xlink:href="#path-17"></use>
                            </g>
                            <g id="Oval-Copy-3">
                                <use fill="black" fill-opacity="1" filter="url(#filter-20)" xlink:href="#path-19"></use>
                                <use fill="#FFFFFF" fill-rule="evenodd" xlink:href="#path-19"></use>
                            </g>
                            <g id="Oval">
                                <use fill="black" fill-opacity="1" filter="url(#filter-22)" xlink:href="#path-21"></use>
                                <use fill="#FFFFFF" fill-rule="evenodd" xlink:href="#path-21"></use>
                            </g>
                            <g id="Oval-Copy">
                                <use fill="black" fill-opacity="1" filter="url(#filter-24)" xlink:href="#path-23"></use>
                                <use fill="#FFFFFF" fill-rule="evenodd" xlink:href="#path-23"></use>
                            </g>
                        </g>
                    </g>
                </g>
                <g id="自我描述" transform="translate(18.000000, 193.000000)">
                    <rect id="Rectangle-2" fill="#FFFFFF" x="0" y="0" width="339" height="192"></rect>
                    <g id="Rectangle-2-Copy" opacity="0.800000012">
                        <use fill="#FFFFFF" fill-rule="evenodd" xlink:href="#path-25"></use>
                        <rect stroke="#FF5E3B" stroke-width="1" x="8.5" y="8.5" width="322" height="175"></rect>
                    </g>
                    <g id="Rectangle-11" opacity="0.800000012">
                        <use fill="#FFFFFF" fill-rule="evenodd" xlink:href="#path-26"></use>
                        <rect stroke="#FF5E3B" stroke-width="2" x="25" y="24" width="20" height="20"></rect>
                    </g>
                    <g id="Rectangle-11-Copy" opacity="0.800000012">
                        <use fill="#FFFFFF" fill-rule="evenodd" xlink:href="#path-27"></use>
                        <rect stroke="#FF5E3B" stroke-width="2" x="52" y="24" width="20" height="20"></rect>
                    </g>
                    <g id="Rectangle-11-Copy-2" opacity="0.800000012">
                        <use fill="#FFFFFF" fill-rule="evenodd" xlink:href="#path-28"></use>
                        <rect stroke="#FF5E3B" stroke-width="2" x="79" y="24" width="20" height="20"></rect>
                    </g>
                    <g id="Rectangle-11-Copy-3" opacity="0.800000012">
                        <use fill="#FFFFFF" fill-rule="evenodd" xlink:href="#path-29"></use>
                        <rect stroke="#FF5E3B" stroke-width="2" x="106" y="24" width="20" height="20"></rect>
                    </g>
                    <text id="个" font-family=".PingFang-SC-Medium, PingFang SC" font-size="14" font-weight="bold" fill="#FF5E3B">
                        <tspan x="28" y="39">个</tspan>
                    </text>
                    <text id="人" font-family=".PingFang-SC-Medium, PingFang SC" font-size="14" font-weight="bold" fill="#FF5E3B">
                        <tspan x="55" y="39">人</tspan>
                    </text>
                    <text id="描" font-family=".PingFang-SC-Medium, PingFang SC" font-size="14" font-weight="bold" fill="#FF5E3B">
                        <tspan x="82" y="39">描</tspan>
                    </text>
                    <text id="述" font-family=".PingFang-SC-Medium, PingFang SC" font-size="14" font-weight="bold" fill="#FF5E3B">
                        <tspan x="109" y="39">述</tspan>
                    </text>
                    <path d="M24,84 L315,84 L315,85 L24,85 L24,84 Z M24,108 L315,108 L315,109 L24,109 L24,108 Z M24,132 L315,132 L315,133 L24,133 L24,132 Z M24,156 L315,156 L315,157 L24,157 L24,156 Z" id="Combined-Shape" fill="#FF5E3B" opacity="0.5"></path>
                </g>
                <g id="家乡" transform="translate(18.000000, 113.000000)">
                    <rect id="Rectangle-4" fill="#FFFFFF" x="0" y="0" width="339" height="60"></rect>
                    <g id="Rectangle-4-Copy" opacity="0.800000012">
                        <use fill="#FFFFFF" fill-rule="evenodd" xlink:href="#path-30"></use>
                        <rect stroke="#FF5E3B" stroke-width="1" x="8.5" y="8.5" width="322" height="43"></rect>
                    </g>
                    <g id="Rectangle-11-Copy-5" opacity="0.800000012">
                        <use fill="#FFFFFF" fill-rule="evenodd" xlink:href="#path-31"></use>
                        <rect stroke="#FF5E3B" stroke-width="2" x="25" y="20" width="20" height="20"></rect>
                    </g>
                    <g id="Rectangle-11-Copy-4" opacity="0.800000012">
                        <use fill="#FFFFFF" fill-rule="evenodd" xlink:href="#path-32"></use>
                        <rect stroke="#FF5E3B" stroke-width="2" x="52" y="20" width="20" height="20"></rect>
                    </g>
                    <text id="家" font-family=".PingFang-SC-Medium, PingFang SC" font-size="14" font-weight="bold" fill="#FF5E3B">
                        <tspan x="28" y="35">家</tspan>
                    </text>
                    <text id="乡" font-family=".PingFang-SC-Medium, PingFang SC" font-size="14" font-weight="bold" fill="#FF5E3B">
                        <tspan x="55" y="35">乡</tspan>
                    </text>
                </g>
                <g id="自行车" transform="translate(18.000000, 86.000000)">
                    <polygon id="Fill-1" fill="#457368" points="9.4665655 14.7234652 9.4665655 21.8448986 11.9020857 15.1531275 12.1606361 15.2468416 9.72469759 21.9394494 14.3026723 16.4839512 14.5139473 16.660711 9.93555427 22.117046 16.1039489 18.5554925 16.2407547 18.7939614 10.0731968 22.3546781 17.0873192 21.1177777 17.1348038 21.3895067 10.1223549 22.6259887 17.1348038 23.8622615 17.0873192 24.1339905 10.0731968 22.8972994 16.2407547 26.4582252 16.1039489 26.6962757 9.93555427 23.1349315 14.5139473 28.5912665 14.3026723 28.7682355 9.72469759 23.312528 12.1606361 30.0051358 11.9020857 30.0988499 9.4665655 23.407288 9.4665655 30.5285122 9.19065284 30.5285122 9.19065284 23.407288 6.75513266 30.0988499 6.49637302 30.0051358 8.93231157 23.312528 4.35454608 28.7682355 4.14327103 28.5912665 8.72166407 23.1349315 2.55326941 26.6962757 2.4162544 26.4582252 8.58402151 22.8972994 1.56989911 24.1339905 1.52220534 23.8622615 8.53465427 22.6259887 1.52220534 21.3895067 1.56989911 21.1177777 8.58402151 22.3546781 2.4162544 18.7939614 2.55326941 18.5554925 8.72166407 22.117046 4.14327103 16.660711 4.35454608 16.4839512 8.93231157 21.9394494 6.49637302 15.2468416 6.75513266 15.1531275 9.19065284 21.8448986 9.19065284 14.7234652"></polygon>
                    <polygon id="Fill-2" fill="#457368" points="38.4817418 14.7234652 38.4817418 21.8448986 40.9172619 15.1531275 41.1758124 15.2468416 38.7398739 21.9394494 43.3176393 16.4839512 43.5289144 16.660711 38.9507305 22.117046 45.1191252 18.5554925 45.255931 18.7939614 39.0883731 22.3546781 46.1024955 21.1177777 46.1499801 21.3895067 39.1375311 22.6259887 46.1499801 23.8622615 46.1024955 24.1339905 39.0883731 22.8972994 45.255931 26.4582252 45.1191252 26.6962757 38.9507305 23.1349315 43.5289144 28.5912665 43.3176393 28.7682355 38.7398739 23.312528 41.1758124 30.0051358 40.9172619 30.0988499 38.4817418 23.407288 38.4817418 30.5285122 38.2058291 30.5285122 38.2058291 23.407288 35.7703089 30.0988499 35.5115493 30.0051358 37.9474878 23.312528 33.3697223 28.7682355 33.1584473 28.5912665 37.7368403 23.1349315 31.5684457 26.6962757 31.4314307 26.4582252 37.5991978 22.8972994 30.5850754 24.1339905 30.5373816 23.8622615 37.5498305 22.6259887 30.5373816 21.3895067 30.5850754 21.1177777 37.5991978 22.3546781 31.4314307 18.7939614 31.5684457 18.5554925 37.7368403 22.117046 33.1584473 16.660711 33.3697223 16.4839512 37.9474878 21.9394494 35.5115493 15.2468416 35.7703089 15.1531275 38.2058291 21.8448986 38.2058291 14.7234652"></polygon>
                    <g id="Group-51" transform="translate(0.000000, 0.129275)">
                        <path d="M21.360493,23.0998305 C20.9297848,22.5961174 20.5959284,21.7148285 20.79528,20.6940144 C20.9458919,19.9233834 21.4019113,19.0728445 22.3497205,18.2402953 L22.0514252,17.9014185 C21.0199428,18.8076001 20.5208316,19.7482971 20.3528575,20.6078309 C20.1233835,21.7815579 20.5151837,22.8040455 21.0186877,23.3928962 L21.360493,23.0998305 Z" id="Fill-3" fill="#457368"></path>
                        <path d="M21.1235303,18.2069096 L21.1235303,18.2069096 C21.1235303,18.3750929 21.2609637,18.5123171 21.4289378,18.5123171 L23.9947791,18.5125263 C24.1627532,18.5125263 24.3001866,18.3750929 24.3001866,18.2071188 L24.3001866,18.2069096 C24.3001866,18.0389355 24.1627532,17.9017113 23.9947791,17.9017113 L21.4289378,17.9015021 C21.2609637,17.9015021 21.1235303,18.0389355 21.1235303,18.2069096" id="Fill-5" fill="#457368"></path>
                        <path d="M9.32856733,31.1682991 C4.53931761,31.1682991 0.656877133,27.2858586 0.656877133,22.4968181 C0.656877133,17.7075684 4.53931761,13.8251279 9.32856733,13.8251279 L9.32856733,14.7886258 C5.07147971,14.7886258 1.62058421,18.2397305 1.62058421,22.4968181 C1.62058421,26.7536965 5.07147971,30.2050104 9.32856733,30.2050104 L9.32856733,31.1682991 Z M9.32856733,13.8251279 C14.117817,13.8251279 18.0002575,17.7075684 18.0002575,22.4968181 C18.0002575,27.2858586 14.117817,31.1682991 9.32856733,31.1682991 L9.32856733,30.2050104 C13.5856549,30.2050104 17.0367596,26.7536965 17.0367596,22.4968181 C17.0367596,18.2397305 13.5856549,14.7886258 9.32856733,14.7886258 L9.32856733,13.8251279 Z" id="Fill-7" fill="#457368"></path>
                        <path d="M0,18.8242302 C0.743646331,16.9373976 2.0426741,15.3306613 3.6952215,14.2058832 C5.3017486,13.1122733 7.24129537,12.4732186 9.32852549,12.4732186 C11.7818262,12.4732186 14.0305458,13.3563901 15.7742971,14.8225553 C17.5454514,16.3115214 18.794066,18.4018893 19.2049018,20.7784198 C18.1667255,21.1296384 18.4152352,18.1487776 15.2963134,15.3911153 C13.7188628,13.9960724 11.6025562,13.2193751 9.32852549,13.2193751 C7.39462667,13.2193751 5.57807962,13.7791494 4.11484303,14.8206727 C1.98138342,16.3401795 0.436565371,19.0662552 0,18.8242302" id="Fill-9" fill="#FF5E3B"></path>
                        <g id="Group-13" transform="translate(29.494833, 13.806092)">
                            <mask id="mask-34" fill="white">
                                <use xlink:href="#path-33"></use>
                            </mask>
                            <g id="Clip-12"></g>
                            <path d="M8.84893114,0.018993836 L8.84893114,0.018993836 L8.84893114,0.982491726 C4.59184352,0.982491726 1.14073883,4.43359642 1.14073883,8.69068403 C1.14073883,12.9477717 4.59184352,16.3988763 8.84893114,16.3988763 L8.84893114,17.362165 C4.05968142,17.362165 0.177450122,13.4799338 0.177450122,8.69068403 C0.177450122,3.9016435 4.05968142,0.018993836 8.84893114,0.018993836 L8.84893114,0.018993836 Z M8.84893114,0.018993836 C13.6381809,0.0192030192 17.5204122,3.9016435 17.5204122,8.69068403 C17.5204122,13.4799338 13.6381809,17.362165 8.84893114,17.362165 L8.84893114,16.3988763 C13.1060188,16.3988763 16.5571234,12.9477717 16.5571234,8.69068403 C16.5571234,4.43359642 13.1060188,0.982491726 8.84893114,0.982491726 L8.84893114,0.018993836 Z" id="Fill-11" fill="#457368" mask="url(#mask-34)"></path>
                        </g>
                        <path d="M29.3290557,26.8835156 C28.442328,25.0596472 28.1375481,23.0161363 28.4268485,21.0380999 C28.7079907,19.1150786 29.5491164,17.2543939 30.9608939,15.7168972 C32.6201352,13.9099726 34.7918754,12.8510872 37.0512633,12.558649 C39.3460031,12.2611905 41.7302734,12.7554904 43.7583047,14.0601662 C43.3150455,15.0623629 41.2874326,12.8632198 37.1466508,13.294974 C35.0520993,13.5133612 33.0487516,14.5465171 31.5106274,16.2216563 C30.2023956,17.646194 29.3859535,19.3625423 29.1635918,21.1447833 C28.839567,23.7440939 29.8026465,26.7257915 29.3290557,26.8835156" id="Fill-14" fill="#FF5E3B"></path>
                        <polygon id="Fill-16" fill="#FFFFFF" points="20.6923828 22.6373265 26.5449108 23.0713816 26.4604007 24.2093383 20.6080819 23.7752831"></polygon>
                        <polygon id="Fill-18" fill="#FFFFFF" points="17.0960422 13.3789401 18.1720806 12.998645 21.7275677 23.0563832 20.6517385 23.4364691"></polygon>
                        <polygon id="Fill-20" fill="#FFFFFF" points="15.7063126 8.77875017 16.3616836 8.54718435 18.5273574 14.6729056 17.8719864 14.9044714"></polygon>
                        <path d="M13.5981432,7.21416431 C12.9603436,7.66077047 12.5794209,8.47763093 13.8834691,8.92591056 C15.1877264,9.37398101 16.8584728,9.61851619 17.3475431,9.08886428 C17.8366135,8.5590032 19.3446153,8.5590032 20.1188024,8.4368402 C20.8931986,8.31446802 20.6488726,7.21416431 19.9150579,7.21416431 C19.1814524,7.21416431 17.103008,7.45869949 15.8805413,7.21416431 C14.6578654,6.96962913 14.1953613,6.79600706 13.5981432,7.21416431" id="Fill-22" fill="#457368"></path>
                        <path d="M25.6158653,23.0495638 C25.6838499,20.2301924 26.2883894,18.1214164 27.4035451,15.8388092 C28.5969353,13.3959676 30.2568042,11.4072628 32.0900859,10.2067603 L32.6000745,10.9863861 C30.9056905,12.0958939 29.3619184,13.9534409 28.2415331,16.2469257 C27.1797191,18.4203393 26.6094856,20.3962839 26.544848,23.0713189 L25.6158653,23.0495638 Z" id="Fill-24" fill="#FFFFFF"></path>
                        <path d="M9.10091324,20.7473352 C11.8684072,19.1855733 14.8821098,18.4584524 17.7085934,18.2860855 C21.228101,18.0714635 24.4731602,18.7193039 26.5982525,19.6882406 L26.2121003,20.5335499 C24.2079159,19.6196285 21.1270655,19.0100686 17.7633994,19.2150681 C15.0617981,19.3799045 12.1869932,20.0718826 9.5563051,21.5562467 L9.10091324,20.7473352 Z" id="Fill-26" fill="#FFFFFF"></path>
                        <polygon id="Fill-28" fill="#FFFFFF" points="31.2334597 8.35812456 32.309289 7.97782947 38.8378971 22.248936 37.7618586 22.6294402"></polygon>
                        <polygon id="Fill-30" fill="#FFFFFF" points="30.9587184 7.00926935 31.4450694 6.83732074 34.397063 13.2899954 33.9105028 13.4621532"></polygon>
                        <polygon id="Fill-32" fill="#FFFFFF" points="32.3001267 0.920071455 32.7921257 1.07549458 31.4506337 7.16481799 30.9586348 7.00918567"></polygon>
                        <g id="Group-36" transform="translate(29.076467, 0.000000)" fill="#457368">
                            <path d="M0.301119239,1.48898705 L7.48175148,0.0864135863 C7.6708531,0.0493881572 7.85598025,0.174061354 7.89300568,0.363372164 C7.93003111,0.552682974 7.80535791,0.737600936 7.6160471,0.774626365 L0.435624046,2.17740901 C0.246313236,2.21443444 0.0613952737,2.08976124 0.0243698446,1.90045043 C-0.0126555845,1.71113962 0.111808429,1.52601248 0.301119239,1.48898705" id="Fill-34"></path>
                        </g>
                        <path d="M9.32867192,24.2362393 C10.286731,24.2362393 11.0682395,23.45494 11.0682395,22.4968808 C11.0682395,21.5386125 10.286731,20.757104 9.32867192,20.757104 C8.37040361,20.757104 7.5891043,21.5386125 7.5891043,22.4968808 C7.5891043,23.45494 8.37040361,24.2362393 9.32867192,24.2362393" id="Fill-37" fill="#FF5E3B"></path>
                        <path d="M38.3437645,24.2362393 C39.3020328,24.2362393 40.0833321,23.45494 40.0833321,22.4968808 C40.0833321,21.5386125 39.3020328,20.757104 38.3437645,20.757104 C37.3857054,20.757104 36.6041969,21.5386125 36.6041969,22.4968808 C36.6041969,23.45494 37.3857054,24.2362393 38.3437645,24.2362393" id="Fill-39" fill="#FF5E3B"></path>
                        <polygon id="Fill-41" fill="#FF5E3B" points="21.1897159 20.6529517 9.32860917 20.757125 9.32860917 24.2362602 21.1897159 25.8398587"></polygon>
                        <path d="M21.1897159,25.8398378 C22.618228,25.8398378 23.7831694,24.6748965 23.7831694,23.2463843 C23.7831694,21.8176629 22.618228,20.6529308 21.1897159,20.6529308 C19.7612037,20.6529308 18.5962623,21.8176629 18.5962623,23.2463843 C18.5962623,24.6748965 19.7612037,25.8398378 21.1897159,25.8398378" id="Fill-43" fill="#FF5E3B"></path>
                        <path d="M20.99095,23.3519172 C21.301587,23.9376302 21.4356735,24.8705874 21.0187713,25.8232077 C20.7037414,26.542798 20.0734724,27.2736842 18.9673115,27.8796879 L19.1829794,28.2750442 C20.3876656,27.6152804 21.0798528,26.8063689 21.4308623,26.0043604 C21.9105194,24.9084495 21.7511218,23.8252989 21.3881889,23.1410606 L20.99095,23.3519172 Z" id="Fill-45" fill="#457368"></path>
                        <path d="M18.3407032,28.1153119 L18.3407032,28.1153119 C18.3407032,28.283286 18.4781366,28.4207194 18.6461107,28.4207194 L21.2117428,28.4209286 C21.379717,28.4209286 21.5173595,28.2834952 21.5173595,28.1155211 L21.5173595,28.1153119 C21.5173595,27.9473378 21.379717,27.8101136 21.211952,27.8101136 L18.6461107,27.8099044 C18.4781366,27.8099044 18.3407032,27.9473378 18.3407032,28.1153119" id="Fill-47" fill="#457368"></path>
                        <path d="M36.2937063,6.40728189 L37.2611786,6.40728189 L37.2611786,5.43960034 L36.2937063,5.43960034 L36.2937063,6.40728189 Z M34.9779438,6.40728189 L35.9454162,6.40728189 L35.9454162,5.43960034 L34.9779438,5.43960034 L34.9779438,6.40728189 Z M33.6621814,6.40728189 L34.6296538,6.40728189 L34.6296538,5.43960034 L33.6621814,5.43960034 L33.6621814,6.40728189 Z M36.2937063,5.09131028 L37.2611786,5.09131028 L37.2611786,4.12383791 L36.2937063,4.12383791 L36.2937063,5.09131028 Z M34.9779438,5.09131028 L35.9454162,5.09131028 L35.9454162,4.12383791 L34.9779438,4.12383791 L34.9779438,5.09131028 Z M33.6621814,5.09131028 L34.6296538,5.09131028 L34.6296538,4.12383791 L33.6621814,4.12383791 L33.6621814,5.09131028 Z M36.2937063,3.77554786 L37.2611786,3.77554786 L37.2611786,2.80807548 L36.2937063,2.80807548 L36.2937063,3.77554786 Z M34.9779438,3.77554786 L35.9454162,3.77554786 L35.9454162,2.80807548 L34.9779438,2.80807548 L34.9779438,3.77554786 Z M33.6621814,3.77554786 L34.6296538,3.77554786 L34.6296538,2.80807548 L33.6621814,2.80807548 L33.6621814,3.77554786 Z M32.3096027,3.77554786 L32.3181792,2.80807548 L33.3136822,2.80807548 L33.3136822,3.77554786 L32.3096027,3.77554786 Z M32.2978885,5.09131028 L32.306465,4.12383791 L33.3136822,4.12383791 L33.3136822,5.09131028 L32.2978885,5.09131028 Z M32.2861742,6.40728189 L32.2947507,5.43960034 L33.3136822,5.43960034 L33.3136822,6.40728189 L32.2861742,6.40728189 Z M33.3136822,7.89039089 L33.0632899,7.89039089 C32.6325816,7.89039089 32.2761334,7.53770799 32.2798987,7.10699975 L32.2830365,6.75557194 L33.3136822,6.75557194 L33.3136822,7.89039089 Z M33.6621814,7.89039089 L34.6296538,7.89039089 L34.6296538,6.75557194 L33.6621814,6.75557194 L33.6621814,7.89039089 Z M34.9779438,7.89039089 L35.9454162,7.89039089 L35.9454162,6.75557194 L34.9779438,6.75557194 L34.9779438,7.89039089 Z M36.2937063,7.89039089 L37.2611786,7.89039089 L37.2611786,6.75557194 L36.2937063,6.75557194 L36.2937063,7.89039089 Z M38.2817835,6.75557194 L38.2163092,7.10699975 C38.1491614,7.46909589 37.9387231,7.78517173 37.6094687,7.86863583 L37.6094687,6.75557194 L38.2817835,6.75557194 Z M38.5263187,5.43960034 L38.3464211,6.40728189 L37.6094687,6.40728189 L37.6094687,5.43960034 L38.5263187,5.43960034 Z M38.7710631,4.12383791 L38.5911655,5.09131028 L37.6094687,5.09131028 L37.6094687,4.12383791 L38.7710631,4.12383791 Z M39.0155983,2.80807548 L38.8359099,3.77554786 L37.6094687,3.77554786 L37.6094687,2.80807548 L39.0155983,2.80807548 Z M37.6094687,0.788620722 L38.4769515,0.708712734 C38.9061954,0.668967923 39.3392047,1.06850786 39.2603426,1.49189469 L39.080445,2.45978543 L37.6094687,2.45978543 L37.6094687,0.788620722 Z M36.2937063,0.909737804 L37.2611786,0.820625754 L37.2611786,2.45978543 L36.2937063,2.45978543 L36.2937063,0.909737804 Z M34.9779438,1.03106407 L35.9454162,0.941952019 L35.9454162,2.45978543 L34.9779438,2.45978543 L34.9779438,1.03106407 Z M33.6621814,1.15239033 L34.6296538,1.0630691 L34.6296538,2.45978543 L33.6621814,2.45978543 L33.6621814,1.15239033 Z M33.1088918,1.20322186 L33.3136822,1.18439537 L33.3136822,2.45978543 L32.3211078,2.45978543 L32.3255007,1.986613 C32.329266,1.55569557 32.679857,1.24275748 33.1088918,1.20322186 L33.1088918,1.20322186 Z" id="Fill-49" fill="#FF5E3B"></path>
                    </g>
                </g>
            </g>
        </g>
    </g>
</svg>