<?xml version="1.0" standalone="no"?><!DOCTYPE svg PUBLIC "-//W3C//DTD SVG 1.1//EN" "http://www.w3.org/Graphics/SVG/1.1/DTD/svg11.dtd"><svg class="icon" width="200px" height="200.00px" viewBox="0 0 1024 1024" version="1.1" xmlns="http://www.w3.org/2000/svg"><path fill="#8a8a8a" d="M390.86 463a21.32 21.32 0 0 1-3.12-42.42 193.14 193.14 0 0 1 28.38-2.08 21.32 21.32 0 1 1 0 42.65 148.54 148.54 0 0 0-22.12 1.57 23.36 23.36 0 0 1-3.14 0.28zM245.53 631.68a21.31 21.31 0 0 1-21.32-21.32 192 192 0 0 1 83.38-158.28 21.32 21.32 0 1 1 24.16 35.15 149.36 149.36 0 0 0-64.89 123.13 21.31 21.31 0 0 1-21.33 21.32zM606.11 439.21a21.32 21.32 0 0 1-15.11-36.4l226.22-226.18a21.32 21.32 0 1 1 30.15 30.15L621.19 433a21.25 21.25 0 0 1-15.08 6.21z"  /><path fill="#8a8a8a" d="M425.2 876a277.19 277.19 0 0 1-196-473.19A277.19 277.19 0 1 1 425.2 876z m0-511.73A233 233 0 0 0 259.34 433a234.54 234.54 0 1 0 165.86-68.7z m-180.94 53.62zM854.68 446.52a21.31 21.31 0 0 1-21.32-21.32V206.26a15.62 15.62 0 0 0-15.62-15.62H598.8a21.32 21.32 0 0 1 0-42.65h218.94A58.32 58.32 0 0 1 876 206.26V425.2a21.31 21.31 0 0 1-21.32 21.32z"  /></svg>