<?xml version="1.0" encoding="UTF-8" standalone="no"?>
<svg width="22px" height="22px" viewBox="0 0 22 22" version="1.1" xmlns="http://www.w3.org/2000/svg" xmlns:xlink="http://www.w3.org/1999/xlink">
    <!-- Generator: Sketch 46.2 (44496) - http://www.bohemiancoding.com/sketch -->
    <title>icon_index_home</title>
    <desc>Created with Sketch.</desc>
    <defs></defs>
    <g id="乐新人-1.03" stroke="none" stroke-width="1" fill="none" fill-rule="evenodd">
        <g id="1.1" transform="translate(-324.000000, -601.000000)" fill="#FF5E3B">
            <g id="icon_index_close" transform="translate(310.000000, 587.000000)">
                <path d="M27,23 L27,16 C27,14.8954305 26.1045695,14 25,14 C23.8954305,14 23,14.8954305 23,16 L23,16 L23,23 L16,23 L16,23 C14.8954305,23 14,23.8954305 14,25 C14,26.1045695 14.8954305,27 16,27 L23,27 L23,34 C23,35.1045695 23.8954305,36 25,36 C26.1045695,36 27,35.1045695 27,34 L27,27 L34,27 C35.1045695,27 36,26.1045695 36,25 C36,23.8954305 35.1045695,23 34,23 L27,23 Z" id="icon_index_home"></path>
            </g>
        </g>
    </g>
</svg>