<?xml version="1.0" standalone="no"?><!DOCTYPE svg PUBLIC "-//W3C//DTD SVG 1.1//EN" "http://www.w3.org/Graphics/SVG/1.1/DTD/svg11.dtd"><svg class="icon" width="200px" height="200.00px" viewBox="0 0 1024 1024" version="1.1" xmlns="http://www.w3.org/2000/svg"><path fill="#8a8a8a" d="M1004.8768 495.616c-1.14176 2.50368-2.45248 3.0976-3.88608 2.80064 1.00864 1.13664 2.10944 2.22208 3.41504 2.8416 4.19328 13.73184-6.08768 8.84224-8.9088 10.43968-7.46496-6.48192-4.65408-8.07936-4.18816-13.73184 1.44384-2.09408 2.64704-3.11808 3.712-3.4816a17.55648 17.55648 0 0 0-3.23584-2.16064c3.28704-7.2448 0.93696-11.2896-3.73248-19.36384-7.48032-6.48704-4.66944-8.08448 0.94208-11.2896 2.816-1.5872 3.27168-7.22432 10.75712-0.74752l4.67968 8.09984c2.3296 4.03456 7.48032 6.48192 7.00416 12.11392l2.32448 4.03968c-0.46592 5.64224-6.07744 8.84224-8.8832 10.43968z m-23.37792-40.42752c2.3296 4.05504 4.67456 8.0896 1.86368 9.68704-2.80576 1.60256-5.15072-2.42688-7.49056-6.48704 2.82112-1.59744 5.62688-3.19488 3.28704-7.23968-10.752 0.76288-15.8976-1.69472-19.6352-21.05344-7.94624-0.84992-7.48032-6.49728-9.82016-10.53184-4.1984-13.72672-8.86784-21.81632-18.69312-32.34304l-11.6736-20.1984c-4.6848-8.08448-1.8688-9.69216 0.9472-11.2896-2.82112 1.60256-7.95136-0.8448-14.97088-12.97408l-39.72608-68.72064c-7.0144-12.1344-13.54752-29.89056-23.36768-40.4224l-21.0176-36.38272c-4.21376-13.72672 0.94208-11.28448 8.8832-10.42944 5.14048 2.44224 10.75712-0.75264 15.43168 7.33184 5.15072 2.44224 4.66944 8.08448 7.01952 12.12416l14.00832 24.25344c5.15072 2.44736 7.48032 6.48192 7.0144 12.12928l7.00416 12.12416c2.81088-1.59744 7.48032 6.48192 11.6736 20.1984l11.69408 20.21376c-2.80576 1.60256-0.48128 5.64224-0.48128 5.64224 6.54848 17.76128 18.69312 32.33792 25.24672 50.0992 2.33472 4.04992-0.47616 5.64736-0.47616 5.64736 2.81088-1.60256 5.6064-3.2 7.95136 0.85504 11.68384 20.20352 23.36768 40.4224 32.25088 62.22848l-2.816 1.60256c5.1456 2.43712 7.95648 0.83456 7.48032 6.47168-2.79552 1.60256-3.27168 7.25504-0.4608 5.6576 5.61152-3.19488 7.49056 6.4768 12.63104 8.92416 5.13024 2.44736 2.3296 4.03968 4.66432 8.0896l-0.46592 5.64736c-2.81088 1.59744-5.62688 3.2-7.95648-0.85504z m-175.27296-303.18592c-2.3296-4.0448 0.47104-5.63712 0.47104-5.63712-2.80064 1.5872-5.6064 3.18976-7.94624-0.84992l-2.33984-4.04992c-16.82944-22.65088-16.82944-22.65088-33.67936-13.06624l-25.26208 14.38208c-7.94112-0.84992-11.2384 6.38464-16.8448 9.58976l-25.27232 14.37696c-5.61152 3.2-13.57312 2.35008-16.8448 9.59488l-28.07296 15.97952c-8.4224 4.79744-19.18464 5.54496-29.47072 0.66048 0.47104-5.64736-7.48544-6.48704 1.40288-16.92672-4.20864-13.7216 6.08256-8.832 11.6992-12.032 5.62176-3.19488 13.56288-2.34496 16.84992-9.58976 5.61664-3.19488 8.88832-10.43968 16.8448-9.58976l2.80576-1.60256 2.816-1.60256c2.80064-1.59744 5.1456 2.44736 7.94624 0.84992 8.89856-10.4448 22.93248-18.42688 39.31136-22.36928 5.61152-3.2 11.69408-12.02688 17.31584-15.22688 5.61664-3.2 13.568-2.3552 16.85504-9.58976 7.94624 0.8448 15.90272 1.69472 19.1744-5.54496 3.2768-7.23456 11.2384-6.39488 15.90784 1.69472 10.27584 4.8896 20.096 15.41632 21.49888 30.74048-0.47616 5.63712 1.85856 9.67168 4.20352 13.72672 2.80064-1.60256 2.80064-1.60256 7.48032 6.48192l4.67456 8.08448c5.13536 2.44224 4.66944 8.08448 7.00928 12.12416l2.33472 4.0448c2.3296 4.04992 1.8688 9.68704-0.95232 11.2896-12.61568-8.92928-23.3728-8.17664-29.91616-25.94304zM622.35136 208.2816c-0.4608 5.65248 4.20864 13.73184-3.7376 12.88704-2.81088 1.60256-5.61664 3.19488-3.28192 7.23968l-2.80064 1.59744a9.6768 9.6768 0 0 1-2.61632 3.43552c0.77312 8.1408-4.81792 10.40896-16.54784 2.10944h-0.03072c-0.47616 5.64736-2.80576 1.60256-5.61664 3.2-0.1536 1.92-0.65024 3.25632-1.25952 4.4032 2.6112 0.15872 4.52096-0.88576 6.41024-1.96608-0.9472 11.27936-6.08256 8.84224-11.70432 12.03712l-61.76256 35.16928c-4.39808-2.0992-5.4016 1.67424-10.28096-1.24416-12.2624 6.06208-24.41216 12.56448-34.17088 21.15072L323.328 394.5728c-19.17952 5.53984-28.54912 21.62688-47.72864 27.1616-5.61152 3.19488-8.88832 10.4448-16.84992 9.58976-5.1456-2.43712-5.1456-2.43712-7.95136-0.8448-10.2912-4.88448-6.08256 8.83712-14.03904 7.9872L110.4128 510.35648c-7.94624-0.83968-13.568 2.34496-16.8448 9.59488-0.23552 2.8416-1.06496 4.64896-2.19136 5.94944 0.5632 0.06144 1.13152 0.01024 1.72544-0.32256l39.31136-22.38464c-2.33984-4.03968 0.47104-5.64224 2.80576-1.60256l5.61664-3.18976c2.4832-1.408 4.60288 1.58208 7.00416 1.1776-0.24576 3.42016-5.33504 3.24608-7.4752 4.46464l-16.84992 9.58464c-0.46592 5.632-5.6064 3.19488-8.4224 4.79232l-39.30112 22.35904 2.33472 4.04992c-7.95136-0.84992-14.03392 7.99232-19.65056 11.18208-7.48032-6.48192-1.8688-9.67168 0.9472-11.27936l2.80064-1.59232 11.23328-6.4 11.23328-6.38976a33.9968 33.9968 0 0 1-1.32608-2.42176c-3.95264 0.08192-8.10496 2.432-12.24704 4.78208l-8.4224 4.79232c-5.15072-2.432-2.81088 1.60768-5.62176 3.21024l-28.07296 15.96928c-2.80576 1.60256-5.61664 3.18976-0.93696 11.2896l16.34816 28.27776 4.6848 8.09984 11.67872 20.1984 4.67456 8.07936 14.0288 24.25856 7.00928 12.11904 7.00928 12.13952 39.7312 68.72064 2.33472 4.02944-0.47104 5.64224-8.41728 4.79232c-10.76736 0.75776-14.96064-12.96896-19.6352-21.05856L43.92448 634.1376c-2.77504-1.3312-2.26304-4.50048-0.54784-4.98176-1.41824-3.2512-2.47808-6.72256-3.65568-8.76032l-28.04736-48.50176c-4.67456-8.09984-6.53312-17.78176 1.8944-22.56896 8.89344-10.42944 22.46144-12.77952 28.544-21.62176 6.08256-8.832 14.02368 24.2688 10.2912 4.8896-4.1984-13.7216 6.08768-8.832 6.55872-14.46912 5.62176-3.18976 8.89856-10.43456 16.37888-3.9424-2.33472-4.03968-2.33472-4.03968 0.48128-5.64224l70.18496-39.94112c2.80576-1.60256 8.88832-10.43968 13.09184 3.28192-1.86368-9.67168-1.39264-15.31392 4.224-18.5088L480.5888 272.8448c0.47616-5.64224 5.61152-3.18976 8.4224-4.79744l42.11712-23.96672c0.46592-5.63712 7.94624 0.85504 8.42752-4.7872 13.55776-2.3552 19.65056-11.19232 30.87872-17.57696 2.81088-1.60256 3.28192-7.2448 7.95648 0.8448 3.75296-12.8768 26.2144-25.6512 36.51072-20.76672 2.304 4.05504 5.5808-3.17952 7.4496 6.48704zM149.3248 496.2816a17.72544 17.72544 0 0 0-0.53248 2.97472 2.65216 2.65216 0 0 1-0.9472 0.32768c0.0768-1.06496-0.2816-2.45248-1.39264-4.3776 0.97792 0.47104 1.92512 0.77312 2.87232 1.0752z m13.97248-10.6496l5.61664-3.19488 5.1456 2.44224c-0.46592 5.64224-0.46592 5.64224-3.26656 7.2448-5.08928 2.88256-12.48256 7.0144-21.46304 4.16256 2.0224-8.09472 8.91392-7.78752 13.96736-10.65472z m-29.63968 290.82624l0.47616-5.632 0.47104-5.64224 2.81088-1.59232 2.81088-1.60768c10.28608 4.8896 11.67872 20.21888 19.16416 26.7008 8.87296 21.8112 28.51328 42.88 37.39136 64.68096 2.33984 4.04992-0.47104 5.64224 4.67968 8.0896l9.344 16.15872 4.67968 8.0896c2.3296 4.02944 7.00928 12.12928 1.39264 15.32928-5.61664 3.18976-11.22816 6.38976-15.90784-1.69984-2.33984-4.04992-5.1456-2.45248-7.96672-0.86016L125.23008 781.2608l2.81088-1.60256c2.80576-1.59744 5.15072 2.45248 5.61664-3.2z m88.36096 127.02208c-0.9472 11.26912-6.08256 8.832-11.69408 12.032l-2.34496-4.04992c5.62176-3.2 6.08768-8.84224 14.03904-7.98208z m-11.19232-58.09152c2.33984 4.02944-0.47104 5.632-0.47104 5.632s-2.33984-4.03968-7.48032-6.49216l0.47104-5.632c2.81088-1.5872 7.95136 0.85504 7.48032 6.49216z m-37.8624-59.03872c10.28608 4.87936 28.99456 37.22752 28.04224 48.512-9.33888-16.17408-21.49376-30.74048-28.04224-48.512z m-22.89664-46.06976c4.66944 8.07936 14.4896 18.6112 16.35328 28.29824-0.47104 5.632-2.79552 1.60256-5.14048-2.45248l-9.34912-16.16896c-5.15072-2.44736-4.66432-8.07936-1.86368-9.6768z m-83.6608-151.15776l7.00416 12.12928 7.0144 12.11904 63.09888 109.13792 4.67968 8.0896c-0.47616 5.632-3.28192 7.22944-7.95136-0.84992l-39.72608-68.72064c-5.15072-2.45248-7.0144-12.12928-9.34912-16.16896l-49.08032-84.8896c-2.33984-4.03968 0.47616-5.64224 3.28192-7.23968 0.85504-0.48128 1.89952-0.57856 2.83136-0.56832-0.22528 10.5216 9.37984 15.4624 11.18208 24.832l7.0144 12.12928z m-18.19648-36.96128c0.00512-0.34816-0.06656-0.66048-0.03584-1.01888 3.58912 1.69984 2.17088 1.03936 0.03584 1.01888z m170.30144-87.20896c-8.4224 4.79744-14.03904 7.9872-24.79104 8.73984 6.08256-8.83712 14.03392-7.9872 22.46144-12.78464l11.23328-6.38976 14.0288-7.99232c0.47616-5.64224 8.42752-4.79232 14.03392-7.98208 1.87392 9.6768-6.07744 8.832-11.6992 12.02688l-25.2672 14.38208z m-36.03456 15.1296c0.47616-5.63712 6.0928-8.83712 11.2384-6.38976-0.47104 5.63712-3.28192 7.2448-11.2384 6.38976z m127.08352 60.26752L179.21024 615.3216l-10.2656-17.69984 130.35008-74.97216-12.83072-22.13376-106.42432 65.14176-15.5648-16.62976L397.2096 405.34016l14.09024 17.47456-104.0896 65.77152 13.68576 23.59808 131.83488-75.8272 10.27072 17.70496-131.84 75.8272 11.9808 20.6592L442.38336 493.4656 504.832 601.14944l-20.74112 11.9296-5.98528-10.32192-78.51008 45.14816 13.69088 23.59808 109.61408-63.04768 10.2656 17.71008-109.6192 63.04256 11.9808 20.66944 131.84-75.83232 10.27072 17.69984-282.9312 162.73408-11.12064-19.17952 131.84-75.83232-11.9808-20.64896-109.61408 63.04768-10.2656-17.71008 109.61408-63.04256-13.69088-23.60832-78.51008 45.1584 5.9904 10.32192-20.74624 11.93984-62.45376-107.6992 97.77152-56.22784-11.9808-20.64896z m123.60192-21.90848l-78.51008 45.14816 14.55104 25.088 78.51008-45.1584-14.55104-25.07776z m-42.35264 110.91968l78.52032-45.1584-14.55104-25.07776-78.5152 45.1584 14.54592 25.07776z m-97.7664 56.22784l78.5152-45.1584-14.54592-25.07776-78.5152 45.1584 14.54592 25.07776z m-38.49728-66.3808l14.5408 25.06752 78.52032-45.1584-14.55104-25.06752-78.51008 45.1584z m-25.96352 269.79328c0.46592-5.65248-1.8688-9.68192-4.20352-13.73184l2.81088-1.58208c5.14048 2.44224 7.95136 0.83968 9.81504 10.5216-0.47104 5.64224-3.28192 7.22944-8.4224 4.79232z m72.99072-41.53344c5.15072 2.44224 5.15072 2.44224 4.66944 8.07936-13.568 2.33984-19.65568 11.17184-30.88896 17.57184l-8.41728 4.79232c-2.81088 1.60256-7.94624-0.83968-8.42752 4.79232l-2.80064 1.60256c-5.13536-2.44224-7.95136-0.83968-10.752 0.75776 0.47616-5.64224 5.61664-3.2 6.08768-8.84224 5.14048 2.45248 5.62176-3.18976 10.76224-0.74752l39.30624-22.36928c2.80064-1.59232 5.61152-3.19488 0.4608-5.63712z m13.57312-2.3552l11.23328-6.38976 14.0288-7.98208c2.33984 4.03968 4.67968 8.07936 1.8688 9.69216l-19.65056 11.17184c-2.80576 1.59744-5.1456-2.45248-7.48032-6.49216z m166.1184-99.88096l2.81088-1.60256c0.47104-5.6576 8.42752-4.80256 11.23328-6.38976l2.80576-1.60768c2.81088-1.59232 6.08256-8.84224 11.23328-6.37952l14.0288-8.00256c2.82112-1.59232 8.42752-4.78208 13.568-2.33984l2.81088-1.60768c-0.48128 5.64224-6.0928 8.84224-8.89344 10.43968l-8.42752 4.79232c-0.47104 5.65248-6.08256 8.84224-11.6992 12.04224l-19.65056 11.19232c-2.81088 1.59232-5.61152 3.18976-10.77248 0.73216-5.62176 3.2-7.94624-0.83968-7.48032-6.48192 0.46592-5.6576 5.61664-3.21024 8.43264-4.7872z m-19.65568 11.16672c2.81088-1.59232 5.62176-3.18976 7.9616 0.84992 2.3296 4.03968-5.62176 3.18976-3.28704 7.22944-13.55776 2.36032-19.65568 11.18208-28.07296 15.97952l-33.68448 19.16928c-0.47616 5.65248-6.08256 8.84224-8.89344 10.43968l-44.91776 25.55904c-5.62176 3.18976-5.15072-2.4576-4.20352-13.7216l42.11712-23.9616c5.14048 2.432 8.4224-4.80256 16.36864-3.95776 3.7376-12.88192 16.8448-9.57952 22.93248-18.41152l8.4224-4.80256c0.47616-5.64224 8.43264-4.79232 14.04416-7.99232 5.14048 2.44224 5.14048 2.44224 2.80064-1.60256l8.41216-4.77696z m12.17536-17.67936l-0.63488 0.3584 0.63488-0.3584z m-11.22304 6.38976l0.47104-5.632c2.80576-1.59232 5.61664-3.18976 10.75712-0.75776l-11.22816 6.38976z m93.57824-31.75936c-0.47104 5.65248-6.08256 8.85248-11.2384 6.38976-2.31936-4.0192-2.31936-4.0192 0.48128-5.632 2.80576-1.59232 3.2768-7.22944 8.4224-4.79232 7.95136 0.84992 11.70944-12.032 21.98528-7.1424-3.28704 7.24992-11.70944 12.03712-19.65056 11.17696zM230.42048 930.9184c8.42752-4.78208 16.384-3.93216 24.8064-8.7296-2.33984-4.04992 0.47104-5.65248 0.47104-5.65248 3.2768-7.22944 8.89344-10.42944 14.50496-13.6192l2.81088-1.60256c5.14048 2.44224 9.81504 10.53184 15.90272 1.69984 0.47104-5.64224-1.8688-9.69216 0.94208-11.27936 6.0928-8.832 11.70944-12.032 20.13184-16.8192l5.6064-3.17952v-0.02048c5.62176-3.18976 6.08768-8.84224 13.568-2.36032l2.33984 4.04992 2.80064-1.60256-2.3296-4.03968c8.4224-4.79232 11.70944-12.032 20.13184-16.8192 16.83968-9.58976 28.53888-21.632 47.7184-27.15136 11.70432-12.04224 25.73824-20.02944 39.77728-28.032l176.896-100.63872c8.4224-4.79232 17.31584-15.22176 29.93664-6.29248-2.33472-4.02944-1.86368-9.69216 0.9472-11.2896l19.64544-11.18208c8.42752-4.79232 14.5152-13.6192 27.15136-4.70016 5.12512 2.45248 0.92672-11.26912 6.08256-8.832 2.81088-1.59232 5.61152-3.17952 7.94624 0.84992l4.66944 8.0896c2.82112-1.60768 5.15584 2.44224-7.0144 20.1216 1.85344 9.67168-3.28192 7.22944-8.89856 10.42944-2.80064 1.59232-6.08768 8.832-13.09184-3.3024-0.48128 5.65248-0.9472 11.27936-6.55872 14.46912l-171.264 97.4592c-5.1456-2.44224-10.77248 0.75776-11.2384 6.4l-16.83968 9.57952c-2.81088 1.60256-8.42752 4.79232-10.29632-4.8896 0.47104-5.64224-5.15072-2.44224-5.15072-2.44224s-7.94112-0.86016-0.4608 5.632c7.4752 6.49216 2.33472 4.03968-0.47616 5.64224-5.61152 3.2-13.568 2.35008-16.83968 9.6-2.82112 1.59232-5.62176 3.18976-10.76736 0.7424l-11.22816 6.37952c-2.33472-4.02944-5.14048-2.432-5.14048-2.432l5.14048 2.432 2.33472 4.06016c-0.47104 5.64224-5.61152 3.18976-8.4224 4.78208-17.31584 15.24224-36.50048 20.77184-53.34528 30.37184-8.8832 10.4192-25.2672 14.37184-34.16576 24.80128-0.43008 0.24064-0.70144 0.3584-1.01376 0.52224 0.03584 2.49856-1.33632 4.22912-4.608 2.66752-10.752 0.75776-14.04928 8.00256-22.46144 12.76928-0.47104 5.65248-3.2768 7.24992-8.4224 4.80256-10.2912-4.87936-11.23328 6.4-16.37376 3.95776-0.47104 5.64224-3.2768 7.23968-6.08768 8.832-1.82784 1.03936-4.62848 0.33792-6.24128-1.8176l-1.71008 0.96768c-5.61664 3.21024-3.74784 12.87168-11.6992 12.032l-15.44192-7.34208c-2.80064 1.60768-6.08256 8.832-10.75712 0.77824 0.47104-5.65248 3.2768-7.24992 6.08256-8.85248z m92.0064-36.74624a75.776 75.776 0 0 0-2.47808-5.44768c0.29696 2.11456 1.16224 3.90656 2.47808 5.44768z m373.62176-255.04256c-5.14048-2.4576-8.4224 4.79232-10.76736 0.73216 5.62688-3.18976 10.7776-0.73216 14.04416-7.99232-2.33472-4.02944 2.80576-1.59232 2.80576-1.59232l2.816-1.59232c0.4608-5.65248 5.6064-3.2 8.41216-4.80256l2.33472 4.04992-14.0288 7.99232c-2.816 1.60768-0.48128 5.64736-5.61664 3.20512z m104.07936-446.03904c0.47104-5.64224 5.15072 2.45248 10.2912 4.8896 0 0 2.34496 4.0448-0.47104 5.64736-2.3296-4.05504-7.48032-6.48704-9.82016-10.53696z m23.84384 34.7904c2.33984 4.03968 4.20352 13.7216 9.34912 16.16384 1.85856 9.69216 11.68896 20.21888 18.70336 32.33792 7.00416 12.1344 11.20256 25.856 23.82848 34.79552 6.54336 17.75616 16.35328 28.28288 20.56192 42.0096-10.2912-4.89472-9.82016-10.52672-14.49472-18.61632-4.66944-8.07936-9.34912-16.16384-20.10112-15.40608 8.41728-4.79232 3.74272-12.88704-0.93696-20.97152-16.35328-28.288-37.8624-59.03872-51.41504-88.92928 5.16096 2.44224 9.83552 10.52672 14.50496 18.61632z m1.70496 332.1088l0.47104-5.64224c12.17536-17.67936 30.88896-17.58208 42.57792-29.59872 2.816-1.60256 7.95136 0.84992 5.15072 2.432l-42.112 23.97184c-2.82624 1.60256-2.82624 1.60256-3.29216 7.22944l2.33984 4.04992c-2.79552 1.60768-5.13536-2.44224-5.13536-2.44224z m-22.00576 7.15264l2.82112-1.60768c2.79552-1.60256 5.6064-3.18976 7.936 0.83968 2.34496 4.06016-3.27168 7.24992-6.08256 8.85248-5.61152 3.18976-13.56288 2.33984-16.83968 9.57952-8.41728 4.80256-16.384 3.93216-22.46656 12.77952-2.80576 1.60768-5.61152 3.18976-10.75712 0.7424 12.17536-17.66912 31.37024-23.20896 45.3888-31.18592z m-53.32992 30.336s5.13024 2.44224 7.94624 0.83968c-2.816 1.60256-5.61664 3.21024-7.94624-0.83968z m-25.7536 20.01408c-2.33472-4.02944-2.33472-4.02944-1.85856-9.67168l2.80064-1.59232c2.33472 4.02944 5.1456 2.44224 5.1456 2.44224 4.66944 8.07936 1.86368 9.68704-6.08768 8.82176z m-10.74688 0.768l5.61152-3.2c2.80576-1.60256 2.80576-1.60256 5.14048 2.432-0.46592 5.64736-5.61664 3.2-10.752 0.768z m20.13184-16.8192l2.81088-1.60768c2.32448 4.04992 5.13536 2.44224 5.13536 2.44224-3.28192 7.24992-3.74784 12.89216-11.2384 6.4 2.81088-1.60768 5.61152-3.20512 3.29216-7.23456zM671.7184 642.22208s2.81088-1.59232 2.33472 4.03968c-5.1456-2.45248-2.33472-4.03968-2.33472-4.03968z m-5.61152 3.18976c7.0144 12.12928-3.29728 7.23968-3.75296 12.89216l-22.45632 12.77952s-2.816 1.60768-5.1456-2.4576c-9.82016-10.5216 3.28192-7.2192 0.95232-11.26912 13.0816 3.27168 21.98528-7.14752 30.40256-11.94496zM583.2704 708.6592c0.48128-5.64224 3.75808-12.87168 8.89856-10.42944-2.33984-4.03968 0.47104-5.632 0.47104-5.632 2.80064-1.60768 7.95136 0.83968 10.752-0.75776-2.3296-4.03968-2.3296-4.03968 0.46592-5.65248l11.2384-6.37952c5.61664-3.2 11.69408-12.032 21.98528-7.12192l-42.10176 23.95136c-2.81088 1.59232-5.632 3.18976 1.85856 9.67168-5.61152 3.2-8.42752 4.80256-13.568 2.35008z m242.26816-317.53216l-66.6624 38.33856c0.74752 25.1392-4.65408 49.88928-14.73536 73.3952 33.28-7.33696 69.52448-16.37888 106.61376-23.94624l-0.49664 29.78816c-39.43424 6.95296-79.49312 16.21504-122.74688 23.38304-23.80288 37.2992-61.39392 74.67008-110.44864 112.71168-7.2448-5.6576-15.96928-10.49088-24.68864-15.3088 44.84608-31.68768 77.5936-60.35968 100.3776-89.21088-27.9808 6.26176-56.81664 11.03872-86.272 18.1504l4.25472-43.76064-72.58624 41.74848-11.13088-19.17952 85.91872-49.42336c0.7936-12.2624 1.5872-24.51456 0.04096-37.39648l27.35104-3.92704a155.05408 155.05408 0 0 0-0.72704 25.99424l174.80192-100.54144 11.136 19.18464z m-188.98944 106.73152c0.68608 11.40736-0.96256 22.19008-1.98656 30.65344 24.17152-6.03136 50.66752-11.43808 77.78304-19.16416 12.416-22.89152 18.03776-43.83232 19.01056-66.0224l-94.80704 54.53312z m125.2608-358.1696c2.79552-1.59744 5.6064-3.19488 10.752-0.75264l4.67968 8.09472L793.6 175.32416c2.33472 4.0448 2.33472 4.0448-0.47616 5.64736-9.82016-10.52672-14.02368-24.25856-23.84384-34.78016-7.95136-0.85504-14.03904 7.99232-21.98528 7.13728 0.93696-11.29472 8.8832-10.43456 14.5152-13.63968zM397.73696 368.34304c-2.816 1.59744-6.08768 8.84224-11.23328 6.38976L333.1584 405.0944c-19.17952 5.53984-33.69472 19.1744-55.68512 26.31168 0.46592-5.64224 3.2768-7.23968 6.08768-8.83712l148.80256-84.67968c2.80064-1.59232 7.95648 0.84992 8.4224-4.79744 11.22304-6.38464 27.60704-10.33728 39.30624-22.36416 2.80064-1.59744 5.1456 2.45248 7.94624 0.85504 0.4864-5.64736 9.38496-16.0768 11.70432-12.03712 5.1456 2.43712-2.80064 1.59744-0.4608 5.63712-2.81088 1.60256-7.9616-0.8448-6.08256 8.84224L397.73696 368.34304z m284.96896-178.2784l-25.25696 14.37696c2.81088-1.60256 0.46592-5.64224 3.28704-7.23968l2.79552-1.59744 2.816-1.60256 2.80576-1.60256 22.45632-12.77952c5.62176-3.18976 11.24352-6.38976 16.37888-3.94752 1.87392 9.68704-6.08768 8.84224-8.88832 10.43968-5.62176 3.2-8.89344 10.43968-16.39424 3.95264z m47.26784-21.51936l-8.4224 4.79744c-2.80576 1.59232-5.61152 3.18976-10.76224 0.74752-2.34496-4.0448 0.47104-5.64736 3.28704-7.23968l2.79552-1.59744 8.42752-4.79232c2.81088-1.60256 2.81088-1.60256 7.95136 0.84992 2.34496 4.03968 1.87392 9.6768-3.2768 7.23456z m29.73696 211.26144l-5.9904-10.33216-197.0176 113.32096 5.9904 10.33216-20.736 11.91936-49.61792-85.56032 72.576-41.74336-17.96096-30.98112-85.90848 49.41312-11.12064-19.17952 266.63424-153.35936 11.12064 19.17952-87.3984 50.26816 17.96608 30.98112 72.59136-41.74848 49.61792 85.56032-20.74624 11.9296z m-236.36992 45.45536l22.24128 38.36416 51.84-29.81888-22.24128-38.35904-51.84 29.81376z m96.19456-120.25344l-51.84512 29.81888 17.9712 30.98112 51.84-29.81888-17.96608-30.98112z m28.2368 48.68608l-51.84512 29.81888 22.2464 38.36416 51.84-29.81888-22.24128-38.36416z m72.58624-41.7536l-51.85536 29.824 22.2464 38.35904 51.85024-29.824-22.24128-38.35904z m181.59104 199.27552l2.79552-1.60256s2.32448 4.03968-0.4608 5.632c0 0.00512-2.81088 1.60256-2.33472-4.02944z m16.89088-106.31168l-2.33472-4.04992c-2.33472-4.0448 0.47104-5.64224-1.86368-9.6768 10.752-0.75776 7.00416 12.12928 7.00416 12.12928l2.33472 4.02432s-2.80064 1.60768-5.14048-2.42688z m9.80992 10.5216c5.16608 2.43712 5.16608 2.43712 7.49056 6.48192 2.35008 4.03968-0.47104 5.64736-0.47104 5.64736l-7.01952-12.12928z m14.94016 77.45024c-0.47616 5.6576-5.61152 3.19488-8.42752 4.79744-5.61152 3.2-6.5536 14.48448-16.3584 3.94752l2.80064-1.59232c0.47104-5.65248 7.95136 0.8448 8.42752-4.79232l2.80064-1.60256 2.816-1.60256 2.80064-1.60256c-0.00512 0.00512 2.81088-1.59232 5.14048 2.44736z m1.41824-49.152l0.47616-5.64224c2.81088-1.60256 2.81088-1.60256 5.1456 2.43712-0.46592 5.64736 1.8688 9.68704 4.1984 13.72672l-10.27584-4.87936 0.45568-5.64224z m23.84384 34.77504l-14.04416 7.9872c-2.7904 1.59744-2.7904 1.59744-5.14048-2.44224l11.22816-6.38464c5.61664-3.2 3.29216-7.22944 0.95744-11.28448l5.13536 2.45248c-2.80064 1.60256-0.47616 5.632-0.47616 5.632l2.33984 4.03968zM731.136 635.26912l16.8448-9.57952c2.81088-1.60768 5.62176-3.2 10.75712-0.74752-2.33472-4.03968 0.4864-5.64224 3.28192-7.23968 5.1456 2.44224 8.42752-4.79232 11.22304-6.38976l64.57344-36.74112 2.816-1.60256c2.82112-1.60768 5.14048 2.432 10.28608 4.87936 2.34496 4.04992 5.1456 2.45248 5.1456 2.45248-2.33984-4.04992 0.47616-5.65248 0.47616-5.65248-1.8688-9.67168 3.74784-12.86144 9.35424-16.06144l19.66592-11.17184 53.34528-30.3616c8.42752-4.80256 16.84992-9.58976 27.13088-4.7104-1.8688-9.68192 6.56384-14.46912 12.17536-17.66912 5.0688-2.88256 5.1968 1.54624 5.8368 17.80224 1.11616-1.8688 2.49344-3.97824 3.98848-7.26016l4.66944 8.07424c-3.28192 7.24992-6.08256 8.83712-11.22304 6.38976 0.0768-0.89088 0.22528-1.64864 0.40448-2.3808-7.69024-1.50016-6.98368 11.49952-12.12928 14.41792 5.15072 2.44224 7.95648 0.83968 10.29632 4.87936-16.8448 9.57952-31.34464 23.22944-47.73376 27.1616-13.55776 2.35008-17.3056 15.232-28.07296 15.97952-5.13536-2.44224-10.75712 0.74752-14.0288 7.99232 0 0-2.81088 1.59232-7.95648-0.84992-2.81088 1.60768 2.32448 4.04992-0.47104 5.64224l-8.42752 4.79232c-2.32448-4.02944-4.66432-8.07936-5.13536-2.432 1.86368 9.68192-5.61664 3.17952-6.08256 8.82176-7.48544-6.47168-5.632 3.2-10.752 0.74752l-25.27232 14.38208c-16.384 3.95776-28.0832 15.97952-42.11712 23.97184l-36.51584 20.77184c-8.4224 4.79232-14.02368 7.99232-24.32512 3.09248-7.47008-6.49216-4.20864-13.73184-3.73248-19.36896 3.2768-7.22944 6.08768-8.84224 11.70432-12.032z"  /></svg>