<?xml version="1.0" standalone="no"?><!DOCTYPE svg PUBLIC "-//W3C//DTD SVG 1.1//EN" "http://www.w3.org/Graphics/SVG/1.1/DTD/svg11.dtd"><svg class="icon" width="200px" height="200.00px" viewBox="0 0 1024 1024" version="1.1" xmlns="http://www.w3.org/2000/svg"><path fill="#8a8a8a" d="M512.644171 25.433252c-269.198092 0-487.266689 218.281445-487.266689 487.407905l0 487.250316 487.266689 0c269.094738 0 487.371066-218.018455 487.371066-487.250316C1000.015238 243.714697 781.738909 25.433252 512.644171 25.433252zM608.052125 675.355485l-28.768207 21.837354c-35.716456 27.136034-49.095161 37.229926-63.825654 51.873438-2.362814 2.432399-5.594415 3.734044-9.033747 3.734044-3.438309 0-6.635117-1.337461-9.06854-3.734044-11.06501-11.06501-21.418822-18.925025-41.952484-34.570353-13.028735-9.902534-28.994358-22.079878-50.779523-39.261189-57.501622-45.27209-136.296199-107.273189-136.296199-196.114586 0-86.390579 65.921385-132.995013 128.009466-132.995013 41.850154 0 80.798211 19.554358 110.087281 55.151088 29.324886-35.630499 68.342528-55.226812 110.313431-55.226812 61.949934 0 127.851876 46.332235 127.851876 132.168182C744.589824 571.627029 655.75559 639.118166 608.052125 675.355485z"  /></svg>