<?xml version="1.0" standalone="no"?><!DOCTYPE svg PUBLIC "-//W3C//DTD SVG 1.1//EN" "http://www.w3.org/Graphics/SVG/1.1/DTD/svg11.dtd"><svg class="icon" width="200px" height="200.00px" viewBox="0 0 1024 1024" version="1.1" xmlns="http://www.w3.org/2000/svg"><path fill="#8a8a8a" d="M658.773333 525.653333c0 13.653333 13.653333 23.893333 27.306667 23.893334 54.613333-3.413333 78.506667-44.373333 81.92-68.266667 3.413333-13.653333-3.413333-27.306667-17.066667-30.72h-6.826666c-10.24 0-20.48 6.826667-23.893334 20.48 0 3.413333-6.826667 27.306667-37.546666 27.306667-13.653333 0-23.893333 13.653333-23.893334 27.306666z m-228.693333 13.653334c0 10.24 6.826667 17.066667 17.066667 17.066666s17.066667-6.826667 17.066666-17.066666-6.826667-17.066667-17.066666-17.066667c-10.24-3.413333-17.066667 6.826667-17.066667 17.066667z m0-20.48c13.653333-6.826667 17.066667-20.48 13.653333-34.133334-10.24-23.893333-13.653333-51.2-13.653333-78.506666 0-112.64 88.746667-208.213333 201.386667-208.213334 10.24 0 23.893333 0 34.133333 3.413334 3.413333 0 6.826667 0 13.653333 3.413333 13.653333 3.413333 27.306667-6.826667 30.72-20.48 3.413333-13.653333-6.826667-27.306667-17.066666-30.72-3.413333 0-10.24-3.413333-13.653334-3.413333-13.653333-3.413333-27.306667-3.413333-40.96-3.413334-139.946667 0-252.586667 116.053333-252.586666 259.413334 0 34.133333 6.826667 68.266667 20.48 98.986666-3.413333 10.24 13.653333 17.066667 23.893333 13.653334z m334.506667-331.093334c-3.413333-3.413333-10.24-3.413333-13.653334-3.413333-6.826667 0-17.066667 3.413333-20.48 10.24-6.826667 10.24-3.413333 27.306667 6.826667 34.133333 58.026667 37.546667 92.16 102.4 92.16 174.08 0 112.64-88.746667 208.213333-201.386667 208.213334-47.786667 0-95.573333-17.066667-133.12-51.2-3.413333-3.413333-3.413333-3.413333-6.826666-3.413334-10.24-6.826667-20.48-3.413333-27.306667 3.413334l-3.413333 3.413333-58.026667 58.026667-71.68-71.68c-10.24-10.24-27.306667-10.24-37.546667 0-10.24 10.24-10.24 27.306667 0 37.546666l71.68 71.68-88.746666 92.16c-10.24 10.24-10.24 27.306667 0 37.546667 10.24 10.24 27.306667 10.24 37.546666 0l88.746667-92.16 75.093333 78.506667c10.24 10.24 27.306667 10.24 37.546667 0 10.24-10.24 10.24-27.306667 0-37.546667l-75.093333-78.506667 44.373333-44.373333c44.373333 30.72 95.573333 51.2 146.773333 51.2 139.946667 0 252.586667-116.053333 252.586667-256 0-92.16-40.96-174.08-116.053333-221.866667z" /></svg>