<?xml version="1.0" standalone="no"?><!DOCTYPE svg PUBLIC "-//W3C//DTD SVG 1.1//EN" "http://www.w3.org/Graphics/SVG/1.1/DTD/svg11.dtd"><svg class="icon" width="200px" height="200.00px" viewBox="0 0 1024 1024" version="1.1" xmlns="http://www.w3.org/2000/svg"><path d="M512 1024c283.306667 0 512-228.693333 512-512S795.306667 0 512 0 0 228.693333 0 512s228.693333 512 512 512z" fill="#5FD388" /><path d="M512 238.933333c-78.506667 0-143.36 64.853333-143.36 143.36 0 54.613333 30.72 102.4 75.093333 126.293334-92.16 30.72-160.426667 116.053333-160.426666 221.866666 0 6.826667 6.826667 13.653333 13.653333 13.653334s13.653333-6.826667 13.653333-13.653334c0-112.64 88.746667-204.8 197.973334-204.8h3.413333c75.093333-3.413333 136.533333-64.853333 136.533333-143.36 3.413333-78.506667-58.026667-143.36-136.533333-143.36z m0 262.826667c-61.44 0-116.053333-51.2-116.053333-116.053333s51.2-116.053333 116.053333-116.053334c61.44 0 116.053333 51.2 116.053333 116.053334-3.413333 61.44-54.613333 116.053333-116.053333 116.053333z m160.426667 68.266667c-6.826667-6.826667-13.653333-6.826667-20.48 0-6.826667 6.826667-6.826667 13.653333 0 20.48 37.546667 37.546667 58.026667 88.746667 58.026666 143.36 0 6.826667 6.826667 13.653333 13.653334 13.653333s13.653333-6.826667 13.653333-13.653333c0-61.44-23.893333-119.466667-64.853333-163.84z m-303.786667-64.853334c0-6.826667-6.826667-13.653333-13.653333-13.653333-47.786667 0-88.746667-44.373333-88.746667-98.986667 0-51.2 40.96-95.573333 88.746667-95.573333 6.826667 0 13.653333-6.826667 13.653333-13.653333s-6.826667-13.653333-13.653333-13.653334C290.133333 269.653333 238.933333 324.266667 238.933333 392.533333c0 47.786667 23.893333 85.333333 58.026667 109.226667-71.68 27.306667-126.293333 98.986667-126.293333 187.733333 0 6.826667 6.826667 13.653333 13.653333 13.653334s13.653333-6.826667 13.653333-13.653334c0-95.573333 71.68-170.666667 157.013334-170.666666 6.826667 0 13.653333-6.826667 13.653333-13.653334z m286.72 0c0-6.826667 6.826667-13.653333 13.653333-13.653333 47.786667 0 88.746667-44.373333 88.746667-95.573333 0-54.613333-40.96-95.573333-88.746667-95.573334-6.826667 0-13.653333-6.826667-13.653333-13.653333s6.826667-13.653333 13.653333-13.653333c64.853333 0 116.053333 54.613333 116.053334 126.293333 0 44.373333-23.893333 85.333333-58.026667 105.813333 71.68 27.306667 126.293333 102.4 126.293333 187.733334 0 6.826667-6.826667 13.653333-13.653333 13.653333s-13.653333-6.826667-13.653333-13.653333c0-95.573333-71.68-170.666667-157.013334-170.666667-6.826667-3.413333-13.653333-10.24-13.653333-17.066667z" fill="#FFFFFF" /></svg>