<?xml version="1.0" encoding="UTF-8" standalone="no"?>
<svg width="20px" height="22px" viewBox="0 0 20 22" version="1.1" xmlns="http://www.w3.org/2000/svg" xmlns:xlink="http://www.w3.org/1999/xlink">
    <!-- Generator: Sketch 46.2 (44496) - http://www.bohemiancoding.com/sketch -->
    <title>icon_index_me</title>
    <desc>Created with Sketch.</desc>
    <defs></defs>
    <g id="乐新人-1.03" stroke="none" stroke-width="1" fill="none" fill-rule="evenodd">
        <g id="1.1" transform="translate(-325.000000, -536.000000)" fill="#FFFFFF">
            <g id="icon_index_me" transform="translate(310.000000, 522.000000)">
                <path d="M25,24 C22.2385763,24 20,21.7614237 20,19 C20,16.2385763 22.2385763,14 25,14 C27.7614237,14 30,16.2385763 30,19 C30,21.7614237 27.7614237,24 25,24 Z M25,22 C26.6568542,22 28,20.6568542 28,19 C28,17.3431458 26.6568542,16 25,16 C23.3431458,16 22,17.3431458 22,19 C22,20.6568542 23.3431458,22 25,22 Z M25,36 C20.0294373,36 15,31.3137085 15,28 C15,24.6862915 20.0294373,24 25,24 C29.9705627,24 35,24.6862915 35,28 C35,31.3137085 29.9705627,36 25,36 Z M25,34 C28.9273582,34 33,30.609139 33,28.4 C33,26.190861 28.9273582,26 25,26 C21.0726418,26 17,26.190861 17,28.4 C17,30.609139 21.0726418,34 25,34 Z M25,29 C24.4477153,29 24,28.5522847 24,28 C24,27.4477153 24.4477153,27 25,27 C25.5522847,27 26,27.4477153 26,28 C26,28.5522847 25.5522847,29 25,29 Z M25,32 C24.4477153,32 24,31.5522847 24,31 C24,30.4477153 24.4477153,30 25,30 C25.5522847,30 26,30.4477153 26,31 C26,31.5522847 25.5522847,32 25,32 Z"></path>
            </g>
        </g>
    </g>
</svg>