<?xml version="1.0" standalone="no"?><!DOCTYPE svg PUBLIC "-//W3C//DTD SVG 1.1//EN" "http://www.w3.org/Graphics/SVG/1.1/DTD/svg11.dtd"><svg class="icon" width="200px" height="128.24px" viewBox="0 0 1597 1024" version="1.1" xmlns="http://www.w3.org/2000/svg"><path fill="#8a8a8a" d="M762.482083 877.71375L616.195833 1024 469.910833 877.71375H176.904583C96.353333 877.71375 31.053333 811.74375 31.053333 730.80625V146.91C31.053333 65.77375 96.480833 0 176.904583 0h878.58375c80.55125 0 145.85125 65.97125 145.85125 146.91v583.895c0 81.13375-65.4275 146.9075-145.85125 146.9075H762.482083v0.00125z m0-73.1425h293.00625c39.9625 0 72.7075-32.9625 72.7075-73.76625V146.91c0-40.74375-32.75375-73.7675-72.7075-73.7675H176.904583c-39.96375 0-72.70875 32.9625-72.70875 73.7675v583.895c0 40.74375 32.755 73.76625 72.70875 73.76625h323.3025l21.42375 21.42375L667.915833 972.28h-103.44l146.28625-146.285 21.42375-21.42375h30.29625zM323.624583 512c40.39625 0 73.1425-32.74625 73.1425-73.1425 0-40.39625-32.74625-73.14375-73.1425-73.14375-40.395 0-73.1425 32.7475-73.1425 73.14375 0 40.395 32.7475 73.1425 73.1425 73.1425z m292.57125 0c40.395 0 73.14375-32.74625 73.14375-73.1425 0-40.39625-32.7475-73.14375-73.14375-73.14375S543.053333 398.46125 543.053333 438.8575c0 40.395 32.7475 73.1425 73.1425 73.1425z m292.57125 0c40.39625 0 73.14375-32.74625 73.14375-73.1425 0-40.39625-32.74625-73.14375-73.14375-73.14375-40.39375 0-73.1425 32.7475-73.1425 73.14375 0 40.395 32.7475 73.1425 73.1425 73.1425z"  /></svg>