<?xml version="1.0" encoding="UTF-8" standalone="no"?>
<svg width="14px" height="14px" viewBox="0 0 14 14" version="1.1" xmlns="http://www.w3.org/2000/svg" xmlns:xlink="http://www.w3.org/1999/xlink">
    <!-- Generator: Sketch 46.2 (44496) - http://www.bohemiancoding.com/sketch -->
    <title>icon_birth</title>
    <desc>Created with Sketch.</desc>
    <defs>
        <linearGradient x1="0%" y1="50%" x2="100%" y2="50%" id="linearGradient-1">
            <stop stop-color="#FFA83C" offset="0%"></stop>
            <stop stop-color="#FF673B" offset="100%"></stop>
        </linearGradient>
    </defs>
    <g id="乐新人1.3.0" stroke="none" stroke-width="1" fill="none" fill-rule="evenodd">
        <g id="1-6" transform="translate(-126.000000, -114.000000)" fill="url(#linearGradient-1)">
            <g id="基础资料" transform="translate(0.000000, 66.000000)">
                <g id="名字信息" transform="translate(126.000000, 15.000000)">
                    <path d="M12,35 L13,35 C13.5522847,35 14,35.4477153 14,36 L14,46 C14,46.5522847 13.5522847,47 13,47 L1,47 C0.44771525,47 6.76353751e-17,46.5522847 0,46 L0,36 C-6.76353751e-17,35.4477153 0.44771525,35 1,35 L1,35 L2,35 L2,36 C2,36.5522847 2.44771525,37 3,37 L4,37 C4.55228475,37 5,36.5522847 5,36 L5,35 L9,35 L9,36 C9,36.5522847 9.44771525,37 10,37 L11,37 C11.5522847,37 12,36.5522847 12,36 L12,35 Z M4.5,39 C4.22385763,39 4,39.2238576 4,39.5 C4,39.7761424 4.22385763,40 4.5,40 L11.5,40 C11.7761424,40 12,39.7761424 12,39.5 C12,39.2238576 11.7761424,39 11.5,39 L4.5,39 Z M2.5,41 C2.22385763,41 2,41.2238576 2,41.5 C2,41.7761424 2.22385763,42 2.5,42 L11.5,42 C11.7761424,42 12,41.7761424 12,41.5 C12,41.2238576 11.7761424,41 11.5,41 L2.5,41 Z M2.5,43 C2.22385763,43 2,43.2238576 2,43.5 C2,43.7761424 2.22385763,44 2.5,44 L11.5,44 C11.7761424,44 12,43.7761424 12,43.5 C12,43.2238576 11.7761424,43 11.5,43 L2.5,43 Z M3.5,33 C3.77614237,33 4,33.2238576 4,33.5 L4,35.5 C4,35.7761424 3.77614237,36 3.5,36 C3.22385763,36 3,35.7761424 3,35.5 L3,33.5 L3,33.5 C3,33.2238576 3.22385763,33 3.5,33 Z M10.5,33 C10.7761424,33 11,33.2238576 11,33.5 L11,35.5 C11,35.7761424 10.7761424,36 10.5,36 C10.2238576,36 10,35.7761424 10,35.5 L10,33.5 L10,33.5 C10,33.2238576 10.2238576,33 10.5,33 Z" id="icon_birth"></path>
                </g>
            </g>
        </g>
    </g>
</svg>