<?xml version="1.0" standalone="no"?><!DOCTYPE svg PUBLIC "-//W3C//DTD SVG 1.1//EN" "http://www.w3.org/Graphics/SVG/1.1/DTD/svg11.dtd"><svg class="icon" width="200px" height="121.76px" viewBox="0 0 1682 1024" version="1.1" xmlns="http://www.w3.org/2000/svg"><path fill="#8a8a8a" d="M1415.8201030158996 213.44810278892515c0-53.534807367324845-39.268275890350345-96.95591528892518-87.83098460197448-96.95591528892518H204.32317210197448C155.81696461677552 116.4921875 116.4921875 159.9132954216003 116.4921875 213.44810278892515v596.9342915153503c0 53.5630583667755 39.32477711677551 97.01241651535034 87.83098460197448 97.09716796875001h1123.694196538925c48.53445848464966 0 87.83098460197448-43.505859375 87.83098537445068-97.09716796875001l-0.028250999450683593-596.9342915153503zM942.3972514533997 395.5794504451752h134.78341260910034V351.3390766716003H964.2914338207244v-33.05315334320069H1077.237165288925V280.6561799144745h36.075962390899655v37.629743413925176h112.88923024177552v33.08140357017516h-112.88923024177552v44.212123546600345h123.03118068695069v23.391462163925173a636.7675781250001 636.7675781250001 0 0 1-33.05315334320069 96.61690793037415l-35.65220435142517-10.170200672149658c11.526227788925173-20.99016428947449 21.583426008224485-46.27441406250001 30.030343523025515-75.76799632072448h-255.30029296874994V395.5794504451752z m45.37039675712586 72.71693627357483l17.26109029769897-24.408481922149655c26.753278570175166 13.560268077850342 51.21826171875001 29.493582258224485 73.22544653892517 47.79994408607484l-17.76960056304932 26.442522211074827a315.7282368278503 315.7282368278503 0 0 0-72.71693627357483-49.833984375z m52.85679342269896 77.80203660964968l-18.249859828948974 27.96805300712585c-25.764509038925173-22.74169921875-51.500767078399655-40.511300554275515-77.23702589035034-53.42180568695068l17.713100109100342-25.397251453399655a349.91141160964963 349.91141160964963 0 0 1 77.77378561019897 50.851004133224485z m-196.25662645339966-256.2890625a607.6695036792755 607.6695036792755 0 0 1 84.92117723464965 76.27650658607485l-24.88874118804932 25.425502452850342c-20.368652343749996-24.09772633552551-48.84521484375-49.66448069572449-85.40143727302552-76.81326707839968l25.369001226425173-24.88874196052551z m-135.29192210197448 426.6116770076751c-11.187221202850344 10.480957031249998-26.781528797149655 16.272321538925173-46.782924327850345 17.261091070175173H381.59542432785037c-38.30775658607483 0-57.46163526535034-20.029645757675173-57.46163526535034-60.032436046600345v-267.9847931957245h36.612722883224485v73.22544653892517h278.15499464035037V346.2539763355255H296.6742463207245v-35.59570312499999h379.34849341392515l0.028250999450683593 203.40401730537417H360.74651194572454v152.52476294517518c0 20.961914062499996 10.339704351425171 31.471121320724485 31.019113054275508 31.47112209320068h260.3571430778503c11.526227788925173 0 20.848911609649658-2.994558820724488 27.968052234649658-9.124930686950684 9.463937273025513-9.520437726974487 15.424804687499996-41.98032935142517 17.797851562499996-97.60567823410034l35.59570312499999 11.187221202850344c-5.085100336074829 62.716238508224485-13.221261491775511 100.68498850822449-24.408481922149655 113.90625z m133.68164062500003-17.76960056304932c7.514648437499998-6.469377679824829 11.187221202850344-13.532017078399658 11.187220430374145-21.357421874999996v-202.92375881195068h-71.67166551589966v-35.087192859649655h107.32386986732482v220.18484910964963c7.768903570175172-7.768903570175172 21.187918195724492-21.78117991447449 40.17229396820069-42.20633348464966l10.141950445175171 38.646763172149655a672.5892853832246 672.5892853832246 0 0 1-82.94363894462586 75.79624732017517l-14.210030250549318-33.053152570724485z m387.51290402412417 53.45005514144897c-44.09912109375001-38.25125535964966-89.10226026535035-69.32686964035034-135.23542087554932-93.05733761787414-3.757324218749999 6.469377679824829-7.345144758224488 11.695730695724487-10.706961936950684 15.79206150054932-26.753278570175166 32.85539866447449-70.11788526535034 58.45040479660035-130.15032053947448 76.81326785087585L934.3458425235748 721.0541291332244c58.30915211677553-17.006835937499996 99.32896216392515-40.17229319572449 123.03118068695069-69.69412645339966 8.842424554824829-13.249511718750002 15.792062273025513-26.30126953125 20.792410383224492-39.183523664474485H941.9734934139252v-33.56166283607483h145.43387254714966c2.3730468749999996-14.23828125 3.926827898025513-29.154575672149658 4.576590843200684-44.748884038925176v-86.95521752357483h35.59570312499999v86.95521752357483c-0.33900658607482914 13.899274663925173-1.723283929824829 28.81556908607483-4.096331577301025 44.748884038925176h123.59619140625v33.56166283607483h-131.25209252357482l-6.554129133224488 19.3798828125c52.91329542160034 26.131765851974485 100.03522633552551 55.90785424232484 141.36579196929932 89.49776730537414l-20.368652343749996 31.04736328125z"  /></svg>