<?xml version="1.0" standalone="no"?><!DOCTYPE svg PUBLIC "-//W3C//DTD SVG 1.1//EN" "http://www.w3.org/Graphics/SVG/1.1/DTD/svg11.dtd"><svg class="icon" width="200px" height="166.10px" viewBox="0 0 1233 1024" version="1.1" xmlns="http://www.w3.org/2000/svg"><path d="M202.07499 270h692.857143v507.142857H202.07499z" fill="#FFFFFF" /><path d="M529.789276 0C247.019276 0 17.789276 229.265714 17.789276 512s229.23 512 512 512 512-229.265714 512-512-229.23-512-512-512m319.048571 386.304286L490.547847 731.794286c-4.754286 4.754286-10.13 8.448571-15.908571 11.264285-22.527143 16.054286-53.978571 14.007143-74.167143-6.181428L246.616418 582.985714c-22.491429-22.455714-22.491429-58.917143 0-81.445714 22.491429-22.491429 58.952857-22.491429 81.444286 0l115.53 115.492857 323.767143-312.172857c22.491429-22.491429 58.952857-22.491429 81.48 0 22.491429 22.491429 22.491429 58.988571 0 81.444286m0 0z" fill="#47EA1B" /></svg>