<?xml version="1.0" encoding="UTF-8" standalone="no"?>
<svg width="18px" height="18px" viewBox="0 0 18 18" version="1.1" xmlns="http://www.w3.org/2000/svg" xmlns:xlink="http://www.w3.org/1999/xlink">
    <!-- Generator: Sketch 46.2 (44496) - http://www.bohemiancoding.com/sketch -->
    <title>icon_bt</title>
    <desc>Created with Sketch.</desc>
    <defs></defs>
    <g id="乐新人1.0.2" stroke="none" stroke-width="1" fill="none" fill-rule="evenodd">
        <g id="1-1-1" transform="translate(-15.000000, -85.000000)" fill="#66BD5C">
            <g id="标题" transform="translate(0.000000, 66.000000)">
                <path d="M24,37 C19.0294373,37 15,32.9705627 15,28 C15,23.0294373 19.0294373,19 24,19 C28.9705627,19 33,23.0294373 33,28 C33,32.9705627 28.9705627,37 24,37 Z M21,23 C20.4477153,23 20,23.4477153 20,24 L20,33 L22.0047201,31 L24,33 L26,31 L28,33 L28,24 C28,23.4477153 27.5522847,23 27,23 L21,23 Z M21.5,25 L26.5,25 C26.7761424,25 27,25.2238576 27,25.5 C27,25.7761424 26.7761424,26 26.5,26 L21.5,26 C21.2238576,26 21,25.7761424 21,25.5 C21,25.2238576 21.2238576,25 21.5,25 Z M21.5,27 L26.5,27 C26.7761424,27 27,27.2238576 27,27.5 C27,27.7761424 26.7761424,28 26.5,28 L21.5,28 C21.2238576,28 21,27.7761424 21,27.5 C21,27.2238576 21.2238576,27 21.5,27 Z M21.5,29 L26.5,29 C26.7761424,29 27,29.2238576 27,29.5 C27,29.7761424 26.7761424,30 26.5,30 L21.5,30 C21.2238576,30 21,29.7761424 21,29.5 C21,29.2238576 21.2238576,29 21.5,29 Z" id="icon_bt"></path>
            </g>
        </g>
    </g>
</svg>