<?xml version="1.0" encoding="UTF-8" standalone="no"?>
<svg width="78px" height="78px" viewBox="0 0 78 78" version="1.1" xmlns="http://www.w3.org/2000/svg" xmlns:xlink="http://www.w3.org/1999/xlink">
    <!-- Generator: Sketch 45.1 (43504) - http://www.bohemiancoding.com/sketch -->
    <title>im_fx_p</title>
    <desc>Created with Sketch.</desc>
    <defs>
        <polygon id="path-1" points="0.0705002941 2.03823529 3.88947382 2.03823529 3.88947382 0.0652688235 0.0705002941 0.0652688235 0.0705002941 2.03823529"></polygon>
        <polygon id="path-3" points="0.0610111765 2.03823529 3.87998471 2.03823529 3.87998471 0.0652688235 0.0610111765 0.0652688235"></polygon>
        <polygon id="path-5" points="0.109674302 0.0262705882 14.4679615 0.0262705882 14.4679615 11.5353926 0.109674302 11.5353926 0.109674302 0.0262705882"></polygon>
    </defs>
    <g id="乐助手-1.2" stroke="none" stroke-width="1" fill="none" fill-rule="evenodd">
        <g id="1-8-分析页-1" transform="translate(-147.000000, -264.000000)">
            <g id="饼图" transform="translate(92.000000, 207.000000)">
                <g id="im_fx_p" transform="translate(55.000000, 57.000000)">
                    <g id="Page-1" transform="translate(57.000000, 1.000000)">
                        <path d="M17.2119253,10.0576996 L16.4262385,15.1957976 C16.3168391,15.9107856 17.2186277,16.049805 17.3282433,15.333736 L18.1139302,10.1956381 C18.2233296,9.48086627 17.3213248,9.34163062 17.2119253,10.0576996" id="Fill-1" fill="#3C3C3B"></path>
                        <path d="M19.2416956,14.0543031 C19.1761857,13.7008089 19.0920822,13.3514226 18.9878716,13.0087386 C18.9340367,12.8316671 18.8598786,12.7043227 18.7679918,12.5458449 C18.7130758,12.4511474 18.2908286,12.0587364 18.3174218,11.9482559 C18.3621761,11.7625363 18.2670461,11.4881729 18.3189352,11.3035343 C18.4257402,10.923447 18.2869369,10.5956811 17.9327941,10.9640934 C17.6666465,11.2410513 17.7269675,11.5856811 17.7332374,11.8550718 C17.6402695,11.8786381 17.4065526,11.8585311 17.339313,11.9298785 C17.3332593,11.9337702 17.3272055,11.933554 17.3211518,11.9376619 C16.6420537,12.4111496 16.4401188,12.9877667 16.5417349,13.7983171 C16.5547072,13.9014466 16.5769762,14.0080354 16.6040018,14.1144079 C16.6139472,14.1193806 16.6230278,14.1269478 16.6325408,14.1340825 C16.6628094,14.1392714 16.6932942,14.1487844 16.723779,14.1719183 C16.9810623,14.3686643 17.2859105,14.5792474 17.4100118,14.8693938 C17.4201734,14.8925276 17.438767,14.9111212 17.4640629,14.9258231 C17.4748732,15.0133859 17.4867644,15.1009487 17.4984394,15.1895925 C17.5607063,15.663945 17.6236218,16.1380813 17.6863211,16.6122175 C17.7330212,16.9667928 17.7479393,17.4363888 18.2417502,17.378446 C18.4317939,17.3563931 18.6185945,17.3243949 18.8049627,17.2824512 C18.846474,17.2731544 18.8830125,17.2532636 18.9201997,17.2353187 C19.1472143,17.2647225 19.3830933,17.1587823 19.4012545,16.8643119 C19.4579,15.9363625 19.4137943,14.9820363 19.2416956,14.0543031" id="Fill-3" fill="#F4BC9E"></path>
                        <g id="Group-7" transform="translate(0.000000, 47.623130)" fill="#F4BC9E">
                            <path d="M2.10516076,2.86224376 C2.0480828,2.70679279 1.96722235,2.54896357 1.90884716,2.40648486 L1.85652569,2.27827564 C1.59967484,1.65063422 1.54302929,1.10817735 1.42714372,0.443781181 C1.47427628,0.310599262 1.40595569,0.130068576 1.22153332,0.127906532 C1.00446409,0.125095874 0.799934714,0.0922328033 0.592162271,0.0291011142 C0.497032329,0.000129722649 0.42265801,0.0336414069 0.373579608,0.0909355768 C0.293800179,0.0980703225 0.222885131,0.147797338 0.205588778,0.25416991 C0.0337062682,1.30059928 -0.101637695,2.39459361 0.102891681,3.4468605 C0.238884258,4.1469304 0.559515405,4.83316321 1.10608016,5.30600226 C1.18542718,5.37453906 1.24034311,5.34254081 1.32877071,5.34967555 C1.40725291,5.35637789 1.48162723,5.39832155 1.56140666,5.40718593 C1.82171678,5.43615732 1.91879256,5.12525537 1.71404698,4.97434469 C1.64680741,4.92483388 1.56767659,4.89391665 1.49892359,4.84656788 C1.2450996,4.67273953 1.22218194,4.33848751 1.25742326,4.05958381 C1.29850209,3.73549339 1.36876853,3.41788911 1.26780107,3.09682555 C1.17180631,2.79111251 1.636862,2.72149469 1.72269516,3.0254781 C1.75815268,3.15087666 1.77523283,3.28168033 1.77328699,3.41205159 C1.77263838,3.45788693 1.77004392,3.50480328 1.78517823,3.54782796 C1.81090656,3.62133746 2.04094805,3.69960346 2.06862222,3.59409571 C2.08678339,3.5251265 2.09867463,3.45831933 2.10753901,3.39821451 C2.11445755,3.31648924 2.12051128,3.23454777 2.126565,3.15239009 C2.12483537,3.05574671 2.11488996,2.95910334 2.10516076,2.86224376" id="Fill-5"></path>
                        </g>
                        <polygon id="Fill-8" fill="#F4BC9E" points="9.53106893 75.1178024 8.35145765 75.1178024 7.35432289 60.5782717 9.53106893 60.5782717"></polygon>
                        <polygon id="Fill-10" fill="#F4BC9E" points="11.0784872 75.1178024 12.2580985 75.1178024 13.2552332 60.5782717 11.0784872 60.5782717"></polygon>
                        <path d="M12.6668761,19.8167561 C11.7901672,19.4316961 9.54683023,19.2256533 7.90302807,19.8617267 L3.20382512,21.8162146 L6.44040521,35.7871276 L4.85562685,45.4860577 L15.590176,45.5863765 L13.9688591,35.6351359 L17.4011042,21.8162146 L12.6668761,19.8167561 Z" id="Fill-12" fill="#ECF1F9"></path>
                        <path d="M10.4236472,21.5284465 L10.1090698,21.5284465 C9.63082565,21.5284465 9.24317113,21.140792 9.24317113,20.6625478 L9.24317113,16.8895646 L11.3619744,16.8895646 L11.3619744,20.5901193 C11.3619744,21.1083613 10.941673,21.5284465 10.4236472,21.5284465" id="Fill-14" fill="#F4BC9E"></path>
                        <path d="M16.3425674,7.2709977 C16.4346705,7.67097587 16.4402918,8.08262908 16.3700254,8.48693133 C16.147551,9.76902351 15.5970946,12.9610655 15.5365573,13.5054682 C15.4604534,14.1899714 12.3410561,17.9162545 10.1645262,17.9162545 L10.3024647,17.9162545 C8.12593482,17.9162545 4.9315146,13.9618757 4.85562685,13.2773725 C4.79400859,12.7234568 4.27425317,9.57876363 4.07837198,8.40023336 C4.01934817,8.04500951 4.02107781,7.68740741 4.08485811,7.33326458 C4.35273538,5.84794025 5.48153863,2.21267922 10.1154478,2.21267922 C14.6860092,2.21267922 15.9921,5.74913483 16.3425674,7.2709977" id="Fill-16" fill="#F4BC9E"></path>
                        <polygon id="Fill-18" fill="#3C3C3B" points="13.1587196 45.4860793 11.3618447 45.4860793 9.58810366 45.4860793 7.45632813 45.4860793 4.85560523 45.4860793 7.35427965 60.5784447 13.2521199 60.5784447 15.5365357 45.4860793"></polygon>
                        <polygon id="Fill-20" fill="#E1A485" points="7.68256443 14.2094946 8.14545808 14.415105 10.3870655 14.2094946 12.371822 14.415105 12.9276835 14.2094946 12.5421911 14.569475 8.04254478 14.569475"></polygon>
                        <path d="M10.2228582,76.1620913 L7.76850568,76.1620913 L7.76850568,75.3085163 C7.76850568,74.6263914 8.32134037,74.0735567 9.0032491,74.0735567 C9.67694205,74.0735567 10.2228582,74.6194728 10.2228582,75.2929496 L10.2228582,76.1620913 Z" id="Fill-22" fill="#FF5E3B"></path>
                        <path d="M7.77155417,75.6773178 C7.77068935,75.7054244 7.7685273,75.7333147 7.7685273,75.7618537 L7.7685273,76.1620481 L10.2228798,76.1620481 L10.2228798,75.7406657 C10.2228798,75.7192614 10.2211502,75.6985058 10.2205016,75.6773178 L7.77155417,75.6773178 Z" id="Fill-24" fill="#49301A"></path>
                        <path d="M12.8365317,76.1620913 L10.3821792,76.1620913 L10.3821792,75.3085163 C10.3821792,74.6263914 10.9350139,74.0735567 11.6171388,74.0735567 C12.2906156,74.0735567 12.8365317,74.6194728 12.8365317,75.2929496 L12.8365317,76.1620913 Z" id="Fill-26" fill="#FF5E3B"></path>
                        <path d="M10.3852277,75.6773178 C10.3843629,75.7054244 10.3822009,75.7333147 10.3822009,75.7618537 L10.3822009,76.1620481 L12.8365534,76.1620481 L12.8365534,75.7406657 C12.8365534,75.7192614 12.8348237,75.6985058 12.8341751,75.6773178 L10.3852277,75.6773178 Z" id="Fill-28" fill="#49301A"></path>
                        <path d="M16.1332167,9.85922399 C16.1332167,9.85922399 16.3892027,9.31352405 16.6062719,9.65577564 C16.8231249,9.99802723 15.7267524,12.2677412 15.7267524,12.2677412 L16.1332167,9.85922399 Z" id="Fill-30" fill="#F4BC9E"></path>
                        <polygon id="Fill-32" fill="#FF5E3B" points="3.20393322 21.8161281 0.387654515 35.8633613 0.0073509501 48.3348968 2.13674823 48.3348968 2.6690435 35.7872574 4.85551874 28.9459011"></polygon>
                        <path d="M7.90309293,19.8618348 L3.20388998,21.8161065 L6.44025386,35.7872357 L4.8554755,45.4861658 L10.2357224,45.5363252 L9.76115367,22.9734487 C8.97849369,22.9851237 8.62089159,19.5840121 7.90309293,19.8618348" id="Fill-34" fill="#FF5E3B"></path>
                        <path d="M6.48857555,22.7404884 C6.64056725,22.9190733 7.56094945,23.4974201 7.68245633,23.7337315 C7.83596146,24.0323098 6.94844234,23.8576166 7.10432572,24.1384662 C8.76412701,27.1281408 8.73515562,27.6033581 8.86682411,28.4487174 C9.04000385,29.5602243 9.16626722,45.4862739 9.16626722,45.4862739 L10.2358305,45.5364333 L9.76126177,22.9733406 C8.97860179,22.9852318 8.62078349,19.5841202 7.90298483,19.8619429 C7.90298483,19.8619429 6.26199332,22.4743408 6.48857555,22.7404884" id="Fill-36" fill="#743337"></path>
                        <path d="M17.4011042,21.8161281 L12.6668761,19.8166697 C12.1730653,19.6000328 11.858704,23.0722757 10.8490294,23.08741 L10.2356575,45.5363468 L15.590176,45.5865062 L13.9688591,35.6352656 L17.4011042,21.8161281 Z" id="Fill-38" fill="#FF5E3B"></path>
                        <path d="M14.0765289,22.7404884 C13.9245372,22.9190733 13.004155,23.4974201 12.8826481,23.7337315 C12.729143,24.0323098 13.6166621,23.8576166 13.4607788,24.1384662 C11.8011937,27.1281408 11.8299489,27.6033581 11.6982804,28.4487174 C11.5251006,29.5602243 11.2053343,45.5364333 11.2053343,45.5364333 L10.2356575,45.5364333 L10.8038427,22.9733406 C11.5865027,22.9852318 11.944321,19.5841202 12.6621196,19.8619429 C12.6621196,19.8619429 14.3031112,22.4743408 14.0765289,22.7404884" id="Fill-40" fill="#743337"></path>
                        <path d="M9.24308465,19.3421226 C9.24308465,19.3421226 8.29459589,19.2882877 7.97331613,19.6272962 C7.65203637,19.9663047 9.80002722,23.562649 9.76111043,23.505571 C9.72240984,23.4487092 10.3050807,22.0608931 10.3050807,22.0608931 C10.3050807,22.0608931 9.24308465,20.8631206 9.24308465,19.3421226" id="Fill-42" fill="#FFFFFF"></path>
                        <path d="M11.3672282,19.3421226 C11.3672282,19.3421226 12.3157169,19.2882877 12.6369967,19.6272962 C12.9582765,19.9663047 10.7387219,23.4296832 10.7774225,23.3726053 C10.8163393,23.3155273 10.3050159,22.0608931 10.3050159,22.0608931 C10.3050159,22.0608931 11.3672282,20.8631206 11.3672282,19.3421226" id="Fill-44" fill="#FFFFFF"></path>
                        <path d="M16.3269358,7.2735273 C16.109218,5.89522415 15.267318,4.63432001 14.2762369,3.62205094 C14.5320068,3.07872924 14.4306069,2.41325206 14.1186239,1.90019898 C13.8064247,1.3871459 13.3089384,1.01051781 12.7779403,0.729884483 C11.4735791,0.0399761963 9.93269025,-0.123041932 8.47158082,0.0834332836 C7.70729821,0.191319287 6.91144976,0.423522828 6.3990453,1.00057241 C5.82242813,1.65048288 5.74394592,2.69129093 6.21700118,3.41989981 C6.14305927,3.30617629 5.10895356,4.29401426 5.02744449,4.38827938 C3.79551174,5.81544472 3.65411405,8.02354041 4.20932699,9.76333734 C4.3128889,10.0872115 4.44282776,10.4052482 4.49428441,10.7412299 C4.54595726,11.0774278 4.50985113,11.4438943 4.30726759,11.7169604 C4.2785124,11.755661 4.24629794,11.7932806 4.2296502,11.8386835 C4.17516669,11.9878646 4.33277971,12.1500179 4.49168995,12.1487206 C4.6506002,12.1474234 4.78745759,12.0326189 4.87847965,11.9022476 C5.20127284,11.4395702 5.09295443,10.814307 4.97123135,10.2634181 C4.85664301,9.74474376 4.74205467,9.22606936 4.62746633,8.70739497 C4.60735932,8.61658912 4.58963055,8.51367582 4.64260064,8.43735566 C4.69211145,8.365792 4.78594416,8.34352294 4.8711287,8.32622659 C7.18884003,7.85122549 9.4062325,6.89279132 11.340181,5.5302711 C11.5034153,5.41503415 11.7345378,5.29849997 11.8837189,5.43146568 C12.0179818,5.55102673 11.9613363,5.76939318 11.8906374,5.93478956 C11.7172415,6.34060525 11.5207117,6.73669173 11.3025614,7.12045457 C11.9157171,6.66447946 12.5816267,6.2794194 13.2825615,5.9756522 C13.4204999,5.91576357 13.6159487,5.87598196 13.6916202,6.00570461 C13.7266453,6.06580944 13.7186458,6.14061616 13.709349,6.20958537 C13.6682701,6.51551462 13.6271913,6.82144387 13.5861125,7.12737311 C14.5538434,7.07440303 15.5665449,7.72236766 15.7622099,8.67172125 C15.9481457,9.57415847 15.4180125,10.5351871 15.7003754,11.4125446 C15.736914,11.5256195 15.7931271,11.6421537 15.8977701,11.6985831 C16.002413,11.7550124 16.1624043,11.7145822 16.1894298,11.5986966 C16.2011048,11.5485372 16.1866192,11.4962157 16.1734307,11.4462725 C15.8819871,10.3347656 16.3632582,9.17634235 16.3809869,8.02743209 C16.3850948,7.77295949 16.3660688,7.52129756 16.3269358,7.2735273" id="Fill-46" fill="#E98D58"></path>
                        <path d="M7.04735586,10.0492461 C7.34377211,10.0492461 7.58375901,10.2894492 7.58375901,10.5856492 C7.58375901,10.6115937 7.57986733,10.6364572 7.57619186,10.6613208 L8.56813771,10.6613208 C8.63278283,10.6613208 8.67667233,10.5945136 8.64921437,10.5359222 C8.5037088,10.2267499 8.04686887,9.45230566 7.11524404,9.45230566 C6.14535104,9.45230566 5.68180878,10.3147451 5.56116671,10.5828385 C5.54430277,10.6200257 5.57240934,10.6613208 5.61327198,10.6613208 L6.51851986,10.6613208 C6.51484438,10.6364572 6.5107365,10.6115937 6.5107365,10.5856492 C6.5107365,10.2894492 6.75093961,10.0492461 7.04735586,10.0492461" id="Fill-48" fill="#FFFFFF"></path>
                        <path d="M7.58386711,10.5857357 C7.58386711,10.2893194 7.34366401,10.0493325 7.04746396,10.0493325 C6.75104771,10.0493325 6.5108446,10.2893194 6.5108446,10.5857357 C6.5108446,10.6116802 6.51495249,10.6363275 6.51841176,10.6614072 L7.57629996,10.6614072 C7.57975923,10.6363275 7.58386711,10.6116802 7.58386711,10.5857357" id="Fill-50" fill="#1D1A3A"></path>
                        <path d="M7.08134319,10.6512915 C7.08134319,10.4878788 6.96113354,10.3552402 6.81303351,10.3552402 C6.66493349,10.3552402 6.54472384,10.4878788 6.54472384,10.6512915 C6.54472384,10.665605 6.54688588,10.6792028 6.54861551,10.6930392 L7.07745151,10.6930392 C7.07939735,10.6792028 7.08134319,10.665605 7.08134319,10.6512915" id="Fill-52" fill="#FFFFFF"></path>
                        <path d="M13.2540441,10.0492461 C13.5504603,10.0492461 13.7906634,10.2894492 13.7906634,10.5856492 C13.7906634,10.6115937 13.7865556,10.6364572 13.7830963,10.6613208 L14.7748259,10.6613208 C14.8396873,10.6613208 14.8835768,10.5945136 14.8559026,10.5359222 C14.7106132,10.2267499 14.2535571,9.45230566 13.3221485,9.45230566 C12.3520393,9.45230566 11.8887132,10.3147451 11.7678549,10.5828385 C11.7512072,10.6200257 11.7793138,10.6613208 11.8201764,10.6613208 L12.7252081,10.6613208 C12.7217488,10.6364572 12.7176409,10.6115937 12.7176409,10.5856492 C12.7176409,10.2894492 12.9576278,10.0492461 13.2540441,10.0492461" id="Fill-54" fill="#FFFFFF"></path>
                        <path d="M13.7906634,10.5857357 C13.7906634,10.2893194 13.5504603,10.0493325 13.2540441,10.0493325 C12.9576278,10.0493325 12.7176409,10.2893194 12.7176409,10.5857357 C12.7176409,10.6116802 12.7217488,10.6363275 12.7252081,10.6614072 L13.7830963,10.6614072 C13.7865556,10.6363275 13.7906634,10.6116802 13.7906634,10.5857357" id="Fill-56" fill="#1D1A3A"></path>
                        <path d="M13.288053,10.6512915 C13.288053,10.4878788 13.1680596,10.3552402 13.0197434,10.3552402 C12.8716433,10.3552402 12.7516499,10.4878788 12.7516499,10.6512915 C12.7516499,10.665605 12.7535957,10.6792028 12.7553254,10.6930392 L13.2841614,10.6930392 C13.2861072,10.6792028 13.288053,10.665605 13.288053,10.6512915" id="Fill-58" fill="#FFFFFF"></path>
                        <path d="M9.79920565,12.5153385 C9.7674236,12.5153385 9.74947863,12.4790161 9.77001805,12.4548012 C9.88201194,12.3227003 10.1548619,12.0202304 10.3042592,12.0202304 C10.4696555,12.0202304 10.7327763,12.3218355 10.8404461,12.4541526 C10.8605531,12.4787999 10.8430406,12.5153385 10.8112585,12.5153385 L9.79920565,12.5153385 Z" id="Fill-60" fill="#E1A485"></path>
                        <path d="M4.33634708,9.85922399 C4.33634708,9.85922399 4.08036106,9.31352405 3.86329182,9.65577564 C3.6464388,9.99802723 4.74281138,12.2677412 4.74281138,12.2677412 L4.33634708,9.85922399 Z" id="Fill-62" fill="#F4BC9E"></path>
                        <path d="M15.1740258,10.6547914 C15.1740258,10.9899082 14.9018244,11.2621096 14.5669238,11.2621096 L11.9413374,11.2621096 C11.6064367,11.2621096 11.3340192,10.9899082 11.3340192,10.6547914 L11.3340192,9.7400305 C11.3340192,9.40491366 11.6064367,9.1327123 11.9413374,9.1327123 L14.5669238,9.1327123 C14.9018244,9.1327123 15.1740258,9.40491366 15.1740258,9.7400305 L15.1740258,10.6547914 Z M9.12916655,10.6547914 C9.12916655,10.9899082 8.85653278,11.2621096 8.52163214,11.2621096 L5.89604573,11.2621096 C5.5613613,11.2621096 5.28894373,10.9899082 5.28894373,10.6547914 L5.28894373,9.7400305 C5.28894373,9.40491366 5.5613613,9.1327123 5.89604573,9.1327123 L8.52163214,9.1327123 C8.85653278,9.1327123 9.12916655,9.40491366 9.12916655,9.7400305 L9.12916655,10.6547914 Z M14.5669238,8.90461664 L11.9413374,8.90461664 C11.4806058,8.90461664 11.1059235,9.27929889 11.1059235,9.7400305 L11.1059235,10.0835793 L9.3572622,10.0835793 L9.3572622,9.7400305 C9.3572622,9.27929889 8.98236375,8.90461664 8.52163214,8.90461664 L5.89604573,8.90461664 C5.43553033,8.90461664 5.06084808,9.27929889 5.06084808,9.7400305 L5.06084808,10.6547914 C5.06084808,11.115523 5.43553033,11.4904214 5.89604573,11.4904214 L8.52163214,11.4904214 C8.98236375,11.4904214 9.3572622,11.115523 9.3572622,10.6547914 L9.3572622,10.311675 L11.1059235,10.311675 L11.1059235,10.6547914 C11.1059235,11.115523 11.4806058,11.4904214 11.9413374,11.4904214 L14.5669238,11.4904214 C15.0274392,11.4904214 15.4021214,11.115523 15.4021214,10.6547914 L15.4021214,9.7400305 C15.4021214,9.27929889 15.0274392,8.90461664 14.5669238,8.90461664 L14.5669238,8.90461664 Z" id="Fill-64" fill="#961920"></path>
                        <polygon id="Fill-66" fill="#FF5E3B" points="17.4011042 21.8161281 16.0210714 27.3719329 17.9891802 34.7605026 21.0019887 34.2973927"></polygon>
                        <polygon id="Fill-68" fill="#FF5E3B" points="17.6271243 15.9734416 17.9890505 34.7605242 19.4810772 36.119369 21.0020752 34.2974144 19.6877686 15.72632"></polygon>
                    </g>
                    <g id="Page-1">
                        <path d="M3.57499676,24.1184382 C3.55733206,23.7760147 3.51815265,23.4809235 3.49822324,23.3756147 C3.24480265,22.0383059 1.73696147,21.0316441 0.816132059,20.1080971 C0.381308529,19.6719147 -0.294706176,20.3477029 0.140343824,20.7838853 C0.513340882,21.1582412 0.931632059,21.5187824 1.26409088,21.9275618 C0.911249706,22.3227529 1.02222029,23.0522147 1.08834971,23.5266706 C1.12435853,23.7837147 1.14428794,24.0665765 1.29602324,24.2833088 C1.61036441,24.7317206 2.46619676,25.48315 3.03214676,25.5556206 C3.68574088,25.6394147 3.59877618,24.5804382 3.57499676,24.1184382" id="Fill-1" fill="#F4BC9E"></path>
                        <path d="M28.1503621,52.2654938 C28.2103768,52.1028879 28.2950768,51.9373379 28.3559974,51.7880938 L28.4108032,51.6537968 C28.6798503,50.9963526 28.7391856,50.4281379 28.8605738,49.7321938 C28.8112032,49.5926879 28.8827679,49.403585 29.0759474,49.4013203 C29.3035503,49.3983762 29.517565,49.3639526 29.7349768,49.2978232 C29.8346238,49.2674762 29.9127562,49.3025791 29.9643915,49.3625938 C30.0479591,49.3700674 30.1217885,49.4221556 30.1401326,49.5335791 C30.3199503,50.6296968 30.4619474,51.7758644 30.2477062,52.8778703 C30.1052562,53.6111821 29.7691738,54.3299997 29.1968826,54.8252909 C29.1137679,54.8970821 29.0562444,54.8635644 28.9638444,54.8710379 C28.8814091,54.8780585 28.8035032,54.9219938 28.7201621,54.9312791 C28.4474915,54.9616262 28.3455797,54.6361879 28.5602738,54.477885 C28.6304797,54.4260232 28.7133679,54.3936379 28.7856121,54.3440409 C29.0512621,54.1619585 29.0752679,53.8120615 29.0383532,53.5196879 C28.9950974,53.1802085 28.9217209,52.8475232 29.0274826,52.5112144 C29.1280356,52.190985 28.6408974,52.1180615 28.551215,52.4364791 C28.5138474,52.5678321 28.4957297,52.7048468 28.4977679,52.8414085 C28.4986738,52.8894203 28.5016179,52.9385644 28.4855385,52.9836321 C28.4585885,53.0606321 28.2178503,53.1426144 28.1886356,53.0320968 C28.1696121,52.9598526 28.1571562,52.8898732 28.1478709,52.8269144 C28.1406238,52.7413085 28.1342826,52.6554762 28.1279415,52.5694174 C28.1297532,52.4684115 28.1401709,52.3669526 28.1503621,52.2654938" id="Fill-3" fill="#F4BC9E"></path>
                        <path d="M17.3897026,19.9367041 C18.3080409,19.53336 20.6581262,19.3175335 22.3797556,19.9840365 L27.3020938,22.0311041 L25.572085,46.8251041 L14.3275938,46.92996 L12.4309026,22.0311041 L17.3897026,19.9367041 Z" id="Fill-5" fill="#ECF1F9"></path>
                        <path d="M19.7395615,21.7297624 L20.0690762,21.7297624 C20.5700291,21.7297624 20.9760909,21.3237006 20.9760909,20.8225212 L20.9760909,16.8706094 L18.7566791,16.8706094 L18.7566791,20.74688 C18.7566791,21.28973 19.1967115,21.7297624 19.7395615,21.7297624" id="Fill-7" fill="#F4BC9E"></path>
                        <path d="M13.5394762,6.79531794 C13.4429997,7.21406206 13.4371115,7.64526206 13.5107144,8.06898853 C13.7435262,9.41195912 14.3203468,12.7553444 14.383985,13.3258238 C14.4634762,14.0426032 17.7309938,17.9460503 20.0108732,17.9460503 L19.866385,17.9460503 C22.1462644,17.9460503 25.4921409,13.8036768 25.572085,13.0868974 C25.6364026,12.5066797 26.1808379,9.21243853 26.3860203,7.97794735 C26.4478468,7.60608265 26.446035,7.23150029 26.3792262,6.86054147 C26.0986291,5.30446206 24.9162262,1.49681206 20.0622821,1.49681206 C15.2746938,1.49681206 13.906585,5.200965 13.5394762,6.79531794" id="Fill-9" fill="#F4BC9E"></path>
                        <polygon id="Fill-11" fill="#575756" points="20.2769762 76.3694606 23.5381526 76.3694606 25.572085 46.8250135 20.2769762 46.8250135"></polygon>
                        <polygon id="Fill-13" fill="#3C3C3B" points="20.2769762 76.3694606 22.2348144 76.3694606 23.4552644 46.8250135 20.2769762 46.8250135"></polygon>
                        <polygon id="Fill-15" fill="#575756" points="19.6789579 76.3694606 16.417555 76.3694606 14.3838491 46.8250135 19.6789579 46.8250135"></polygon>
                        <polygon id="Fill-17" fill="#3C3C3B" points="19.6789579 76.3694606 17.7211197 76.3694606 16.5004432 46.8250135 19.6789579 46.8250135"></polygon>
                        <g id="Group-21" transform="translate(15.852941, 74.935494)">
                            <mask id="mask-2" fill="white">
                                <use xlink:href="#path-1"></use>
                            </mask>
                            <g id="Clip-20"></g>
                            <path d="M3.88947382,2.03828059 L0.0705002941,2.03828059 L0.0705002941,1.66890706 C0.0705002941,0.783180588 0.788412059,0.0652688235 1.67413853,0.0652688235 L2.305765,0.0652688235 C3.18039441,0.0652688235 3.88947382,0.774121765 3.88947382,1.64875118 L3.88947382,2.03828059 Z" id="Fill-19" fill="#84694E" mask="url(#mask-2)"></path>
                        </g>
                        <g id="Group-26" transform="translate(19.929412, 74.935494)">
                            <mask id="mask-4" fill="white">
                                <use xlink:href="#path-3"></use>
                            </mask>
                            <g id="Clip-25"></g>
                            <path d="M3.87998471,2.03828059 L0.0610111765,2.03828059 L0.0610111765,1.66890706 C0.0610111765,0.783180588 0.778922941,0.0652688235 1.66464941,0.0652688235 L2.29650235,0.0652688235 C3.17090529,0.0652688235 3.87998471,0.774121765 3.87998471,1.64875118 L3.87998471,2.03828059 Z" id="Fill-24" fill="#84694E" mask="url(#mask-4)"></path>
                        </g>
                        <polygon id="Fill-29" fill="#3C3C3B" points="27.3008709 22.0309909 30.2506503 36.7452379 30.6490121 49.8089674 28.4187297 49.8089674 27.8611591 36.6655203 26.6398032 31.5040291"></polygon>
                        <path d="M22.3798009,19.9840138 L27.3019126,22.0310815 L25.5721303,46.8250815 L19.9364097,46.8776226 L20.4332862,23.2431521 C21.2531097,23.2556079 21.6279185,19.6929991 22.3798009,19.9840138" id="Fill-31" fill="#3C3C3B"></path>
                        <path d="M23.8613488,22.9992432 C23.70214,23.1863079 22.7380547,23.7921168 22.6107782,24.0398756 C22.4499841,24.352405 23.3796459,24.1694168 23.2163606,24.4636021 C21.4779724,27.5952374 21.5078665,28.0932462 21.3701724,28.9785197 C21.1887694,30.142805 21.0565106,46.8250815 21.0565106,46.8250815 L19.9363871,46.8776226 L20.4332635,23.2431521 C21.2530871,23.2556079 21.6278959,19.6929991 22.3797782,19.9840138 C22.3797782,19.9840138 24.09869,22.7204579 23.8613488,22.9992432" id="Fill-33" fill="#575756"></path>
                        <path d="M12.4307894,22.0309909 L17.3895894,19.9365909 C17.9070747,19.7096674 18.2361365,23.346785 19.2939806,23.3626379 L19.9364776,46.8775321 L14.3277071,46.9300732 L12.4307894,22.0309909 Z" id="Fill-35" fill="#3C3C3B"></path>
                        <path d="M15.913205,22.9992432 C16.0721874,23.1863079 17.0364991,23.7921168 17.1637756,24.0398756 C17.3243432,24.352405 16.3946815,24.1694168 16.5579668,24.4636021 C18.2965815,27.5952374 18.2664609,28.0932462 18.4043815,28.9785197 C18.5857844,30.142805 18.9205079,46.8776226 18.9205079,46.8776226 L19.936455,46.8776226 L19.3412903,23.2431521 C18.5212403,23.2556079 18.1466579,19.6929991 17.3947756,19.9840138 C17.3947756,19.9840138 15.6758638,22.7204579 15.913205,22.9992432" id="Fill-37" fill="#575756"></path>
                        <path d="M20.9760682,19.4395332 C20.9760682,19.4395332 21.9695947,19.3831421 22.30613,19.7382479 C22.6426653,20.0933538 20.39268,23.8604656 20.4334447,23.8009038 C20.4739829,23.7411156 19.8636447,22.2874009 19.8636447,22.2874009 C19.8636447,22.2874009 20.9760682,21.0327538 20.9760682,19.4395332" id="Fill-39" fill="#FFFFFF"></path>
                        <path d="M18.7511759,19.4395332 C18.7511759,19.4395332 17.7576494,19.3831421 17.4211141,19.7382479 C17.0845788,20.0933538 19.4092994,23.7211862 19.3687612,23.6613979 C19.3282229,23.6016097 19.8635994,22.2874009 19.8635994,22.2874009 C19.8635994,22.2874009 18.7511759,21.0327538 18.7511759,19.4395332" id="Fill-41" fill="#FFFFFF"></path>
                        <polygon id="Fill-43" fill="#3C3C3B" points="12.4307894 22.0309909 10.0098188 33.422235 3.89284824 23.6620321 1.56291882 24.8562115 9.26971294 37.7607321 11.3437306 37.8350144 13.2829982 32.0296674"></polygon>
                        <g id="Group-47" transform="translate(12.455882, 0.200200)">
                            <mask id="mask-6" fill="white">
                                <use xlink:href="#path-5"></use>
                            </mask>
                            <g id="Clip-46"></g>
                            <path d="M14.4659221,7.58370735 C14.3606132,6.18774265 13.9040485,4.78996618 13.1075515,3.63383382 C12.9152779,3.35504853 12.8683985,3.04863382 12.7021691,2.76848971 C12.5773838,2.558325 12.4000574,2.373525 12.2191074,2.21069265 C11.7781691,1.81346324 11.2382632,1.50251912 10.7083221,1.23913382 C10.7244015,1.24728676 10.6960926,0.901013235 10.6621221,0.844395588 C10.5882926,0.720289706 10.4481074,0.639892647 10.3126779,0.600486765 C10.1459956,0.551795588 9.969575,0.553607353 9.79587206,0.549983824 C9.40475735,0.541377941 9.00730147,0.501066176 8.63702206,0.369486765 C8.260175,0.235869118 7.91911029,0.0252514706 7.50466912,0.0261573529 C7.35021618,0.0266102941 7.19848088,0.0621661765 7.04810441,0.0972691176 C5.69562206,0.414327941 4.25073971,0.742257353 3.15009265,1.64134559 C2.43444559,2.22586618 1.84766029,2.85545441 1.41646029,3.682525 C0.945854412,4.58546324 0.761280882,5.54932206 0.554286765,6.53605441 C0.503783824,6.77679265 0.285013235,6.88006324 0.174948529,7.08162206 C0.0411044118,7.32779559 0.123766176,7.66886029 0.325777941,7.85615147 C0.457583824,7.97799265 0.636495588,8.03868676 0.814727941,8.05793676 C1.122275,8.09100147 1.38362206,8.01354853 1.67803382,7.95964853 C2.42402794,7.82240735 3.09370147,7.30333676 3.75726029,6.79445735 C3.86687206,6.74440735 3.978975,6.69911324 4.08609559,6.64408088 C4.70934265,6.32317206 5.23769853,5.88970735 5.93069853,5.72596912 C6.09579559,5.68701618 6.21469265,5.80025147 6.23326324,5.95628971 C6.24956912,6.09217206 6.20971029,6.62233971 6.39586912,6.67352206 C6.45429853,6.68960147 6.73263088,6.40900441 6.79876029,6.36665441 C7.06508971,6.196575 7.25509853,6.07971618 7.58053676,6.04551912 C8.13131324,5.98799559 8.645175,6.21491912 9.09517206,6.52042794 C9.45095735,6.64204265 9.80991324,6.70975735 10.2205044,6.48894853 C10.8145368,6.16939853 11.3623691,5.56789265 12.0816397,5.73366912 C12.1534309,5.75020147 12.2018956,5.815425 12.2408485,5.87793088 C12.9805015,7.06599559 12.3513662,8.51653971 12.6043338,9.79541912 C12.7232309,10.3957926 12.8677191,10.9778221 13.0921515,11.5353926 C13.1478632,11.5240691 13.1994985,11.5193132 13.2592868,11.5011956 C13.2823868,11.494175 13.3025426,11.4957603 13.3233779,11.4950809 C13.3485162,11.3367779 13.3752397,11.1705485 13.4024162,11.0006956 C13.4044544,10.9925426 13.4096632,10.9873338 13.411475,10.978275 C13.5369397,10.2861809 13.7269485,9.62035735 14.0988132,9.02858971 C14.1037956,9.02338088 14.1087779,9.01839853 14.1135338,9.01341618 C14.1253103,9.04625441 14.1361809,9.07909265 14.1434279,9.11759265 C14.146825,9.13525735 14.158375,9.14114559 14.1638103,9.15541324 C13.9828603,8.68548676 14.5044221,8.09281324 14.4659221,7.58370735" id="Fill-45" fill="#3C3C3B" mask="url(#mask-6)"></path>
                        </g>
                        <path d="M16.4798344,9.71058324 C16.7436726,9.71058324 16.9574609,9.92437147 16.9574609,10.1882097 C16.9574609,10.2113097 16.9540638,10.2335038 16.9506668,10.2556979 L17.8339021,10.2556979 C17.8914256,10.2556979 17.930605,10.1961362 17.9061462,10.1440479 C17.776605,9.86865971 17.3696374,9.17905676 16.5405285,9.17905676 C15.6765432,9.17905676 15.2641403,9.94679206 15.1565668,10.1857185 C15.1416197,10.2187832 15.1665315,10.2556979 15.2029932,10.2556979 L16.0090021,10.2556979 C16.005605,10.2335038 16.0022079,10.2113097 16.0022079,10.1882097 C16.0022079,9.92437147 16.2159962,9.71058324 16.4798344,9.71058324" id="Fill-48" fill="#FFFFFF"></path>
                        <path d="M16.9575515,10.1882776 C16.9575515,9.92443941 16.7437632,9.71065118 16.479925,9.71065118 C16.2160868,9.71065118 16.0020721,9.92443941 16.0020721,10.1882776 C16.0020721,10.2113776 16.0056956,10.2333453 16.0090926,10.2555394 L16.9507574,10.2555394 C16.9539279,10.2333453 16.9575515,10.2113776 16.9575515,10.1882776" id="Fill-50" fill="#1D1A3A"></path>
                        <path d="M21.8569709,9.71058324 C22.1208091,9.71058324 22.3345974,9.92437147 22.3345974,10.1882097 C22.3345974,10.2113097 22.3312003,10.2335038 22.3280297,10.2556979 L23.2110385,10.2556979 C23.2687885,10.2556979 23.3077415,10.1961362 23.2832826,10.1440479 C23.1539679,9.86865971 22.7470003,9.17905676 21.917665,9.17905676 C21.0539062,9.17905676 20.6412768,9.94679206 20.5339297,10.1857185 C20.5189826,10.2187832 20.5438944,10.2556979 20.5801297,10.2556979 L21.3861385,10.2556979 C21.3829679,10.2335038 21.3793444,10.2113097 21.3793444,10.1882097 C21.3793444,9.92437147 21.5931326,9.71058324 21.8569709,9.71058324" id="Fill-54" fill="#FFFFFF"></path>
                        <path d="M22.3346653,10.1882776 C22.3346653,9.92443941 22.1208771,9.71065118 21.8570388,9.71065118 C21.5932006,9.71065118 21.3791859,9.92443941 21.3791859,10.1882776 C21.3791859,10.2113776 21.3830359,10.2333453 21.3862065,10.2555394 L22.3280976,10.2555394 C22.3310418,10.2333453 22.3346653,10.2113776 22.3346653,10.1882776" id="Fill-56" fill="#1D1A3A"></path>
                        <path d="M19.5172806,12.2885659 C19.5505718,12.2885659 19.5693688,12.2505188 19.5480806,12.2251541 C19.4305424,12.0867806 19.1447365,11.7699482 18.9882453,11.7699482 C18.8149953,11.7699482 18.5393806,12.0858747 18.4265982,12.2247012 C18.4057629,12.2502924 18.4238806,12.2885659 18.4571718,12.2885659 L19.5172806,12.2885659 Z" id="Fill-60" fill="#E1A485"></path>
                        <path d="M26.1158862,9.50644265 C26.1158862,9.50644265 26.3838009,8.93483088 26.6114038,9.29310735 C26.8385538,9.65161029 25.689895,12.029325 25.689895,12.029325 L26.1158862,9.50644265 Z" id="Fill-64" fill="#F4BC9E"></path>
                        <path d="M24.1645703,10.4621938 C24.1645703,10.8132232 23.8794438,11.0983497 23.5286409,11.0983497 L20.7783821,11.0983497 C20.4275791,11.0983497 20.1422262,10.8132232 20.1422262,10.4621938 L20.1422262,9.50399676 C20.1422262,9.15296735 20.4275791,8.86784088 20.7783821,8.86784088 L23.5286409,8.86784088 C23.8794438,8.86784088 24.1645703,9.15296735 24.1645703,9.50399676 L24.1645703,10.4621938 Z M17.8324526,10.4621938 C17.8324526,10.8132232 17.5470997,11.0983497 17.1962968,11.0983497 L14.4460379,11.0983497 C14.095235,11.0983497 13.8101085,10.8132232 13.8101085,10.4621938 L13.8101085,9.50399676 C13.8101085,9.15296735 14.095235,8.86784088 14.4460379,8.86784088 L17.1962968,8.86784088 C17.5470997,8.86784088 17.8324526,9.15296735 17.8324526,9.50399676 L17.8324526,10.4621938 Z M23.5286409,8.62891441 L20.7783821,8.62891441 C20.2957732,8.62891441 19.9032997,9.02138794 19.9032997,9.50399676 L19.9032997,9.86385853 L18.0716056,9.86385853 L18.0716056,9.50399676 C18.0716056,9.02138794 17.6789056,8.62891441 17.1962968,8.62891441 L14.4460379,8.62891441 C13.9636556,8.62891441 13.5711821,9.02138794 13.5711821,9.50399676 L13.5711821,10.4621938 C13.5711821,10.9448026 13.9636556,11.3372762 14.4460379,11.3372762 L17.1962968,11.3372762 C17.6789056,11.3372762 18.0716056,10.9448026 18.0716056,10.4621938 L18.0716056,10.102785 L19.9032997,10.102785 L19.9032997,10.4621938 C19.9032997,10.9448026 20.2957732,11.3372762 20.7783821,11.3372762 L23.5286409,11.3372762 C24.0110232,11.3372762 24.4037232,10.9448026 24.4037232,10.4621938 L24.4037232,9.50399676 C24.4037232,9.02138794 24.0110232,8.62891441 23.5286409,8.62891441 L23.5286409,8.62891441 Z" id="Fill-66" fill="#43756A"></path>
                    </g>
                </g>
            </g>
        </g>
    </g>
</svg>