<?xml version="1.0" encoding="UTF-8" standalone="no"?>
<svg width="72px" height="72px" viewBox="0 0 72 72" version="1.1" xmlns="http://www.w3.org/2000/svg" xmlns:xlink="http://www.w3.org/1999/xlink">
    <!-- Generator: Sketch 45.1 (43504) - http://www.bohemiancoding.com/sketch -->
    <title>im_uap</title>
    <desc>Created with Sketch.</desc>
    <defs>
        <rect id="path-1" x="0" y="0" width="72" height="72"></rect>
        <linearGradient x1="-49.8645524%" y1="50%" x2="113.509127%" y2="50%" id="linearGradient-3">
            <stop stop-color="#FFCA3D" offset="0%"></stop>
            <stop stop-color="#FF5E3B" offset="100%"></stop>
        </linearGradient>
        <rect id="path-4" x="0" y="0" width="72" height="72"></rect>
    </defs>
    <g id="乐新人-1.2" stroke="none" stroke-width="1" fill="none" fill-rule="evenodd">
        <g id="1-6-名片" transform="translate(-152.000000, -86.000000)">
            <g id="Group" transform="translate(10.000000, 86.000000)">
                <g id="im_uap" transform="translate(142.000000, 0.000000)">
                    <g id="Rectangle-35" fill-rule="nonzero" fill="#F7F7F7">
                        <rect id="path-1" x="0" y="0" width="72" height="72"></rect>
                    </g>
                    <g id="Combined-Shape-Clipped">
                        <mask id="mask-2" fill="white">
                            <use xlink:href="#path-1"></use>
                        </mask>
                        <g id="path-1"></g>
                        <path d="M44.1746773,65.8879491 L45.5348641,67.2488159 C49.6400892,71.3560928 56.2959744,71.3560928 60.4011995,67.2488159 C64.5064247,63.1415388 64.5064247,56.4823271 60.4011995,52.37505 L58.883026,50.8561177 L58.9136075,50.8255362 C56.9109025,48.9116281 55.6635166,46.2147021 55.6635166,43.226579 C55.6635166,40.2389647 56.9104778,37.5424482 58.9125847,35.6285994 L58.878758,35.5947727 L60.4011995,34.0715702 C64.5064247,29.9642933 64.5064247,23.3050814 60.4011995,19.1978045 C56.2959744,15.0905274 49.6400892,15.0905274 45.5348641,19.1978045 L44.1746773,20.5586711 C42.2530594,22.6543711 39.4931321,23.9681594 36.4265064,23.9681594 C33.4045841,23.9681594 30.6804835,22.692395 28.7629046,20.6498203 L27.3116142,19.1978045 C23.206389,15.0905274 16.5505039,15.0905274 12.4452787,19.1978045 C12.3308965,19.3122439 12.2197013,19.4286644 12.111693,19.5469556 C8.29700102,23.6703495 8.39373196,30.1055336 12.4018859,34.1116851 L13.7260534,35.4351912 C15.8493361,37.3585267 17.1829618,40.1368881 17.1829618,43.226579 C17.1829618,46.3475129 15.8222285,49.1507892 13.6613999,51.0760503 L12.4018859,52.3349351 C8.39373196,56.3410866 8.29700102,62.7762708 12.111693,66.8996647 C12.2197013,67.0179559 12.3308965,67.1343764 12.4452787,67.2488159 C16.5505039,71.3560928 23.206389,71.3560928 27.3116142,67.2488159 L28.7629046,65.7968 C30.6804835,63.7542252 33.4045841,62.4784608 36.4265064,62.4784608 C39.4931321,62.4784608 42.2530594,63.7922491 44.1746773,65.8879491 Z" id="Combined-Shape" fill="url(#linearGradient-3)" fill-rule="nonzero" opacity="0.5" mask="url(#mask-2)" transform="translate(36.400773, 43.223310) rotate(90.000000) translate(-36.400773, -43.223310) "></path>
                    </g>
                    <g id="eye-Clipped">
                        <mask id="mask-5" fill="white">
                            <use xlink:href="#path-4"></use>
                        </mask>
                        <g id="path-1"></g>
                        <g id="eye" mask="url(#mask-5)">
                            <g transform="translate(25.200000, 31.200000)" id="Group">
                                <g transform="translate(0.238776, 0.139285)">
                                    <path d="M11.7365502,19.217053 C15.1952952,19.217053 17.0903735,20.0693286 18.9761227,19.217053 C22.125816,17.7935302 23.4731004,14.3968822 23.4731004,10.700368 C23.4731004,4.79071793 18.2184679,0 11.7365502,0 C5.2546325,0 0,4.79071793 0,10.700368 C0,14.1174839 1.01058962,17.1221455 3.46002896,18.6635208 C5.24671441,19.7878404 8.27780513,19.217053 11.7365502,19.217053 Z" id="Oval-20-Copy" fill="#FFFFFF" fill-rule="nonzero"></path>
                                    <ellipse id="Oval-20-Copy-2" fill="#C7C7C7" fill-rule="nonzero" cx="11.8862224" cy="10.9703212" rx="5.61836525" ry="5.15016815"></ellipse>
                                    <circle id="Oval" fill="#FFFFFF" fill-rule="nonzero" cx="10.379166" cy="9.93146189" r="1.87278841"></circle>
                                    <circle id="Oval-Copy" fill="#FFFFFF" fill-rule="nonzero" cx="14.1334181" cy="13.685714" r="1.2"></circle>
                                </g>
                            </g>
                        </g>
                    </g>
                </g>
            </g>
        </g>
    </g>
</svg>