<?xml version="1.0" encoding="UTF-8" standalone="no"?>
<svg width="50px" height="50px" viewBox="0 0 50 50" version="1.1" xmlns="http://www.w3.org/2000/svg" xmlns:xlink="http://www.w3.org/1999/xlink">
    <!-- Generator: Sketch 45.1 (43504) - http://www.bohemiancoding.com/sketch -->
    <title>Group 3</title>
    <desc>Created with Sketch.</desc>
    <defs>
        <rect id="path-1" x="0" y="0" width="50" height="50" rx="6"></rect>
        <mask id="mask-2" maskContentUnits="userSpaceOnUse" maskUnits="objectBoundingBox" x="0" y="0" width="50" height="50" fill="white">
            <use xlink:href="#path-1"></use>
        </mask>
    </defs>
    <g id="Symbols" stroke="none" stroke-width="1" fill="none" fill-rule="evenodd">
        <g id="icon_uploadphoto" transform="translate(-11.000000, -11.000000)">
            <g id="Group-3">
                <g transform="translate(11.000000, 11.000000)">
                    <use id="Rectangle-595" stroke="#DCDCDC" mask="url(#mask-2)" stroke-width="2" stroke-dasharray="2,2" xlink:href="#path-1"></use>
                    <path d="M19.4806292,14.1666667 L17.9375326,18.9590804 L12.5,18.9590804 L12.5,35.8333333 L37.5,35.8333333 L37.5,18.9590804 L32.0615018,18.9590804 L30.5179223,14.1666667 L19.4806292,14.1666667 Z M14.4308021,20.9260058 L19.3362657,20.9260058 L20.8793623,16.1335921 L29.1191892,16.1335921 L30.6622859,20.9260058 L35.5687151,20.9260058 L35.5687151,33.8668997 L14.4308021,33.8668997 L14.4308021,20.9260058 Z" id="Fill-1" fill="#CBCBCB"></path>
                    <path d="M24.9997533,30.5269463 C22.871545,30.5269463 21.1399707,28.7946051 21.1399707,26.6656801 C21.1399707,24.5372484 22.871545,22.8063871 24.9997533,22.8063871 C27.128455,22.8063871 28.8600293,24.5372484 28.8600293,26.6656801 C28.8600293,28.7946051 27.128455,30.5269463 24.9997533,30.5269463 M24.9997533,20.8333333 C21.7832678,20.8333333 19.1666667,23.4496026 19.1666667,26.6656801 C19.1666667,29.8827442 21.7832678,32.5 24.9997533,32.5 C28.2162389,32.5 30.8333333,29.8827442 30.8333333,26.6656801 C30.8333333,23.4496026 28.2162389,20.8333333 24.9997533,20.8333333" id="Fill-2" fill="#CBCBCB"></path>
                </g>
            </g>
        </g>
    </g>
</svg>