<?xml version="1.0" encoding="UTF-8" standalone="no"?>
<svg width="375px" height="511px" viewBox="0 0 375 511" version="1.1" xmlns="http://www.w3.org/2000/svg" xmlns:xlink="http://www.w3.org/1999/xlink">
    <!-- Generator: Sketch 45.1 (43504) - http://www.bohemiancoding.com/sketch -->
    <title>lxr_bg_3</title>
    <desc>Created with Sketch.</desc>
    <defs>
        <linearGradient x1="31.822288%" y1="0%" x2="31.822288%" y2="100%" id="linearGradient-1">
            <stop stop-color="#FFCA78" offset="0%"></stop>
            <stop stop-color="#EE7074" offset="100%"></stop>
        </linearGradient>
        <rect id="path-2" x="0" y="0" width="375" height="508"></rect>
        <linearGradient x1="100%" y1="86.7709444%" x2="8.26832335%" y2="15.3142792%" id="linearGradient-4">
            <stop stop-color="#FF7967" offset="0%"></stop>
            <stop stop-color="#CC7E63" offset="18.1959503%"></stop>
            <stop stop-color="#D2484D" offset="49.1669324%"></stop>
            <stop stop-color="#FF9961" offset="76.0941486%"></stop>
            <stop stop-color="#F8BE6A" offset="100%"></stop>
        </linearGradient>
        <circle id="path-5" cx="30" cy="30" r="30"></circle>
        <filter x="-54.2%" y="-40.8%" width="208.3%" height="208.3%" filterUnits="objectBoundingBox" id="filter-6">
            <feOffset dx="0" dy="8" in="SourceAlpha" result="shadowOffsetOuter1"></feOffset>
            <feGaussianBlur stdDeviation="9.5" in="shadowOffsetOuter1" result="shadowBlurOuter1"></feGaussianBlur>
            <feColorMatrix values="0 0 0 0 0.823529412   0 0 0 0 0.141176471   0 0 0 0 0.141176471  0 0 0 0.3 0" type="matrix" in="shadowBlurOuter1"></feColorMatrix>
        </filter>
        <linearGradient x1="70.294911%" y1="95.7836525%" x2="25.5816677%" y2="10.6662269%" id="linearGradient-7">
            <stop stop-color="#520457" offset="0%"></stop>
            <stop stop-color="#CA4E65" offset="48.3284676%"></stop>
            <stop stop-color="#EE6469" offset="67.6827545%"></stop>
            <stop stop-color="#F8B38E" offset="86.9047752%"></stop>
            <stop stop-color="#FFE1AD" offset="100%"></stop>
        </linearGradient>
        <circle id="path-8" cx="266.5" cy="61.5" r="47.5"></circle>
        <filter x="-34.2%" y="-25.8%" width="168.4%" height="168.4%" filterUnits="objectBoundingBox" id="filter-9">
            <feOffset dx="0" dy="8" in="SourceAlpha" result="shadowOffsetOuter1"></feOffset>
            <feGaussianBlur stdDeviation="9.5" in="shadowOffsetOuter1" result="shadowBlurOuter1"></feGaussianBlur>
            <feColorMatrix values="0 0 0 0 0.823529412   0 0 0 0 0.141176471   0 0 0 0 0.141176471  0 0 0 0.3 0" type="matrix" in="shadowBlurOuter1"></feColorMatrix>
        </filter>
        <filter x="-8.6%" y="-155.4%" width="117.2%" height="410.8%" filterUnits="objectBoundingBox" id="filter-10">
            <feGaussianBlur stdDeviation="1" in="SourceGraphic"></feGaussianBlur>
        </filter>
        <filter x="-5.6%" y="-67.8%" width="111.3%" height="235.7%" filterUnits="objectBoundingBox" id="filter-11">
            <feGaussianBlur stdDeviation="1" in="SourceGraphic"></feGaussianBlur>
        </filter>
        <rect id="path-12" x="0" y="0.182222174" width="375" height="103.817778"></rect>
        <circle id="path-14" cx="196.82959" cy="101.82959" r="55.8295902"></circle>
        <filter x="-10.7%" y="-10.7%" width="121.5%" height="121.5%" filterUnits="objectBoundingBox" id="filter-15">
            <feOffset dx="0" dy="0" in="SourceAlpha" result="shadowOffsetOuter1"></feOffset>
            <feGaussianBlur stdDeviation="4" in="shadowOffsetOuter1" result="shadowBlurOuter1"></feGaussianBlur>
            <feColorMatrix values="0 0 0 0 0.588679766   0 0 0 0 0.902059958   0 0 0 0 1  0 0 0 1 0" type="matrix" in="shadowBlurOuter1"></feColorMatrix>
        </filter>
        <circle id="path-16" cx="62.8295902" cy="56.8295902" r="55.8295902"></circle>
        <filter x="-10.7%" y="-10.7%" width="121.5%" height="121.5%" filterUnits="objectBoundingBox" id="filter-17">
            <feOffset dx="0" dy="0" in="SourceAlpha" result="shadowOffsetOuter1"></feOffset>
            <feGaussianBlur stdDeviation="4" in="shadowOffsetOuter1" result="shadowBlurOuter1"></feGaussianBlur>
            <feColorMatrix values="0 0 0 0 0.588679766   0 0 0 0 0.902059958   0 0 0 0 1  0 0 0 1 0" type="matrix" in="shadowBlurOuter1"></feColorMatrix>
        </filter>
        <circle id="path-18" cx="264.82959" cy="123.82959" r="55.8295902"></circle>
        <filter x="-10.7%" y="-10.7%" width="121.5%" height="121.5%" filterUnits="objectBoundingBox" id="filter-19">
            <feOffset dx="0" dy="0" in="SourceAlpha" result="shadowOffsetOuter1"></feOffset>
            <feGaussianBlur stdDeviation="4" in="shadowOffsetOuter1" result="shadowBlurOuter1"></feGaussianBlur>
            <feColorMatrix values="0 0 0 0 0.588679766   0 0 0 0 0.902059958   0 0 0 0 1  0 0 0 1 0" type="matrix" in="shadowBlurOuter1"></feColorMatrix>
        </filter>
        <circle id="path-20" cx="363.866536" cy="128.866536" r="92.8665365"></circle>
        <filter x="-6.5%" y="-6.5%" width="112.9%" height="112.9%" filterUnits="objectBoundingBox" id="filter-21">
            <feOffset dx="0" dy="0" in="SourceAlpha" result="shadowOffsetOuter1"></feOffset>
            <feGaussianBlur stdDeviation="4" in="shadowOffsetOuter1" result="shadowBlurOuter1"></feGaussianBlur>
            <feColorMatrix values="0 0 0 0 0.588679766   0 0 0 0 0.902059958   0 0 0 0 1  0 0 0 1 0" type="matrix" in="shadowBlurOuter1"></feColorMatrix>
        </filter>
        <circle id="path-22" cx="391.678992" cy="134.324095" r="69.3240945"></circle>
        <filter x="-8.7%" y="-8.7%" width="117.3%" height="117.3%" filterUnits="objectBoundingBox" id="filter-23">
            <feOffset dx="0" dy="0" in="SourceAlpha" result="shadowOffsetOuter1"></feOffset>
            <feGaussianBlur stdDeviation="4" in="shadowOffsetOuter1" result="shadowBlurOuter1"></feGaussianBlur>
            <feColorMatrix values="0 0 0 0 0.588679766   0 0 0 0 0.902059958   0 0 0 0 1  0 0 0 1 0" type="matrix" in="shadowBlurOuter1"></feColorMatrix>
        </filter>
        <circle id="path-24" cx="439.501543" cy="64.5015435" r="64.5015435"></circle>
        <filter x="-9.3%" y="-9.3%" width="118.6%" height="118.6%" filterUnits="objectBoundingBox" id="filter-25">
            <feOffset dx="0" dy="0" in="SourceAlpha" result="shadowOffsetOuter1"></feOffset>
            <feGaussianBlur stdDeviation="4" in="shadowOffsetOuter1" result="shadowBlurOuter1"></feGaussianBlur>
            <feColorMatrix values="0 0 0 0 0.588679766   0 0 0 0 0.902059958   0 0 0 0 1  0 0 0 1 0" type="matrix" in="shadowBlurOuter1"></feColorMatrix>
        </filter>
        <circle id="path-26" cx="105.458252" cy="158.458252" r="104.541748"></circle>
        <filter x="-5.7%" y="-5.7%" width="111.5%" height="111.5%" filterUnits="objectBoundingBox" id="filter-27">
            <feOffset dx="0" dy="0" in="SourceAlpha" result="shadowOffsetOuter1"></feOffset>
            <feGaussianBlur stdDeviation="4" in="shadowOffsetOuter1" result="shadowBlurOuter1"></feGaussianBlur>
            <feColorMatrix values="0 0 0 0 0.588679766   0 0 0 0 0.902059958   0 0 0 0 1  0 0 0 1 0" type="matrix" in="shadowBlurOuter1"></feColorMatrix>
        </filter>
        <rect id="path-28" x="8" y="8" width="323" height="176"></rect>
        <rect id="path-29" x="24" y="23" width="22" height="22"></rect>
        <rect id="path-30" x="51" y="23" width="22" height="22"></rect>
        <rect id="path-31" x="78" y="23" width="22" height="22"></rect>
        <rect id="path-32" x="105" y="23" width="22" height="22"></rect>
        <rect id="path-33" x="8" y="8" width="323" height="44"></rect>
        <rect id="path-34" x="24" y="19" width="22" height="22"></rect>
        <rect id="path-35" x="51" y="19" width="22" height="22"></rect>
        <path d="M37.764,55.41 C38.128,55.878 38.518,56.398 38.934,56.944 C39.818,58.036 40.806,59.102 41.924,60.116 C42.912,60.974 43.822,61.598 44.68,62.066 C45.096,62.3 45.59,62.508 46.136,62.664 C46.552,62.768 46.916,62.82 47.28,62.82 C47.54,62.82 47.722,62.742 47.826,62.612 C47.982,62.456 48.086,62.274 48.086,62.014 C48.086,61.728 47.956,61.546 47.722,61.494 C46.526,61.026 45.434,60.454 44.446,59.726 C43.536,59.05 42.678,58.27 41.898,57.412 C41.3,56.788 40.702,56.112 40.13,55.384 C39.766,54.916 39.376,54.422 39.012,53.902 C38.882,53.746 38.778,53.59 38.7,53.486 C39.272,52.186 39.792,50.704 40.208,49.092 C40.494,47.818 40.65,46.674 40.65,45.66 C40.624,44.854 40.364,44.438 39.896,44.386 C39.688,44.386 39.506,44.412 39.376,44.412 C38.986,44.516 38.778,44.75 38.752,45.062 C38.726,46.154 38.596,47.324 38.336,48.624 C38.076,49.898 37.686,51.224 37.166,52.602 C36.672,53.772 36.204,54.838 35.788,55.774 C35.19,56.996 34.618,58.062 34.072,58.946 C33.76,59.466 33.5,59.908 33.266,60.272 C33.136,60.454 33.084,60.662 33.084,60.922 C33.11,61.286 33.292,61.468 33.63,61.52 C33.89,61.52 34.072,61.442 34.202,61.338 C34.514,61.078 34.878,60.662 35.294,59.986 C35.658,59.388 36.074,58.686 36.516,57.854 C36.932,57.022 37.348,56.19 37.764,55.41 Z M32.382,58.998 C32.356,58.426 32.122,58.14 31.706,58.088 C31.498,58.088 31.29,58.192 31.134,58.348 C30.458,59.388 30.016,59.986 29.782,60.09 C29.626,60.09 29.548,59.544 29.548,58.4 C29.548,57.438 29.574,56.164 29.678,54.552 C29.73,53.434 29.756,52.42 29.756,51.536 C29.756,50.184 29.288,49.482 28.404,49.482 C28.326,49.482 28.118,49.586 27.78,49.742 C26.818,50.184 25.908,50.6 25.076,50.964 C24.764,51.068 24.53,51.172 24.374,51.276 C24.01,51.484 23.854,51.848 23.854,52.368 C23.854,52.888 24.088,53.174 24.53,53.174 C24.738,53.174 25.076,53.07 25.492,52.862 C26.142,52.576 26.896,52.134 27.78,51.562 C27.91,51.562 27.988,51.718 27.988,52.004 C27.988,52.576 27.936,53.59 27.884,55.02 C27.78,56.84 27.728,57.984 27.728,58.452 C27.728,60.636 28.274,61.832 29.366,62.092 L29.678,62.092 C30.042,62.04 30.354,61.91 30.64,61.676 C31.186,61.156 31.628,60.662 31.992,60.09 C32.252,59.674 32.382,59.31 32.382,58.998 Z M26.22,44.334 C25.596,44.386 25.258,44.646 25.154,45.14 C25.154,45.764 25.31,46.128 25.674,46.232 C26.038,46.388 26.402,46.57 26.818,46.726 C27.182,46.882 27.65,47.09 28.274,47.35 C28.43,47.454 28.534,47.48 28.612,47.48 L28.768,47.48 C29.002,47.376 29.132,47.168 29.184,46.83 C29.184,46.466 29.106,46.18 28.976,45.946 C28.846,45.79 28.586,45.556 28.196,45.244 C27.858,45.036 27.52,44.854 27.208,44.698 C26.74,44.464 26.428,44.334 26.22,44.334 Z M63.166,40.252 C63.166,40.408 63.088,40.72 62.984,41.162 C63.946,40.98 64.83,40.772 65.662,40.564 C66.52,40.382 67.118,40.278 67.456,40.278 C67.638,40.278 67.82,40.33 68.028,40.434 C68.262,40.59 68.392,40.746 68.418,40.928 C68.418,41.24 68.288,41.552 68.028,41.812 C67.326,42.072 66.286,42.358 64.934,42.644 C63.972,42.852 63.036,43.008 62.1,43.164 C62.022,43.294 61.97,43.398 61.944,43.45 C61.632,44.1 61.32,44.672 61.008,45.192 C62.204,44.932 63.53,44.802 65.038,44.802 C66.312,44.854 66.962,45.374 66.988,46.362 C66.988,46.778 66.91,50.704 66.754,58.114 L66.754,58.192 C69.042,57.724 70.914,57.308 72.396,56.892 C72.63,56.892 72.812,56.996 72.916,57.152 C72.942,57.23 72.968,57.308 72.968,57.412 C72.968,57.672 72.838,57.906 72.604,58.14 C71.642,58.686 69.562,59.31 66.364,60.012 C66.65,60.324 67.04,60.714 67.508,61.234 C68.444,62.222 69.458,63.366 70.55,64.614 C70.68,64.822 70.758,65.056 70.758,65.316 C70.706,65.68 70.524,65.914 70.186,66.018 C69.9,66.018 69.64,65.914 69.432,65.758 C68.6,65.316 67.222,63.99 65.272,61.754 C64.96,61.442 64.752,61.182 64.622,60.922 C64.518,60.714 64.492,60.532 64.492,60.428 C64.024,60.532 63.53,60.61 63.062,60.688 C62.906,60.74 62.75,60.792 62.62,60.792 C62.49,61 62.334,61.208 62.178,61.416 C61.502,62.404 60.436,63.678 58.98,65.186 C58.59,65.628 58.2,65.94 57.784,66.148 C57.654,66.2 57.524,66.252 57.368,66.252 C56.952,66.2 56.77,65.992 56.77,65.628 C56.77,65.498 56.822,65.342 56.926,65.134 C57.29,64.562 57.966,63.756 58.954,62.664 C59.344,62.144 59.708,61.676 60.02,61.26 C58.304,61.572 56.666,61.858 55.106,62.118 C54.326,62.222 53.78,62.3 53.442,62.352 C53.13,62.378 52.87,62.404 52.61,62.404 C52.194,62.378 51.96,62.092 51.908,61.52 C51.908,61.26 52.116,61.026 52.532,60.818 C52.792,60.714 53.078,60.636 53.442,60.532 C54.898,60.324 56.354,60.116 57.758,59.856 C57.654,59.7 57.602,59.492 57.602,59.284 C57.55,58.036 57.524,56.242 57.524,53.928 C57.524,52.94 57.524,52.03 57.576,51.198 C57.576,50.366 57.628,49.482 57.706,48.546 C57.706,48.078 57.732,47.558 57.732,46.986 C57.706,46.83 57.68,46.674 57.654,46.466 C57.628,46.336 57.628,46.206 57.628,46.102 C57.628,45.946 57.732,45.79 57.888,45.66 C58.122,45.452 58.356,45.348 58.59,45.348 C58.876,45.348 59.11,45.478 59.292,45.686 C59.292,45.686 59.318,45.66 59.318,45.608 C59.526,45.14 59.734,44.62 59.968,44.1 C60.046,43.892 60.124,43.71 60.202,43.502 C59.136,43.71 58.07,43.892 57.03,44.048 C56.614,44.126 56.198,44.178 55.756,44.204 L55.548,44.204 C55.028,43.97 54.794,43.606 54.794,43.086 C54.794,42.852 54.95,42.618 55.21,42.41 C55.496,42.358 55.886,42.306 56.354,42.254 C57.992,42.02 59.526,41.786 60.93,41.526 C60.982,41.318 61.06,41.11 61.112,40.902 C61.216,40.486 61.294,40.096 61.372,39.784 C61.528,39.42 61.814,39.212 62.178,39.212 L62.542,39.212 C62.958,39.316 63.166,39.68 63.166,40.252 Z M59.136,59.622 C60.28,59.466 61.398,59.258 62.542,59.024 C63.4,58.868 64.232,58.686 65.012,58.53 C64.986,58.478 64.986,58.426 64.986,58.374 C64.986,58.166 64.986,57.854 65.038,57.464 C65.038,57.178 65.064,56.84 65.116,56.424 C64.18,56.84 62.88,57.282 61.19,57.698 C60.436,57.88 59.76,57.984 59.136,57.984 C59.136,58.452 59.136,58.92 59.162,59.388 C59.162,59.492 59.136,59.57 59.136,59.622 Z M59.136,56.71 C59.708,56.684 60.306,56.606 60.956,56.45 C62.568,56.138 63.998,55.722 65.194,55.176 C65.22,54.344 65.246,53.512 65.272,52.732 C64.284,53.2 62.984,53.668 61.32,54.136 C60.54,54.318 59.786,54.422 59.11,54.474 C59.11,55.254 59.11,55.982 59.136,56.71 Z M59.136,53.278 C59.734,53.226 60.384,53.096 61.112,52.94 C62.698,52.576 64.102,52.082 65.298,51.458 C65.298,50.912 65.324,50.366 65.324,49.794 L65.324,49.326 C64.856,49.534 64.336,49.742 63.738,49.924 C62.126,50.392 60.618,50.73 59.214,50.886 C59.188,51.12 59.162,51.302 59.162,51.458 C59.162,51.692 59.136,52.29 59.136,53.278 Z M59.344,49.638 C60.358,49.508 62.36,49.066 65.324,48.286 C65.298,47.662 65.272,47.09 65.272,46.622 C65.22,46.414 65.09,46.284 64.856,46.284 C63.972,46.284 62.776,46.518 61.268,46.934 C60.488,47.168 59.942,47.298 59.578,47.35 C59.552,47.792 59.5,48.364 59.422,49.04 C59.37,49.248 59.344,49.456 59.344,49.638 Z M85.084,46.18 C85.188,46.18 85.292,46.154 85.37,46.154 C85.656,46.154 85.89,46.284 86.046,46.518 C86.098,46.674 86.124,46.804 86.176,46.908 C86.176,47.22 86.046,47.48 85.812,47.662 C85.136,48.286 84.174,48.91 82.9,49.534 C82.926,50.054 82.952,50.444 82.952,50.756 C82.952,51.77 82.874,52.732 82.744,53.642 C82.692,54.162 82.614,54.578 82.51,54.89 C83.264,54.526 83.992,54.188 84.668,53.824 C85.448,53.33 85.942,53.044 86.124,52.94 C86.254,52.888 86.384,52.862 86.488,52.862 C86.748,52.888 86.93,52.992 87.086,53.2 C87.112,53.278 87.138,53.382 87.138,53.538 C87.112,53.798 87.008,54.032 86.826,54.266 C85.838,55.124 84.616,55.93 83.16,56.71 C81.444,57.646 79.78,58.374 78.194,58.842 C78.012,58.946 77.882,58.998 77.778,58.998 C77.544,58.998 77.336,58.868 77.154,58.582 C76.998,58.348 76.946,58.036 76.946,57.62 C76.946,57.308 77.128,57.1 77.466,56.944 C78.506,56.58 79.39,56.242 80.118,55.956 C80.274,55.904 80.43,55.852 80.586,55.748 C80.69,55.41 80.82,54.968 80.976,54.448 C81.08,53.304 81.132,52.394 81.132,51.666 C81.132,51.276 81.106,50.834 81.054,50.366 C80.976,50.392 80.898,50.418 80.846,50.444 C80.014,50.756 79.208,50.938 78.48,50.99 C78.142,50.99 77.856,50.886 77.596,50.626 C77.362,50.366 77.232,50.08 77.232,49.742 C77.232,49.274 77.44,49.014 77.856,48.936 C78.584,48.832 79.416,48.676 80.352,48.416 C80.508,48.364 80.638,48.338 80.768,48.286 C80.742,48.234 80.742,48.182 80.742,48.156 C80.612,47.584 80.482,47.064 80.378,46.544 C80.222,46.154 80.17,45.894 80.17,45.738 C80.17,45.4 80.326,45.114 80.664,44.906 C80.846,44.802 81.08,44.724 81.366,44.724 C81.782,44.724 82.068,45.01 82.25,45.53 C82.432,46.102 82.588,46.778 82.692,47.506 C83.576,47.116 84.356,46.674 85.084,46.18 Z M94.054,40.408 C94.054,40.564 94.002,40.824 93.95,41.188 C94.652,41.032 95.328,40.85 95.952,40.642 C96.732,40.434 97.278,40.33 97.59,40.33 C97.798,40.33 97.98,40.382 98.162,40.486 C98.422,40.642 98.552,40.798 98.578,40.98 C98.578,41.318 98.422,41.63 98.136,41.89 C97.512,42.202 96.576,42.488 95.328,42.774 C94.678,42.956 94.054,43.112 93.43,43.242 C93.378,43.346 93.352,43.476 93.326,43.58 C93.17,44.152 93.014,44.646 92.858,45.114 C93.638,44.958 94.47,44.854 95.38,44.854 C96.706,44.906 97.382,45.478 97.408,46.57 C97.408,46.986 97.33,50.834 97.174,58.062 L97.174,58.218 C98.76,57.88 100.112,57.542 101.204,57.204 C101.438,57.204 101.62,57.308 101.724,57.49 C101.776,57.568 101.802,57.646 101.802,57.75 C101.802,57.984 101.672,58.218 101.412,58.478 C100.684,58.998 99.124,59.596 96.758,60.246 C96.784,60.272 96.81,60.298 96.836,60.298 C97.096,60.558 97.486,60.948 98.006,61.52 C98.838,62.43 99.722,63.444 100.71,64.536 C100.892,64.796 100.996,65.056 100.996,65.342 C100.944,65.706 100.736,65.94 100.372,66.07 C100.06,66.07 99.774,65.966 99.566,65.81 C98.812,65.394 97.538,64.198 95.718,62.196 C95.458,61.884 95.25,61.624 95.146,61.416 C95.042,61.156 95.016,60.974 95.016,60.818 C95.016,60.766 95.016,60.714 95.042,60.688 C94.522,60.844 93.976,60.974 93.404,61.104 C93.3,61.312 93.17,61.52 93.014,61.754 C92.39,62.638 91.428,63.756 90.102,65.108 C89.764,65.524 89.4,65.81 89.036,66.018 C88.88,66.07 88.724,66.122 88.568,66.122 C88.126,66.07 87.918,65.836 87.918,65.42 C87.918,65.264 87.97,65.082 88.1,64.9 C88.438,64.38 89.01,63.652 89.816,62.716 C90.128,62.352 90.388,62.014 90.622,61.702 C89.244,62.014 87.918,62.326 86.67,62.586 C86.02,62.664 85.552,62.716 85.292,62.768 C84.876,62.82 84.538,62.872 84.252,62.872 C83.758,62.82 83.472,62.482 83.394,61.806 C83.394,61.494 83.654,61.208 84.174,60.948 C84.434,60.844 84.824,60.74 85.292,60.584 C86.488,60.402 87.658,60.194 88.828,59.96 C88.776,59.856 88.724,59.7 88.724,59.492 C88.672,58.192 88.672,56.372 88.672,54.032 C88.672,53.044 88.672,52.134 88.698,51.302 C88.698,50.47 88.75,49.586 88.828,48.598 C88.828,48.13 88.854,47.636 88.854,47.09 C88.828,46.908 88.802,46.726 88.776,46.518 C88.75,46.388 88.75,46.258 88.75,46.128 C88.75,45.946 88.854,45.764 89.036,45.608 C89.296,45.4 89.556,45.27 89.816,45.27 C90.154,45.27 90.44,45.452 90.648,45.816 C90.648,45.868 90.674,45.894 90.674,45.894 C90.778,45.842 90.856,45.816 90.934,45.764 L90.934,45.556 C91.064,45.088 91.194,44.62 91.35,44.1 C91.376,43.944 91.402,43.814 91.454,43.684 C90.362,43.944 89.244,44.178 88.126,44.386 C87.762,44.464 87.372,44.516 86.956,44.542 L86.748,44.542 C86.254,44.282 86.02,43.918 86.02,43.424 C86.02,43.164 86.176,42.956 86.436,42.748 C86.696,42.696 87.008,42.644 87.424,42.592 C89.036,42.306 90.544,41.994 91.896,41.682 C91.948,41.448 91.974,41.214 92.026,41.006 C92.078,40.59 92.104,40.226 92.156,39.914 C92.312,39.55 92.598,39.342 93.014,39.29 L93.352,39.29 C93.82,39.42 94.054,39.784 94.054,40.408 Z M90.414,59.648 C91.246,59.518 92.104,59.362 92.936,59.154 C93.82,58.972 94.626,58.79 95.406,58.608 C95.354,58.53 95.354,58.426 95.354,58.322 C95.354,58.114 95.354,57.802 95.38,57.438 C95.38,57.204 95.406,56.944 95.432,56.632 C94.626,56.944 93.56,57.282 92.26,57.594 C91.584,57.75 90.96,57.828 90.414,57.854 C90.414,58.452 90.414,59.024 90.44,59.57 C90.44,59.622 90.414,59.648 90.414,59.648 Z M90.388,56.372 C90.908,56.32 91.428,56.242 91.948,56.138 C93.326,55.878 94.522,55.566 95.562,55.15 C95.562,54.37 95.588,53.668 95.64,52.992 C94.808,53.382 93.69,53.772 92.338,54.136 C91.662,54.292 91.038,54.396 90.466,54.396 C90.414,54.396 90.388,54.396 90.362,54.37 C90.362,55.046 90.362,55.722 90.388,56.372 Z M90.388,53.044 C90.908,52.992 91.454,52.914 92.052,52.784 C93.43,52.472 94.626,52.03 95.666,51.51 C95.666,50.99 95.692,50.496 95.692,49.976 L95.692,49.456 C95.276,49.664 94.782,49.872 94.262,50.054 C92.884,50.496 91.61,50.782 90.466,50.938 C90.44,51.198 90.414,51.38 90.414,51.536 C90.414,51.744 90.388,52.264 90.388,53.044 Z M90.622,49.456 C91.558,49.326 93.248,48.91 95.666,48.234 C95.666,47.714 95.64,47.272 95.614,46.882 C95.562,46.648 95.432,46.518 95.198,46.518 C94.47,46.518 93.508,46.752 92.312,47.22 C91.584,47.506 91.116,47.662 90.856,47.662 C90.804,48.078 90.752,48.572 90.674,49.118 C90.648,49.274 90.622,49.378 90.622,49.456 Z M110.278,44.49 C110.278,45.14 110.174,45.894 109.966,46.752 C109.81,47.298 109.602,47.818 109.342,48.312 C109.186,48.624 109.03,48.858 108.848,49.04 C108.692,49.3 108.406,49.43 108.042,49.43 C107.626,49.404 107.444,49.196 107.444,48.78 C107.444,48.624 107.522,48.364 107.678,48 C107.912,47.48 108.094,46.882 108.25,46.258 C108.328,45.79 108.38,45.374 108.38,44.958 C108.38,44.074 108.224,43.372 107.964,42.852 C107.808,42.592 107.73,42.384 107.73,42.254 C107.73,41.864 107.834,41.578 108.094,41.37 C108.224,41.266 108.432,41.188 108.692,41.162 C108.952,41.162 109.16,41.24 109.316,41.37 C109.472,41.526 109.654,41.76 109.81,42.046 C109.862,42.202 109.914,42.332 109.966,42.462 C110.486,42.332 111.084,42.176 111.812,42.02 C112.93,41.76 114.126,41.526 115.374,41.318 C116.726,41.058 118.13,40.798 119.586,40.538 C120.834,40.33 122.238,40.122 123.746,39.862 C124.188,39.81 124.474,39.758 124.604,39.758 C125.202,39.758 125.514,40.044 125.54,40.59 C125.54,40.954 125.436,41.344 125.28,41.76 C124.682,43.216 123.954,44.308 123.122,45.062 C122.914,45.296 122.68,45.504 122.394,45.66 C122.186,45.712 122.004,45.712 121.848,45.712 C121.38,45.686 121.146,45.504 121.12,45.14 C121.12,44.958 121.172,44.802 121.302,44.672 C121.51,44.412 121.718,44.1 121.952,43.788 C122.628,42.852 123.044,42.15 123.2,41.682 C122.316,41.812 121.198,41.994 119.872,42.228 C119.56,42.28 118.13,42.54 115.582,43.008 C113.97,43.32 112.176,43.684 110.252,44.074 C110.252,44.23 110.278,44.36 110.278,44.49 Z M120.6,57.178 C120.6,57.438 120.47,57.698 120.21,57.958 C119.43,58.556 117.428,59.258 114.152,60.09 C112.332,60.506 110.642,60.896 109.082,61.26 C108.588,61.338 108.25,61.39 108.042,61.416 C107.652,61.468 107.314,61.52 107.002,61.52 C106.534,61.494 106.248,61.13 106.144,60.454 C106.144,60.142 106.378,59.856 106.898,59.596 C107.21,59.492 107.574,59.388 108.042,59.232 C110.018,58.92 111.916,58.556 113.788,58.14 C116.44,57.62 118.52,57.126 120.002,56.684 C120.236,56.684 120.418,56.788 120.548,56.944 C120.574,56.996 120.6,57.074 120.6,57.178 Z M122.446,46.934 C122.446,47.194 122.316,47.428 122.082,47.662 C121.562,48.104 120.236,48.624 118.104,49.196 C116.908,49.508 115.79,49.794 114.75,50.002 C114.438,50.08 114.23,50.132 114.074,50.132 C113.892,50.158 113.736,50.158 113.606,50.158 C113.502,51.12 113.45,52.082 113.45,53.07 C113.45,53.278 113.554,53.382 113.762,53.382 C114.022,53.356 114.516,53.304 115.218,53.2 C117.428,52.732 119.222,52.42 120.626,52.238 C121.458,52.134 122.16,52.082 122.784,52.082 C122.992,52.082 123.252,52.108 123.564,52.108 C124.292,52.264 124.682,53.174 124.682,54.838 C124.682,57.75 124.266,60.324 123.46,62.56 C122.524,64.666 121.432,65.732 120.158,65.732 C119.586,65.732 118.832,65.394 117.896,64.77 C117.376,64.38 116.96,63.99 116.7,63.626 C116.544,63.392 116.466,63.184 116.44,62.976 C116.44,62.586 116.596,62.378 116.908,62.378 C117.402,62.378 117.974,62.56 118.624,62.976 C119.248,63.418 119.794,63.652 120.21,63.652 C120.808,63.6 121.38,62.898 121.926,61.598 C122.446,60.064 122.706,57.906 122.706,55.098 C122.706,54.266 122.628,53.824 122.524,53.824 C121.536,53.85 119.014,54.292 114.958,55.15 C114.204,55.306 113.606,55.384 113.164,55.384 C112.592,55.384 112.15,55.098 111.89,54.552 C111.656,54.162 111.552,53.564 111.552,52.784 C111.552,52.16 111.63,51.12 111.838,49.664 C111.942,48.936 112.072,48.104 112.254,47.168 C112.306,46.596 112.384,46.154 112.488,45.842 C112.618,45.348 112.93,45.088 113.424,45.088 C114.048,45.14 114.386,45.452 114.386,46.024 C114.178,46.778 114.022,47.532 113.918,48.26 C113.97,48.26 114.022,48.234 114.074,48.208 C115.348,48 116.596,47.74 117.792,47.454 C119.534,47.064 120.886,46.726 121.874,46.414 C122.082,46.414 122.264,46.518 122.394,46.674 C122.42,46.752 122.446,46.83 122.446,46.934 Z M136.434,60.61 C136.434,59.856 136.044,59.466 135.29,59.466 C134.302,59.466 133.73,60.376 133.574,62.17 C132.898,63.392 132.118,64.484 131.26,65.446 C131.026,65.68 130.922,65.966 130.922,66.278 C130.922,66.954 131.234,67.292 131.858,67.292 C132.196,67.292 132.482,67.162 132.742,66.902 C133.522,66.096 134.25,65.134 134.926,64.016 C135.914,62.352 136.434,61.208 136.434,60.61 Z M161.68,50.808 C161.68,49.69 161.576,48.754 161.42,48.026 C161.29,47.74 161.134,47.506 160.978,47.35 C160.822,47.22 160.588,47.142 160.328,47.142 C160.068,47.168 159.886,47.246 159.73,47.35 C159.522,47.558 159.418,47.844 159.418,48.234 C159.418,48.39 159.47,48.624 159.574,48.91 C159.73,49.482 159.834,50.236 159.834,51.224 C159.834,51.614 159.808,52.004 159.756,52.42 C159.678,52.992 159.6,53.486 159.496,53.954 C159.418,54.266 159.392,54.474 159.392,54.63 C159.392,55.046 159.6,55.254 160.016,55.28 C160.38,55.28 160.64,55.15 160.848,54.89 C160.952,54.734 161.03,54.5 161.134,54.24 C161.238,53.798 161.368,53.33 161.472,52.81 C161.602,52.082 161.68,51.406 161.68,50.808 Z M167.296,53.746 C166.464,53.668 165.554,53.59 164.566,53.486 L164.566,54.708 C164.566,55.982 164.54,57.776 164.514,60.116 C164.462,60.792 164.41,61.39 164.384,61.962 C164.228,62.638 163.89,63.002 163.396,63.002 C162.798,63.002 162.512,62.638 162.512,61.936 C162.512,61.078 162.512,59.96 162.538,58.504 C162.59,56.528 162.616,55.228 162.616,54.578 C162.616,52.29 162.59,50.496 162.59,49.196 C162.538,47.35 162.434,45.4 162.252,43.372 C162.252,42.982 162.408,42.696 162.772,42.54 C162.954,42.436 163.162,42.358 163.396,42.358 C163.63,42.358 163.838,42.462 163.994,42.67 C164.15,42.826 164.254,43.112 164.306,43.502 C164.358,44.958 164.436,46.778 164.54,48.936 C164.54,49.768 164.54,50.652 164.566,51.536 L164.618,51.536 C165.814,51.614 166.776,51.822 167.478,52.186 C167.738,52.368 167.894,52.576 167.946,52.81 C167.946,53.33 167.712,53.642 167.296,53.746 Z M177.514,42.254 C177.644,42.254 177.748,42.228 177.852,42.228 C178.112,42.228 178.32,42.358 178.476,42.618 C178.528,42.722 178.58,42.852 178.632,42.982 C178.632,43.294 178.502,43.554 178.242,43.762 C176.786,44.646 174.342,45.53 170.91,46.44 C169.662,46.726 168.492,46.908 167.452,46.96 C167.114,46.96 166.828,46.83 166.594,46.57 C166.334,46.336 166.204,46.05 166.204,45.738 C166.204,45.27 166.386,44.984 166.802,44.88 C167.92,44.802 169.168,44.62 170.52,44.36 C173.198,43.866 175.538,43.164 177.514,42.254 Z M170.156,40.33 C170.468,40.33 170.962,40.408 171.612,40.538 C172.08,40.642 172.522,40.746 172.99,40.902 C173.536,41.11 173.926,41.24 174.134,41.344 C174.264,41.578 174.342,41.864 174.342,42.228 C174.29,42.566 174.16,42.774 173.9,42.878 L173.744,42.878 C173.64,42.878 173.51,42.852 173.302,42.8 C172.444,42.696 171.768,42.566 171.248,42.462 C170.676,42.41 170.13,42.332 169.662,42.254 C169.298,42.098 169.116,41.734 169.116,41.162 C169.22,40.642 169.558,40.356 170.156,40.33 Z M172.548,52.108 C173.146,51.666 173.77,51.12 174.42,50.47 C174.914,50.002 175.174,49.716 175.174,49.612 C175.174,49.456 175.07,49.352 174.862,49.352 C174.602,49.326 174.16,49.3 173.51,49.3 C172.886,49.3 172.418,49.326 172.054,49.352 C172.106,49.56 172.184,49.768 172.288,49.976 C172.418,50.6 172.496,51.302 172.548,52.108 Z M170.832,47.376 C171.508,47.35 172.158,47.324 172.782,47.324 C174.342,47.324 175.434,47.454 176.032,47.662 C176.708,47.948 177.072,48.39 177.072,48.988 C177.072,49.508 176.838,50.08 176.37,50.704 C176.032,51.146 175.668,51.536 175.252,51.848 C175.408,52.004 175.486,52.108 175.512,52.212 C175.512,52.524 175.382,52.81 175.122,53.07 C174.94,53.226 174.732,53.356 174.524,53.486 L174.628,53.694 C174.94,54.162 175.226,55.15 175.434,56.606 C175.512,57.386 175.59,58.114 175.642,58.842 C175.668,59.362 175.694,59.83 175.694,60.272 C175.694,61.26 175.642,61.936 175.59,62.326 C175.408,63.028 175.096,63.548 174.628,63.912 C174.264,64.146 173.874,64.276 173.406,64.276 C172.366,64.276 171.326,63.6 170.26,62.274 C170.13,62.118 170.026,61.962 169.948,61.832 C169.844,62.3 169.766,62.716 169.662,63.028 C169.48,63.392 169.272,63.574 169.012,63.574 C168.752,63.574 168.57,63.418 168.466,63.158 C168.336,62.898 168.284,62.482 168.284,61.962 C168.284,61.572 168.31,60.792 168.388,59.57 C168.414,58.816 168.44,58.166 168.466,57.646 C168.544,57.308 168.804,57.126 169.246,57.1 C169.87,57.1 170.208,57.438 170.234,58.088 C170.208,58.66 170.182,59.154 170.182,59.544 C170.702,60.558 171.222,61.338 171.794,61.936 C172.314,62.43 172.808,62.69 173.25,62.69 C173.614,62.69 173.796,62.04 173.796,60.766 L173.796,59.726 C173.744,58.348 173.666,57.308 173.51,56.632 C173.38,55.852 173.198,55.124 172.964,54.474 C172.938,54.422 172.912,54.396 172.912,54.344 C172.392,54.604 171.872,54.838 171.352,55.046 C171.222,55.124 171.092,55.176 170.936,55.202 L170.728,55.202 C170.234,54.942 170,54.578 170,54.084 C170,53.824 170.13,53.59 170.39,53.408 C170.468,53.356 170.546,53.33 170.598,53.33 C170.702,52.94 170.78,52.576 170.78,52.212 C170.78,51.796 170.65,51.276 170.39,50.652 C170.208,50.08 170,49.612 169.74,49.248 C169.636,49.17 169.558,49.066 169.506,48.962 C169.298,48.702 169.194,48.468 169.194,48.312 C169.194,47.948 169.35,47.636 169.688,47.376 C169.896,47.272 170.078,47.22 170.234,47.22 C170.468,47.22 170.676,47.272 170.832,47.376 Z M180.816,62.612 C181.258,62.586 181.492,62.326 181.544,61.832 C181.544,61.676 181.492,61.494 181.388,61.286 C181.102,60.766 180.842,60.142 180.608,59.414 C180.452,58.998 180.296,58.582 180.192,58.14 C179.984,57.568 179.854,57.1 179.75,56.762 C179.62,56.398 179.386,56.19 179.074,56.19 C178.476,56.242 178.164,56.502 178.138,57.022 C178.138,57.256 178.138,57.464 178.164,57.646 C178.242,58.192 178.346,58.712 178.502,59.18 C178.866,60.532 179.36,61.468 179.932,62.04 C180.14,62.404 180.452,62.612 180.816,62.612 Z M200.29,40.174 C200.394,40.174 200.472,40.148 200.576,40.148 C200.836,40.148 201.044,40.278 201.2,40.486 C201.252,40.59 201.278,40.72 201.33,40.85 C201.33,41.162 201.2,41.396 200.992,41.552 C199.978,42.072 198.47,42.566 196.468,43.086 C196.442,43.554 196.364,44.048 196.234,44.542 C197.144,44.36 197.976,44.152 198.73,43.918 C199.302,43.762 199.692,43.684 199.926,43.684 C200.134,43.684 200.29,43.736 200.42,43.814 C200.628,43.918 200.732,44.048 200.758,44.204 C200.758,44.49 200.628,44.75 200.394,45.01 C199.926,45.244 199.224,45.478 198.288,45.738 C196.572,46.206 194.778,46.622 192.932,47.012 C192.62,47.09 192.334,47.142 192.074,47.168 L191.866,47.168 C191.424,46.934 191.216,46.596 191.216,46.128 C191.216,45.894 191.346,45.686 191.58,45.504 C191.762,45.452 192.022,45.426 192.36,45.374 C193.114,45.244 193.842,45.114 194.544,44.958 C194.648,44.594 194.726,44.282 194.778,43.996 C194.778,43.84 194.804,43.658 194.83,43.476 C194.57,43.554 194.336,43.606 194.128,43.658 C192.958,43.866 191.866,43.996 190.878,44.048 C190.54,44.048 190.254,43.944 190.046,43.71 C189.812,43.476 189.682,43.19 189.682,42.878 C189.682,42.436 189.864,42.176 190.28,42.072 C191.32,42.02 192.464,41.89 193.738,41.682 C194.05,41.656 194.336,41.604 194.648,41.552 C194.57,41.318 194.492,41.084 194.44,40.85 C194.128,40.642 193.972,40.434 193.972,40.174 C193.972,39.862 194.076,39.602 194.336,39.368 C194.57,39.264 194.83,39.186 195.09,39.186 C195.272,39.186 195.454,39.238 195.636,39.342 C195.792,39.654 195.974,40.018 196.13,40.46 C196.208,40.72 196.286,40.98 196.338,41.24 C197.794,40.954 199.094,40.59 200.29,40.174 Z M194.856,51.744 C195.428,51.562 196,51.38 196.52,51.198 L196.65,51.068 C197.69,50.184 198.47,49.352 199.016,48.572 C197.69,48.728 196.156,49.144 194.388,49.872 C194.388,49.95 194.414,50.002 194.44,50.054 C194.648,50.782 194.778,51.328 194.856,51.744 Z M193.868,48.234 C194.674,47.87 195.532,47.558 196.416,47.298 C197.56,46.96 198.704,46.778 199.9,46.778 C200.212,46.778 200.472,46.856 200.706,47.012 C200.94,47.272 201.07,47.558 201.07,47.87 C201.07,48.702 200.55,49.612 199.536,50.6 L199.51,50.626 L199.562,50.678 C199.588,50.782 199.614,50.886 199.614,51.016 C199.588,51.276 199.484,51.51 199.302,51.744 C198.678,52.16 197.898,52.55 196.936,52.914 C195.818,53.382 194.752,53.72 193.764,53.928 C193.582,54.006 193.452,54.032 193.374,54.032 C193.166,54.032 192.984,53.928 192.828,53.668 C192.672,53.486 192.594,53.2 192.594,52.836 C192.594,52.576 192.776,52.342 193.088,52.186 C193.14,52.186 193.166,52.16 193.218,52.16 C193.14,51.796 193.036,51.38 192.88,50.938 C192.49,49.898 192.152,49.014 191.84,48.338 C191.866,48.13 191.97,47.948 192.152,47.792 C192.308,47.584 192.49,47.454 192.698,47.454 C192.906,47.454 193.088,47.48 193.218,47.506 C193.478,47.61 193.66,47.818 193.79,48.078 C193.816,48.156 193.842,48.208 193.868,48.234 Z M195.766,63.782 C196.026,63.73 196.26,63.678 196.494,63.652 C197.69,63.392 198.782,63.132 199.77,62.898 C199.796,62.846 199.822,62.794 199.848,62.794 C200.784,61.936 201.252,61.312 201.252,60.896 C201.2,60.48 200.862,60.272 200.186,60.272 C199.692,60.272 199.12,60.376 198.47,60.584 C197.846,60.636 197.196,60.792 196.546,61.104 C195.922,61.26 195.48,61.416 195.22,61.52 C195.22,61.624 195.246,61.728 195.298,61.858 C195.532,62.69 195.688,63.314 195.766,63.782 Z M194.7,59.908 C195.064,59.674 195.454,59.466 195.896,59.284 C197.144,58.842 198.548,58.608 200.056,58.608 C200.94,58.608 201.616,58.738 202.058,58.998 C202.708,59.31 203.046,59.908 203.046,60.766 C202.994,61.182 202.838,61.624 202.578,62.066 L202.604,62.066 C202.864,62.066 203.046,62.17 203.176,62.378 C203.202,62.482 203.228,62.612 203.228,62.716 C203.202,62.95 203.098,63.184 202.916,63.444 C201.98,63.86 200.784,64.302 199.38,64.744 C197.716,65.212 196.13,65.602 194.622,65.862 C194.414,65.966 194.284,66.018 194.206,66.018 C193.998,66.018 193.79,65.888 193.634,65.628 C193.504,65.42 193.452,65.108 193.452,64.744 C193.452,64.458 193.608,64.25 193.92,64.12 C193.972,64.094 194.05,64.094 194.102,64.094 C194.024,63.678 193.92,63.21 193.764,62.742 C193.322,61.65 192.958,60.74 192.646,59.986 C192.672,59.804 192.776,59.622 192.958,59.44 C193.114,59.232 193.296,59.102 193.53,59.102 C193.738,59.102 193.894,59.128 194.024,59.154 C194.284,59.258 194.492,59.466 194.622,59.752 L194.7,59.908 Z M207.362,54.37 C207.362,54.604 207.232,54.838 206.972,55.098 C205.698,55.878 202.396,56.814 197.066,57.88 C194.102,58.452 191.346,58.972 188.772,59.414 C187.992,59.544 187.42,59.622 187.056,59.648 C186.692,59.726 186.354,59.752 186.094,59.752 C185.626,59.752 185.34,59.414 185.288,58.738 C185.288,58.426 185.522,58.14 185.99,57.906 C186.25,57.828 186.614,57.724 187.056,57.594 C188.902,57.334 190.696,57.022 192.464,56.71 C191.892,56.19 191.372,55.618 190.904,55.046 C190.8,54.942 190.748,54.812 190.748,54.682 C190.748,54.058 190.982,53.694 191.502,53.59 C191.788,53.59 192.022,53.694 192.23,53.902 C192.802,54.344 193.504,55.15 194.31,56.294 L194.388,56.372 C195.116,56.268 195.844,56.138 196.546,55.982 C197.534,55.8 198.496,55.618 199.406,55.436 C199.458,55.332 199.588,55.15 199.744,54.942 C200.186,54.318 200.446,53.616 200.55,52.888 C200.576,52.602 200.602,52.316 200.602,52.004 C200.706,51.484 201.018,51.224 201.538,51.172 C202.162,51.172 202.474,51.614 202.474,52.446 C202.422,53.408 202.214,54.24 201.798,54.968 C203.774,54.552 205.438,54.188 206.79,53.85 C207.024,53.85 207.206,53.954 207.31,54.136 C207.336,54.188 207.362,54.266 207.362,54.37 Z M234.22,57.256 C233.648,58.036 231.932,59.05 229.124,60.272 C228.916,60.376 228.734,60.454 228.578,60.506 C228.942,60.87 229.254,61.234 229.462,61.676 C229.618,62.092 229.722,62.508 229.722,62.872 C229.722,63.626 229.462,64.224 228.942,64.692 C228.448,65.056 227.85,65.238 227.174,65.264 C225.822,65.212 224.548,64.848 223.404,64.172 C222.234,63.522 221.298,62.586 220.596,61.364 C220.44,61.104 220.362,60.922 220.362,60.766 C220.362,60.558 220.414,60.376 220.57,60.22 C220.726,59.96 220.986,59.83 221.35,59.778 C221.662,59.778 221.922,59.908 222.156,60.168 C223.586,62.066 225.276,63.08 227.226,63.236 C227.694,63.236 227.954,63.002 227.98,62.56 C227.98,62.17 227.876,61.78 227.694,61.416 C227.538,61.208 227.382,61.052 227.278,60.922 C227.174,60.974 227.096,61 227.018,61 C226.342,61.208 225.848,61.312 225.536,61.312 C225.068,61.312 224.808,61.026 224.704,60.454 L224.678,60.09 C224.678,59.726 224.808,59.466 225.12,59.31 C225.588,59.206 226.238,59.05 227.07,58.816 C228.734,58.27 230.19,57.672 231.438,57.048 L233.258,56.06 C233.44,55.982 233.596,55.93 233.752,55.93 C234.142,55.982 234.35,56.216 234.402,56.658 C234.402,56.892 234.324,57.1 234.22,57.256 Z M217.528,64.198 C217.528,64.718 217.424,65.03 217.242,65.16 C217.086,65.29 216.904,65.368 216.722,65.368 C216.488,65.368 216.28,65.238 216.124,65.03 C215.968,64.9 215.864,64.744 215.812,64.562 C215.552,64.172 215.396,63.678 215.292,63.08 C215.24,62.664 215.214,62.3 215.162,61.988 C215.006,61.416 214.902,60.87 214.798,60.35 C214.642,59.752 214.59,59.362 214.59,59.18 C214.59,58.712 214.85,58.452 215.422,58.4 L215.864,58.4 C216.124,58.4 216.332,58.582 216.514,58.946 C216.618,59.18 216.67,59.57 216.722,60.09 C216.878,60.974 217.034,61.754 217.138,62.456 C217.268,63.132 217.398,63.73 217.528,64.198 Z M224.08,40.538 C224.08,40.798 223.95,41.084 223.69,41.344 C223.404,41.838 222.754,42.41 221.714,43.06 L221.714,43.138 C221.662,43.814 221.636,44.49 221.61,45.114 C221.558,45.894 221.558,46.492 221.558,46.934 L221.558,47.142 C222.572,46.076 223.3,44.958 223.742,43.814 C223.898,43.294 223.976,42.852 223.976,42.462 L223.976,41.864 C224.132,41.5 224.392,41.318 224.782,41.266 C225.432,41.266 225.796,41.656 225.848,42.436 L225.848,42.852 C225.718,44.074 224.886,45.374 223.378,46.726 C225.484,46.102 227.174,45.53 228.474,45.01 C228.734,45.01 228.916,45.088 229.02,45.244 C229.046,45.322 229.072,45.4 229.072,45.504 C229.072,45.764 228.942,45.998 228.708,46.232 C227.798,47.064 225.458,48.078 221.688,49.222 C221.402,49.3 221.142,49.378 220.934,49.43 C221.09,49.56 221.22,49.716 221.298,49.898 C221.974,49.768 222.728,49.69 223.534,49.69 C224.522,49.69 225.38,49.82 226.134,50.08 C227.226,50.522 227.798,51.328 227.798,52.498 C227.642,53.668 227.122,54.76 226.29,55.774 C226.29,55.826 226.316,55.878 226.342,55.93 C226.342,56.242 226.212,56.502 225.978,56.684 C225.224,57.256 223.976,57.828 222.234,58.452 C221.584,58.66 220.986,58.764 220.44,58.79 C220.154,58.79 219.92,58.686 219.712,58.452 C219.478,58.244 219.348,57.984 219.348,57.724 C219.348,57.308 219.53,57.048 219.92,56.97 C219.998,56.97 220.076,56.97 220.154,56.944 C220.154,56.866 220.18,56.788 220.18,56.71 C220.206,56.19 220.232,55.8 220.232,55.488 C220.232,54.708 220.102,53.694 219.868,52.446 C219.764,51.978 219.634,51.536 219.53,51.094 C219.4,50.704 219.348,50.444 219.348,50.288 C219.348,50.132 219.374,50.002 219.452,49.872 C218.204,50.236 216.982,50.548 215.838,50.86 C215.266,50.99 214.85,51.068 214.642,51.094 C214.252,51.146 213.94,51.172 213.68,51.172 C213.186,51.172 212.9,50.834 212.848,50.158 C212.848,49.872 213.082,49.612 213.576,49.352 C213.836,49.274 214.174,49.17 214.642,49.014 C216.462,48.624 218.256,48.182 219.998,47.662 C219.946,47.116 219.92,46.284 219.92,45.14 C219.894,44.802 219.894,44.464 219.894,44.1 C219.53,44.308 219.192,44.49 218.88,44.646 C218.646,44.75 218.49,44.802 218.412,44.828 C218.074,44.88 217.762,44.88 217.476,44.88 C217.008,44.88 216.722,44.542 216.67,43.918 C216.67,43.606 216.904,43.346 217.372,43.086 C217.658,43.008 217.996,42.904 218.412,42.748 C219.036,42.488 219.66,42.202 220.258,41.864 C219.582,41.76 218.854,41.656 218.126,41.552 C217.814,41.266 217.684,40.876 217.684,40.408 C217.788,40.174 217.97,39.992 218.23,39.836 L218.75,39.836 C220.102,39.888 221.194,40.174 222,40.668 C222.078,40.746 222.13,40.798 222.182,40.824 C222.676,40.512 223.092,40.226 223.456,39.966 C223.69,39.966 223.872,40.07 223.976,40.278 C224.028,40.33 224.08,40.434 224.08,40.538 Z M224.236,55.722 C224.288,55.618 224.366,55.514 224.47,55.41 C225.198,54.37 225.692,53.564 225.926,52.966 C225.978,52.654 226.03,52.42 226.03,52.264 C225.718,51.692 224.964,51.38 223.768,51.38 C223.092,51.406 222.39,51.51 221.688,51.666 C221.74,51.978 221.766,52.316 221.792,52.68 C221.818,53.018 221.844,53.304 221.844,53.564 C221.896,53.564 221.922,53.538 221.948,53.538 C222.312,53.46 222.754,53.33 223.274,53.148 C223.456,53.096 223.612,53.044 223.716,52.992 C223.846,52.966 223.976,52.94 224.106,52.94 C224.314,52.94 224.47,53.018 224.548,53.174 C224.574,53.278 224.6,53.382 224.6,53.486 C224.6,53.642 224.47,53.876 224.21,54.188 C223.95,54.37 223.638,54.526 223.3,54.682 C222.832,54.916 222.39,55.072 221.974,55.176 C221.922,55.202 221.896,55.202 221.896,55.202 C221.87,55.54 221.844,55.826 221.844,56.086 C221.818,56.32 221.792,56.502 221.766,56.632 C222.65,56.398 223.456,56.086 224.236,55.722 Z M244.464,63.6 C244.36,63.028 244.282,62.378 244.178,61.65 C244.074,60.922 243.97,60.064 243.866,59.076 C243.814,58.504 243.788,58.088 243.736,57.828 C243.528,57.464 243.32,57.282 243.06,57.282 L242.618,57.282 C242.046,57.334 241.76,57.594 241.76,58.062 C241.76,58.27 241.812,58.686 241.968,59.362 C242.046,59.934 242.124,60.532 242.228,61.156 C242.28,61.468 242.306,61.858 242.358,62.326 C242.41,63.002 242.54,63.522 242.722,63.938 C242.826,64.094 242.93,64.25 243.06,64.406 C243.216,64.614 243.424,64.744 243.658,64.744 C243.814,64.744 243.996,64.666 244.178,64.536 C244.36,64.406 244.464,64.094 244.464,63.6 Z M256.06,44.802 C256.008,44.074 255.93,43.58 255.852,43.32 C255.748,42.956 255.566,42.774 255.332,42.774 C254.812,42.774 254.24,42.826 253.59,42.93 C253.564,43.424 253.486,44.126 253.356,45.062 C253.304,45.322 253.278,45.556 253.278,45.764 C253.876,45.504 254.708,45.218 255.748,44.88 L256.06,44.802 Z M253.148,47.246 C253.122,47.506 253.096,47.714 253.096,47.87 C253.096,48.052 253.07,48.442 253.07,49.066 C253.434,48.988 253.694,48.936 253.876,48.884 C254.448,48.754 255.124,48.572 255.93,48.364 C255.982,48.364 256.06,48.338 256.138,48.312 C256.138,47.428 256.112,46.648 256.112,46.024 C255.488,46.284 254.76,46.596 253.928,46.934 L253.148,47.246 Z M253.044,50.6 L253.044,50.808 C253.044,51.484 253.07,52.186 253.096,52.862 L253.408,52.784 C254.448,52.498 255.358,52.108 256.164,51.64 L256.164,51.588 C256.164,50.912 256.138,50.21 256.138,49.482 C255.956,49.586 255.774,49.69 255.566,49.742 C254.812,50.106 254.11,50.366 253.486,50.47 C253.278,50.574 253.148,50.6 253.044,50.6 Z M251.484,53.226 C251.458,53.148 251.432,53.044 251.432,52.914 C251.38,52.394 251.38,51.692 251.38,50.756 C251.38,49.586 251.38,48.52 251.432,47.558 C251.432,46.622 251.484,45.582 251.562,44.438 C251.562,43.918 251.588,43.32 251.588,42.67 C251.562,42.488 251.536,42.306 251.484,42.098 C251.458,41.994 251.458,41.838 251.458,41.682 C251.458,41.526 251.562,41.396 251.744,41.24 C251.978,41.032 252.238,40.902 252.498,40.902 C252.81,40.902 253.07,41.058 253.278,41.344 C254.006,41.214 254.812,41.136 255.748,41.11 L256.164,41.11 C256.58,41.162 256.944,41.396 257.23,41.838 C257.386,42.202 257.542,42.826 257.672,43.658 C257.724,44.282 257.776,45.036 257.828,45.972 C257.932,47.792 258.01,49.872 258.114,52.186 C258.114,52.524 257.984,52.836 257.776,53.096 C257.516,53.382 257.23,53.538 256.866,53.538 C256.58,53.538 256.398,53.46 256.294,53.278 C255.67,53.668 254.838,54.058 253.85,54.448 C253.278,54.63 252.784,54.734 252.316,54.786 C252.03,54.786 251.796,54.682 251.588,54.474 C251.38,54.266 251.276,54.032 251.276,53.772 C251.276,53.512 251.328,53.33 251.484,53.226 Z M246.388,48.702 C246.388,52.03 246.362,54.24 246.31,55.332 C246.258,56.112 245.998,56.476 245.504,56.476 C244.308,56.476 243.32,56.086 242.54,55.306 C242.41,55.202 242.332,55.098 242.28,54.942 C242.28,54.422 242.488,54.162 242.93,54.11 C243.502,54.162 244.152,54.214 244.828,54.292 C244.828,53.512 244.802,52.68 244.802,51.77 C244.802,50.522 244.776,49.274 244.724,48.078 C244.594,48.286 244.49,48.494 244.386,48.702 C243.996,49.534 243.476,50.34 242.852,51.146 C242.306,51.874 241.76,52.498 241.188,53.044 C241.084,53.148 240.954,53.226 240.798,53.252 C240.642,53.304 240.512,53.33 240.408,53.33 C240.148,53.33 239.992,53.174 239.966,52.862 C239.966,52.654 240.07,52.446 240.278,52.238 C240.954,51.484 241.63,50.6 242.28,49.586 C242.8,48.754 243.268,47.844 243.632,46.856 C243.866,46.258 244.074,45.66 244.256,45.062 C243.71,45.244 243.216,45.4 242.774,45.53 C242.514,45.634 242.306,45.712 242.202,45.712 C241.786,45.764 241.448,45.79 241.188,45.79 C240.694,45.79 240.408,45.426 240.33,44.724 C240.33,44.412 240.564,44.126 241.084,43.866 C241.37,43.762 241.734,43.658 242.202,43.502 C242.878,43.372 243.58,43.216 244.256,43.008 C244.178,42.566 244.074,42.124 243.944,41.682 C243.84,41.422 243.814,41.188 243.814,41.032 C243.892,40.46 244.23,40.174 244.854,40.174 C245.296,40.226 245.608,40.512 245.816,41.032 C245.92,41.344 246.024,41.682 246.102,41.994 C246.102,42.176 246.128,42.332 246.154,42.462 C247.298,42.124 248.208,41.812 248.884,41.552 C249.144,41.552 249.3,41.656 249.404,41.812 C249.43,41.864 249.456,41.942 249.456,42.046 C249.456,42.306 249.326,42.54 249.118,42.774 C248.702,43.242 247.766,43.762 246.284,44.334 C246.31,44.828 246.336,45.348 246.388,45.894 C247.038,46.622 247.948,48.052 249.118,50.236 C249.43,50.808 249.612,51.354 249.664,51.822 C249.664,52.238 249.482,52.446 249.144,52.446 C248.962,52.446 248.78,52.342 248.572,52.108 C248.312,51.744 247.948,51.172 247.48,50.418 L246.388,48.702 Z M260.376,56.32 C259.934,56.996 258.712,57.828 256.736,58.842 C256.684,58.868 256.632,58.894 256.606,58.894 C257.282,59.258 257.776,59.648 258.14,60.012 C258.452,60.428 258.634,60.818 258.634,61.182 C258.634,62.17 258.192,62.976 257.308,63.6 C256.502,64.068 255.514,64.328 254.318,64.38 C253.018,64.328 251.796,63.938 250.704,63.21 C249.612,62.482 248.728,61.442 248.052,60.142 C247.896,59.882 247.844,59.674 247.844,59.518 C247.844,59.31 247.896,59.128 248.026,58.998 C248.182,58.738 248.442,58.582 248.806,58.53 C249.118,58.53 249.404,58.66 249.612,58.92 C250.912,61.026 252.498,62.17 254.37,62.326 C255.982,62.326 256.814,61.832 256.892,60.844 C256.892,60.48 256.658,60.142 256.242,59.778 C255.982,59.622 255.748,59.492 255.514,59.362 C255.41,59.414 255.332,59.44 255.228,59.44 C254.76,59.622 254.422,59.7 254.188,59.7 C253.772,59.7 253.486,59.414 253.356,58.842 L253.33,58.452 C253.33,58.14 253.486,57.88 253.798,57.724 C254.11,57.672 254.552,57.516 255.124,57.308 C256.294,56.892 257.308,56.45 258.166,55.93 L259.414,55.176 C259.596,55.098 259.778,55.046 259.934,55.046 C260.298,55.098 260.506,55.306 260.532,55.696 C260.532,55.956 260.48,56.164 260.376,56.32 Z M279.616,42.072 C278.966,42.774 277.822,44.204 276.158,46.388 C275.872,46.752 275.612,47.116 275.352,47.48 C275.508,47.428 275.716,47.376 275.95,47.376 C276.262,47.376 276.496,47.792 276.626,48.572 C276.73,49.04 276.834,49.56 276.99,50.132 C277.198,51.588 277.458,53.2 277.744,54.968 C277.9,56.06 277.978,57.074 277.978,57.958 C277.978,59.362 277.874,60.792 277.666,62.222 C277.458,63.262 277.276,64.12 277.094,64.822 C276.912,65.472 276.626,65.81 276.236,65.81 C275.768,65.81 275.534,65.576 275.534,65.108 C275.612,64.64 275.742,63.912 275.95,62.976 C276.184,61.312 276.314,60.012 276.314,59.024 C276.314,57.334 275.976,55.02 275.3,52.056 C275.118,51.198 274.884,50.34 274.624,49.456 C274.52,49.118 274.468,48.858 274.468,48.676 C274.052,49.196 273.662,49.742 273.298,50.314 C271.478,52.862 269.58,55.644 267.552,58.712 C267.344,59.076 267.032,59.232 266.642,59.232 C266.278,59.154 266.096,58.972 266.044,58.66 C266.044,58.426 266.148,58.088 266.356,57.646 C266.72,57.048 267.11,56.398 267.526,55.722 C268.098,54.786 268.748,53.798 269.476,52.758 C271.348,50.002 273.558,46.96 276.08,43.684 C274.104,44.048 272.44,44.204 271.088,44.204 C270.464,44.204 269.918,44.178 269.45,44.1 C268.774,43.944 268.462,43.684 268.462,43.268 L268.462,42.722 C268.488,42.358 268.696,42.15 269.112,42.15 C269.684,42.228 270.282,42.254 270.932,42.254 C271.79,42.254 272.674,42.176 273.61,41.994 C274.65,41.786 275.612,41.552 276.548,41.24 C277.302,40.98 278.03,40.694 278.706,40.408 C279.018,40.2 279.304,40.096 279.564,40.096 C280.058,40.148 280.318,40.434 280.37,41.006 C280.37,41.37 280.11,41.734 279.616,42.072 Z M280.084,50.184 C279.876,50.028 279.798,49.898 279.798,49.742 C279.798,49.638 279.824,49.534 279.928,49.378 C280.032,49.222 280.188,49.092 280.344,48.988 C280.474,48.884 280.578,48.832 280.682,48.832 C280.838,48.832 281.02,48.858 281.228,48.91 C282.06,49.378 283.984,51.198 287,54.344 C287.156,54.5 287.286,54.656 287.39,54.864 C287.52,55.098 287.598,55.28 287.598,55.436 C287.598,55.566 287.546,55.67 287.468,55.774 L287.312,55.93 C287.208,56.034 287.104,56.086 287,56.086 C286.792,56.086 286.532,56.034 286.22,55.878 C284.92,55.098 282.866,53.2 280.084,50.184 Z M306.682,46.284 C306.422,46.284 306.188,46.362 306.006,46.492 C305.694,46.7 305.564,46.96 305.564,47.272 C305.564,47.428 305.616,47.688 305.72,48.078 C305.772,48.494 305.85,48.91 305.902,49.378 C306.058,50.574 306.136,51.51 306.136,52.238 C306.136,52.576 306.11,52.992 306.11,53.486 C306.084,53.798 306.058,54.058 306.058,54.214 C306.058,54.734 306.292,54.968 306.812,54.968 C307.28,54.968 307.592,54.656 307.722,54.032 C307.774,53.772 307.826,53.382 307.878,52.862 C307.904,52.394 307.93,51.9 307.93,51.354 C307.93,50.938 307.904,50.314 307.852,49.534 C307.774,48.546 307.67,47.74 307.514,47.09 C307.358,46.57 307.098,46.284 306.682,46.284 Z M313.754,66.07 C314.274,66.044 314.534,65.654 314.586,64.9 C314.586,63.184 314.482,60.662 314.326,57.282 C314.196,55.488 314.144,53.98 314.144,52.758 C314.092,51.562 314.092,50.262 314.092,48.832 C314.092,47.116 314.092,45.27 314.118,43.346 L314.118,40.59 C314.118,39.758 313.858,39.29 313.338,39.134 L312.922,39.134 C312.506,39.29 312.246,39.55 312.116,39.94 C312.22,40.486 312.298,40.928 312.298,41.24 L312.298,43.632 C312.194,45.608 312.168,47.428 312.168,49.092 C312.168,51.822 312.22,54.448 312.376,56.97 C312.506,59.336 312.584,61.234 312.584,62.742 C312.584,63.21 312.558,63.522 312.506,63.704 C311.362,63.236 310.504,62.976 309.958,62.976 C309.334,62.976 309.048,63.054 309.048,63.262 C309.204,63.47 309.36,63.652 309.542,63.86 C310.452,64.692 311.466,65.342 312.584,65.784 C312.948,65.966 313.338,66.07 313.754,66.07 Z M299.662,41.682 C298.362,42.202 296.828,42.618 295.112,42.93 C294.228,43.086 293.396,43.19 292.668,43.242 C292.252,43.346 292.07,43.606 292.07,44.074 C292.07,44.386 292.2,44.672 292.46,44.906 C292.694,45.14 292.98,45.244 293.292,45.244 C293.89,45.218 294.54,45.14 295.268,45.01 C295.164,45.296 295.06,45.608 294.93,45.946 C294.67,46.622 294.358,47.298 294.046,48 C293.708,48.728 293.396,49.378 293.11,49.898 C292.902,50.314 292.824,50.678 292.824,50.938 C292.824,51.666 293.214,52.082 293.994,52.16 L294.306,52.16 C294.8,52.16 295.45,51.952 296.23,51.588 C296.958,51.198 297.608,50.782 298.206,50.34 C298.856,49.872 299.454,49.326 299.974,48.754 L300.104,48.624 C301.222,50.236 302.028,51.172 302.496,51.484 C302.704,51.64 302.938,51.718 303.198,51.718 C303.51,51.614 303.692,51.406 303.744,51.068 C303.744,50.86 303.666,50.626 303.536,50.392 C302.964,49.456 302.418,48.624 301.924,47.844 C301.612,47.376 301.378,47.038 301.222,46.83 C300.988,46.596 300.702,46.466 300.39,46.466 C300.026,46.544 299.792,46.7 299.636,46.934 C299.61,46.96 299.584,46.986 299.532,47.012 C298.908,47.74 298.206,48.364 297.478,48.936 C296.88,49.378 296.36,49.716 295.892,49.976 C295.502,50.158 295.242,50.262 295.086,50.262 C295.19,49.95 295.346,49.56 295.554,49.118 C295.892,48.364 296.23,47.558 296.594,46.726 C296.958,45.842 297.14,45.296 297.166,45.088 L297.166,44.854 C297.166,44.75 297.14,44.646 297.088,44.516 C298.57,44.074 299.688,43.658 300.416,43.242 C300.65,43.034 300.78,42.774 300.78,42.436 C300.728,42.332 300.702,42.202 300.676,42.046 C300.52,41.786 300.286,41.656 300.026,41.656 C299.896,41.656 299.766,41.682 299.662,41.682 Z M300.702,53.642 C300.026,54.058 299.298,54.396 298.518,54.708 C298.466,54.344 298.44,53.98 298.388,53.642 C298.232,53.122 297.92,52.836 297.478,52.836 C297.218,52.836 296.984,52.914 296.776,53.044 C296.438,53.252 296.282,53.512 296.282,53.85 C296.282,54.006 296.334,54.292 296.49,54.656 C296.516,54.864 296.542,55.098 296.594,55.358 C296.516,55.41 296.412,55.436 296.308,55.436 C295.476,55.644 294.696,55.8 294.02,55.878 C293.578,55.982 293.37,56.268 293.37,56.736 C293.37,57.048 293.526,57.334 293.786,57.594 C293.994,57.854 294.28,57.958 294.644,57.958 C295.294,57.906 296.022,57.75 296.802,57.49 C296.802,58.062 296.75,58.79 296.698,59.648 C296.594,60.22 296.49,60.636 296.438,60.948 C296.438,61 296.438,61.052 296.464,61.13 C296.334,61.156 296.204,61.208 296.1,61.26 C295.424,61.468 294.644,61.754 293.708,62.092 C293.344,62.248 293.162,62.456 293.162,62.742 C293.162,63.158 293.214,63.496 293.37,63.756 C293.552,63.99 293.76,64.12 294.02,64.12 C294.098,64.12 294.228,64.068 294.41,63.99 C295.84,63.574 297.322,62.95 298.882,62.118 C300.234,61.39 301.326,60.688 302.184,59.96 C302.366,59.726 302.47,59.492 302.496,59.232 C302.496,59.128 302.47,58.998 302.444,58.894 C302.288,58.686 302.106,58.582 301.872,58.556 C301.742,58.556 301.612,58.608 301.482,58.66 C301.326,58.738 300.884,58.972 300.208,59.388 C299.584,59.7 298.96,59.986 298.284,60.298 C298.362,59.96 298.414,59.492 298.466,58.92 C298.544,58.244 298.596,57.516 298.596,56.71 C299.818,56.138 300.754,55.592 301.378,55.02 C301.612,54.838 301.742,54.604 301.742,54.344 C301.69,54.24 301.638,54.11 301.586,53.98 C301.456,53.746 301.274,53.616 301.014,53.616 C300.91,53.616 300.806,53.642 300.702,53.642 Z M332.24,44.204 C332.24,43.944 332.136,43.684 331.954,43.45 C331.772,43.216 331.538,43.086 331.278,43.086 C330.966,43.086 330.68,43.216 330.394,43.45 C330.082,43.71 329.874,44.022 329.796,44.334 C329.64,44.854 329.588,45.218 329.588,45.4 C329.588,45.556 329.614,45.686 329.666,45.842 C329.354,46.96 329.12,48.676 328.938,50.964 C328.808,52.784 328.73,54.084 328.704,54.812 C328.652,55.436 328.652,55.826 328.652,55.982 C328.652,56.268 328.73,56.502 328.938,56.71 C329.12,56.918 329.354,57.022 329.666,57.022 C330.316,57.022 330.654,56.58 330.706,55.644 C330.862,51.406 331.278,47.922 331.954,45.192 C332.058,44.776 332.162,44.438 332.24,44.204 Z M330.836,61.156 C330.836,60.35 330.602,59.804 330.16,59.544 C329.9,59.388 329.718,59.31 329.562,59.31 C329.198,59.31 328.886,59.44 328.626,59.7 C328.314,59.96 328.184,60.246 328.184,60.61 C328.184,61.182 328.366,61.598 328.73,61.832 C329.016,62.196 329.328,62.404 329.692,62.404 C330.446,62.404 330.836,61.988 330.836,61.156 Z" id="path-36"></path>
        <filter x="-2.3%" y="-17.8%" width="104.5%" height="149.7%" filterUnits="objectBoundingBox" id="filter-37">
            <feOffset dx="0" dy="2" in="SourceAlpha" result="shadowOffsetOuter1"></feOffset>
            <feGaussianBlur stdDeviation="2" in="shadowOffsetOuter1" result="shadowBlurOuter1"></feGaussianBlur>
            <feColorMatrix values="0 0 0 0 0.356558248   0 0 0 0 0.264572518   0 0 0 0 0  0 0 0 0.460116621 0" type="matrix" in="shadowBlurOuter1"></feColorMatrix>
        </filter>
        <polygon id="path-38" points="17.5203494 17.362165 17.5203494 0.018993836 0.177450122 0.018993836 0.177450122 17.362165 17.5203494 17.362165"></polygon>
    </defs>
    <g id="-1.2" stroke="none" stroke-width="1" fill="none" fill-rule="evenodd">
        <g id="-3" transform="translate(0.000000, -66.000000)">
            <g id="lxr_bg_3" transform="translate(0.000000, 66.000000)">
                <g id="">
                    <mask id="mask-3" fill="white">
                        <use xlink:href="#path-2"></use>
                    </mask>
                    <use id="Mask-Copy" fill="url(#linearGradient-1)" xlink:href="#path-2"></use>
                    <g id="" mask="url(#mask-3)">
                        <g transform="translate(-37.000000, 14.000000)">
                            <circle id="Oval-21" fill="#FFFFFF" opacity="0.5" cx="140.926262" cy="292.867585" r="2.79778609"></circle>
                            <circle id="Oval-21-Copy-5" fill="#FFFFFF" opacity="0.5" cx="120.494443" cy="365.179172" r="2.09860678"></circle>
                            <circle id="Oval-21-Copy-61" fill="#FFFFFF" opacity="0.5" cx="67.2163168" cy="286.248614" r="2.09860678"></circle>
                            <circle id="Oval-21-Copy-41" fill="#FFFFFF" opacity="0.5" cx="130.360763" cy="450.029521" r="2.09860678"></circle>
                            <circle id="Oval-21-Copy-42" fill="#FFFFFF" opacity="0.5" cx="106.14808" cy="419.897047" r="1.56509148"></circle>
                            <circle id="Oval-21-Copy-62" fill="#FFFFFF" opacity="0.5" cx="52.8699539" cy="340.966489" r="1.56509148"></circle>
                            <circle id="Oval-21-Copy-7" fill="#FFFFFF" opacity="0.5" cx="121.934192" cy="350.832809" r="1.56509148"></circle>
                            <circle id="Oval-21-Copy-63" fill="#FFFFFF" opacity="0.5" cx="68.6560654" cy="271.902251" r="1.56509148"></circle>
                            <circle id="Oval-21-Copy-43" fill="#FFFFFF" opacity="0.5" cx="131.800512" cy="435.683158" r="1.56509148"></circle>
                            <circle id="Oval-21-Copy-8" fill="#FFFFFF" opacity="0.5" cx="39.5891032" cy="369.124181" r="2.09708832"></circle>
                            <circle id="Oval-21-Copy" fill="#FFFFFF" opacity="0.5" cx="155.201776" cy="305.169835" r="1.28718872"></circle>
                            <circle id="Oval-21-Copy-2" fill="#FFFFFF" opacity="0.5" cx="133.830052" cy="311.423806" r="1.62136757"></circle>
                            <circle id="Oval-21-Copy-3" fill="#FFFFFF" opacity="0.5" cx="141.128669" cy="332.535271" r="1.02692935"></circle>
                            <circle id="Oval-21-Copy-64" fill="#FFFFFF" opacity="0.5" cx="87.8505427" cy="253.604714" r="1.02692935"></circle>
                            <circle id="Oval-21-Copy-44" fill="#FFFFFF" opacity="0.5" cx="150.994989" cy="417.385621" r="1.02692935"></circle>
                            <circle id="Oval-21-Copy-65" fill="#FFFFFF" opacity="0.5" cx="97.7168624" cy="338.455063" r="1.02692935"></circle>
                            <circle id="Oval-21-Copy-4" fill="#FFFFFF" opacity="0.5" cx="38.5189442" cy="387.786662" r="1.02692935"></circle>
                            <circle id="Oval-21-Copy-9" fill="#FFFFFF" opacity="0.5" cx="367.851615" cy="140.926262" r="2.79778609"></circle>
                            <circle id="Oval-21-Copy-18" fill="#FFFFFF" opacity="0.5" cx="379.691199" cy="265.24189" r="2.79778609"></circle>
                            <circle id="Oval-21-Copy-10" fill="#FFFFFF" opacity="0.5" cx="319.794101" cy="187.585417" r="2.09860678"></circle>
                            <circle id="Oval-21-Copy-45" fill="#FFFFFF" opacity="0.5" cx="290.54557" cy="69.0595911" r="2.09860678"></circle>
                            <circle id="Oval-21-Copy-11" fill="#FFFFFF" opacity="0.5" cx="360.699129" cy="185.078638" r="1.56509148"></circle>
                            <circle id="Oval-21-Copy-35" fill="#FFFFFF" opacity="0.200000003" cx="52.8699539" cy="185.078638" r="1.56509148"></circle>
                            <circle id="Oval-21-Copy-27" fill="#FFFFFF" opacity="0.5" cx="354.779337" cy="29.1907866" r="1.56509148"></circle>
                            <circle id="Oval-21-Copy-12" fill="#FFFFFF" opacity="0.5" cx="382.405032" cy="204.811277" r="1.56509148"></circle>
                            <circle id="Oval-21-Copy-36" fill="#FFFFFF" opacity="0.200000003" cx="74.5758573" cy="204.811277" r="1.56509148"></circle>
                            <circle id="Oval-21-Copy-28" fill="#FFFFFF" opacity="0.5" cx="376.48524" cy="48.923426" r="1.56509148"></circle>
                            <circle id="Oval-21-Copy-13" fill="#FFFFFF" opacity="0.5" cx="343.47175" cy="132.332508" r="2.09708832"></circle>
                            <circle id="Oval-21-Copy-37" fill="#FFFFFF" opacity="0.5" cx="50.6187872" cy="336.742059" r="1.28718872"></circle>
                            <circle id="Oval-21-Copy-15" fill="#FFFFFF" opacity="0.5" cx="392.327628" cy="149.616163" r="1.62136757"></circle>
                            <circle id="Oval-21-Copy-30" fill="#FFFFFF" opacity="0.5" cx="404.167211" cy="273.931791" r="1.62136757"></circle>
                            <circle id="Oval-21-Copy-16" fill="#FFFFFF" opacity="0.5" cx="399.626245" cy="170.727628" r="1.02692935"></circle>
                            <circle id="Oval-21-Copy-39" fill="#FFFFFF" opacity="0.200000003" cx="91.7970706" cy="170.727628" r="1.02692935"></circle>
                            <circle id="Oval-21-Copy-31" fill="#FFFFFF" opacity="0.5" cx="393.706453" cy="14.8397769" r="1.02692935"></circle>
                            <circle id="Oval-21-Copy-17" fill="#FFFFFF" opacity="0.5" cx="364.107494" cy="156.914781" r="1.02692935"></circle>
                            <circle id="Oval-21-Copy-32" fill="#FFFFFF" opacity="0.5" cx="358.187703" cy="1.02692935" r="1.02692935"></circle>
                            <circle id="Oval-21-Copy-19" fill="#FFFFFF" opacity="0.5" cx="250.729863" cy="37.6173577" r="2.09860678"></circle>
                            <circle id="Oval-21-Copy-57" fill="#FFFFFF" opacity="0.5" cx="323.740629" cy="420.430562" r="2.09860678"></circle>
                            <circle id="Oval-21-Copy-20" fill="#FFFFFF" opacity="0.5" cx="244.276556" cy="287.688363" r="1.56509148"></circle>
                            <circle id="Oval-21-Copy-58" fill="#FFFFFF" opacity="0.5" cx="299.527946" cy="390.298088" r="1.56509148"></circle>
                            <circle id="Oval-21-Copy-46" fill="#FFFFFF" opacity="0.5" cx="215.028025" cy="169.162537" r="1.56509148"></circle>
                            <circle id="Oval-21-Copy-21" fill="#FFFFFF" opacity="0.5" cx="252.169612" cy="23.2709948" r="1.56509148"></circle>
                            <circle id="Oval-21-Copy-59" fill="#FFFFFF" opacity="0.5" cx="325.180378" cy="406.084199" r="1.56509148"></circle>
                            <circle id="Oval-21-Copy-22" fill="#FFFFFF" opacity="0.5" cx="211.263066" cy="256.648137" r="2.09708832"></circle>
                            <circle id="Oval-21-Copy-47" fill="#FFFFFF" opacity="0.5" cx="182.014535" cy="138.122311" r="2.09708832"></circle>
                            <circle id="Oval-21-Copy-23" fill="#FFFFFF" opacity="0.5" cx="291.356988" cy="234.132334" r="1.28718872"></circle>
                            <circle id="Oval-21-Copy-48" fill="#FFFFFF" opacity="0.5" cx="262.108457" cy="115.606508" r="1.28718872"></circle>
                            <circle id="Oval-21-Copy-24" fill="#FFFFFF" opacity="0.5" cx="260.118944" cy="252.225888" r="1.62136757"></circle>
                            <circle id="Oval-21-Copy-49" fill="#FFFFFF" opacity="0.5" cx="230.870412" cy="133.700062" r="1.62136757"></circle>
                            <circle id="Oval-21-Copy-25" fill="#FFFFFF" opacity="0.5" cx="271.364089" cy="4.97345723" r="1.02692935"></circle>
                            <circle id="Oval-21-Copy-60" fill="#FFFFFF" opacity="0.5" cx="344.374855" cy="387.786662" r="1.02692935"></circle>
                            <circle id="Oval-21-Copy-50" fill="#FFFFFF" opacity="0.5" cx="259.874933" cy="166.651111" r="1.02692935"></circle>
                            <circle id="Oval-21-Copy-26" fill="#FFFFFF" opacity="0.5" cx="253.604714" cy="271.364089" r="1.02692935"></circle>
                            <circle id="Oval-21-Copy-51" fill="#FFFFFF" opacity="0.5" cx="224.356182" cy="152.838263" r="1.02692935"></circle>
                            <g id="" stroke-width="1" fill="none" transform="translate(66.000000, 316.000000)">
                                <g id="Oval-19" opacity="0.560000002">
                                    <use fill="black" fill-opacity="1" filter="url(#filter-6)" xlink:href="#path-5"></use>
                                    <use fill="url(#linearGradient-4)" fill-rule="evenodd" xlink:href="#path-5"></use>
                                </g>
                                <g id="Oval-19-Copy" opacity="0.449999988">
                                    <use fill="black" fill-opacity="1" filter="url(#filter-9)" xlink:href="#path-8"></use>
                                    <use fill="url(#linearGradient-7)" fill-rule="evenodd" xlink:href="#path-8"></use>
                                </g>
                            </g>
                        </g>
                    </g>
                    <path d="M280.361341,76.2255665 C281.516846,76.1971572 313.242613,76.1472187 313.242613,75.6645632 C313.242613,75.1819077 281.412722,74.2980178 280.361341,74.2980178 C279.30996,74.2980178 278.457648,74.4335332 278.457648,75.2617922 C278.457648,76.0900512 279.205836,76.2539759 280.361341,76.2255665 Z" id="Oval-14-Copy" fill="#FFFFFF" opacity="0.400000006" filter="url(#filter-10)" mask="url(#mask-3)" transform="translate(295.850130, 75.263282) rotate(-36.000000) translate(-295.850130, -75.263282) "></path>
                    <path d="M258.78888,124.899624 C260.553627,124.856236 276.846585,124.125414 307.667753,122.70716 C276.687561,121.22495 260.394603,120.483845 258.78888,120.483845 C256.380295,120.483845 254.427751,120.794294 254.427751,122.691734 C254.427751,124.589175 256.141759,124.964706 258.78888,124.899624 Z" id="Oval-14" fill="#FFFFFF" opacity="0.699999988" filter="url(#filter-11)" mask="url(#mask-3)" transform="translate(281.047752, 122.695147) rotate(-36.000000) translate(-281.047752, -122.695147) "></path>
                </g>
                <g id="lxr_yun" transform="translate(0.000000, 407.000000)">
                    <mask id="mask-13" fill="white">
                        <use xlink:href="#path-12"></use>
                    </mask>
                    <use id="Mask" fill-opacity="0" fill="#D8D8D8" xlink:href="#path-12"></use>
                    <g id="" mask="url(#mask-13)">
                        <g transform="translate(-65.000000, 5.000000)">
                            <g id="Oval-Copy-5">
                                <use fill="black" fill-opacity="1" filter="url(#filter-15)" xlink:href="#path-14"></use>
                                <use fill="#FFFFFF" fill-rule="evenodd" xlink:href="#path-14"></use>
                            </g>
                            <g id="Oval-Copy-6">
                                <use fill="black" fill-opacity="1" filter="url(#filter-17)" xlink:href="#path-16"></use>
                                <use fill="#FFFFFF" fill-rule="evenodd" xlink:href="#path-16"></use>
                            </g>
                            <g id="Oval-Copy-4">
                                <use fill="black" fill-opacity="1" filter="url(#filter-19)" xlink:href="#path-18"></use>
                                <use fill="#FFFFFF" fill-rule="evenodd" xlink:href="#path-18"></use>
                            </g>
                            <g id="Oval-Copy-2">
                                <use fill="black" fill-opacity="1" filter="url(#filter-21)" xlink:href="#path-20"></use>
                                <use fill="#FFFFFF" fill-rule="evenodd" xlink:href="#path-20"></use>
                            </g>
                            <g id="Oval-Copy-3">
                                <use fill="black" fill-opacity="1" filter="url(#filter-23)" xlink:href="#path-22"></use>
                                <use fill="#FFFFFF" fill-rule="evenodd" xlink:href="#path-22"></use>
                            </g>
                            <g id="Oval">
                                <use fill="black" fill-opacity="1" filter="url(#filter-25)" xlink:href="#path-24"></use>
                                <use fill="#FFFFFF" fill-rule="evenodd" xlink:href="#path-24"></use>
                            </g>
                            <g id="Oval-Copy">
                                <use fill="black" fill-opacity="1" filter="url(#filter-27)" xlink:href="#path-26"></use>
                                <use fill="#FFFFFF" fill-rule="evenodd" xlink:href="#path-26"></use>
                            </g>
                        </g>
                    </g>
                </g>
                <g id="" transform="translate(18.000000, 193.000000)">
                    <rect id="Rectangle-2" fill="#FFFFFF" x="0" y="0" width="339" height="192"></rect>
                    <g id="Rectangle-2-Copy" opacity="0.800000012">
                        <use fill="#FFFFFF" fill-rule="evenodd" xlink:href="#path-28"></use>
                        <rect stroke="#FF5E3B" stroke-width="1" x="8.5" y="8.5" width="322" height="175"></rect>
                    </g>
                    <g id="Rectangle-11" opacity="0.800000012">
                        <use fill="#FFFFFF" fill-rule="evenodd" xlink:href="#path-29"></use>
                        <rect stroke="#FF5E3B" stroke-width="2" x="25" y="24" width="20" height="20"></rect>
                    </g>
                    <g id="Rectangle-11-Copy" opacity="0.800000012">
                        <use fill="#FFFFFF" fill-rule="evenodd" xlink:href="#path-30"></use>
                        <rect stroke="#FF5E3B" stroke-width="2" x="52" y="24" width="20" height="20"></rect>
                    </g>
                    <g id="Rectangle-11-Copy-2" opacity="0.800000012">
                        <use fill="#FFFFFF" fill-rule="evenodd" xlink:href="#path-31"></use>
                        <rect stroke="#FF5E3B" stroke-width="2" x="79" y="24" width="20" height="20"></rect>
                    </g>
                    <g id="Rectangle-11-Copy-3" opacity="0.800000012">
                        <use fill="#FFFFFF" fill-rule="evenodd" xlink:href="#path-32"></use>
                        <rect stroke="#FF5E3B" stroke-width="2" x="106" y="24" width="20" height="20"></rect>
                    </g>
                    <text id="" font-family=".PingFang-SC-Medium, PingFang SC" font-size="14" font-weight="bold" fill="#FF5E3B">
                        <tspan x="28" y="39"></tspan>
                    </text>
                    <text id="" font-family=".PingFang-SC-Medium, PingFang SC" font-size="14" font-weight="bold" fill="#FF5E3B">
                        <tspan x="55" y="39"></tspan>
                    </text>
                    <text id="" font-family=".PingFang-SC-Medium, PingFang SC" font-size="14" font-weight="bold" fill="#FF5E3B">
                        <tspan x="82" y="39"></tspan>
                    </text>
                    <text id="" font-family=".PingFang-SC-Medium, PingFang SC" font-size="14" font-weight="bold" fill="#FF5E3B">
                        <tspan x="109" y="39"></tspan>
                    </text>
                    <path d="M53,84 L315,84 L315,85 L53,85 L53,84 Z M24,108 L315,108 L315,109 L24,109 L24,108 Z M24,132 L315,132 L315,133 L24,133 L24,132 Z M24,156 L315,156 L315,157 L24,157 L24,156 Z" id="Combined-Shape" fill="#FF5E3B" opacity="0.5"></path>
                </g>
                <g id="" transform="translate(18.000000, 113.000000)">
                    <rect id="Rectangle-4" fill="#FFFFFF" x="0" y="0" width="339" height="60"></rect>
                    <g id="Rectangle-4-Copy" opacity="0.800000012">
                        <use fill="#FFFFFF" fill-rule="evenodd" xlink:href="#path-33"></use>
                        <rect stroke="#FF5E3B" stroke-width="1" x="8.5" y="8.5" width="322" height="43"></rect>
                    </g>
                    <g id="Rectangle-11-Copy-5" opacity="0.800000012">
                        <use fill="#FFFFFF" fill-rule="evenodd" xlink:href="#path-34"></use>
                        <rect stroke="#FF5E3B" stroke-width="2" x="25" y="20" width="20" height="20"></rect>
                    </g>
                    <g id="Rectangle-11-Copy-4" opacity="0.800000012">
                        <use fill="#FFFFFF" fill-rule="evenodd" xlink:href="#path-35"></use>
                        <rect stroke="#FF5E3B" stroke-width="2" x="52" y="20" width="20" height="20"></rect>
                    </g>
                    <text id="" font-family=".PingFang-SC-Medium, PingFang SC" font-size="14" font-weight="bold" fill="#FF5E3B">
                        <tspan x="28" y="35"></tspan>
                    </text>
                    <text id="" font-family=".PingFang-SC-Medium, PingFang SC" font-size="14" font-weight="bold" fill="#FF5E3B">
                        <tspan x="55" y="35"></tspan>
                    </text>
                </g>
                <g id="">
                    <use fill="black" fill-opacity="1" filter="url(#filter-37)" xlink:href="#path-36"></use>
                    <use fill="#FFFFFF" fill-rule="evenodd" xlink:href="#path-36"></use>
                </g>
                <g id="" transform="translate(18.000000, 86.000000)">
                    <polygon id="Fill-1" fill="#457368" points="9.4665655 14.7234652 9.4665655 21.8448986 11.9020857 15.1531275 12.1606361 15.2468416 9.72469759 21.9394494 14.3026723 16.4839512 14.5139473 16.660711 9.93555427 22.117046 16.1039489 18.5554925 16.2407547 18.7939614 10.0731968 22.3546781 17.0873192 21.1177777 17.1348038 21.3895067 10.1223549 22.6259887 17.1348038 23.8622615 17.0873192 24.1339905 10.0731968 22.8972994 16.2407547 26.4582252 16.1039489 26.6962757 9.93555427 23.1349315 14.5139473 28.5912665 14.3026723 28.7682355 9.72469759 23.312528 12.1606361 30.0051358 11.9020857 30.0988499 9.4665655 23.407288 9.4665655 30.5285122 9.19065284 30.5285122 9.19065284 23.407288 6.75513266 30.0988499 6.49637302 30.0051358 8.93231157 23.312528 4.35454608 28.7682355 4.14327103 28.5912665 8.72166407 23.1349315 2.55326941 26.6962757 2.4162544 26.4582252 8.58402151 22.8972994 1.56989911 24.1339905 1.52220534 23.8622615 8.53465427 22.6259887 1.52220534 21.3895067 1.56989911 21.1177777 8.58402151 22.3546781 2.4162544 18.7939614 2.55326941 18.5554925 8.72166407 22.117046 4.14327103 16.660711 4.35454608 16.4839512 8.93231157 21.9394494 6.49637302 15.2468416 6.75513266 15.1531275 9.19065284 21.8448986 9.19065284 14.7234652"></polygon>
                    <polygon id="Fill-2" fill="#457368" points="38.4817418 14.7234652 38.4817418 21.8448986 40.9172619 15.1531275 41.1758124 15.2468416 38.7398739 21.9394494 43.3176393 16.4839512 43.5289144 16.660711 38.9507305 22.117046 45.1191252 18.5554925 45.255931 18.7939614 39.0883731 22.3546781 46.1024955 21.1177777 46.1499801 21.3895067 39.1375311 22.6259887 46.1499801 23.8622615 46.1024955 24.1339905 39.0883731 22.8972994 45.255931 26.4582252 45.1191252 26.6962757 38.9507305 23.1349315 43.5289144 28.5912665 43.3176393 28.7682355 38.7398739 23.312528 41.1758124 30.0051358 40.9172619 30.0988499 38.4817418 23.407288 38.4817418 30.5285122 38.2058291 30.5285122 38.2058291 23.407288 35.7703089 30.0988499 35.5115493 30.0051358 37.9474878 23.312528 33.3697223 28.7682355 33.1584473 28.5912665 37.7368403 23.1349315 31.5684457 26.6962757 31.4314307 26.4582252 37.5991978 22.8972994 30.5850754 24.1339905 30.5373816 23.8622615 37.5498305 22.6259887 30.5373816 21.3895067 30.5850754 21.1177777 37.5991978 22.3546781 31.4314307 18.7939614 31.5684457 18.5554925 37.7368403 22.117046 33.1584473 16.660711 33.3697223 16.4839512 37.9474878 21.9394494 35.5115493 15.2468416 35.7703089 15.1531275 38.2058291 21.8448986 38.2058291 14.7234652"></polygon>
                    <g id="Group-51" transform="translate(0.000000, 0.129275)">
                        <path d="M21.360493,23.0998305 C20.9297848,22.5961174 20.5959284,21.7148285 20.79528,20.6940144 C20.9458919,19.9233834 21.4019113,19.0728445 22.3497205,18.2402953 L22.0514252,17.9014185 C21.0199428,18.8076001 20.5208316,19.7482971 20.3528575,20.6078309 C20.1233835,21.7815579 20.5151837,22.8040455 21.0186877,23.3928962 L21.360493,23.0998305 Z" id="Fill-3" fill="#457368"></path>
                        <path d="M21.1235303,18.2069096 L21.1235303,18.2069096 C21.1235303,18.3750929 21.2609637,18.5123171 21.4289378,18.5123171 L23.9947791,18.5125263 C24.1627532,18.5125263 24.3001866,18.3750929 24.3001866,18.2071188 L24.3001866,18.2069096 C24.3001866,18.0389355 24.1627532,17.9017113 23.9947791,17.9017113 L21.4289378,17.9015021 C21.2609637,17.9015021 21.1235303,18.0389355 21.1235303,18.2069096" id="Fill-5" fill="#457368"></path>
                        <path d="M9.32856733,31.1682991 C4.53931761,31.1682991 0.656877133,27.2858586 0.656877133,22.4968181 C0.656877133,17.7075684 4.53931761,13.8251279 9.32856733,13.8251279 L9.32856733,14.7886258 C5.07147971,14.7886258 1.62058421,18.2397305 1.62058421,22.4968181 C1.62058421,26.7536965 5.07147971,30.2050104 9.32856733,30.2050104 L9.32856733,31.1682991 Z M9.32856733,13.8251279 C14.117817,13.8251279 18.0002575,17.7075684 18.0002575,22.4968181 C18.0002575,27.2858586 14.117817,31.1682991 9.32856733,31.1682991 L9.32856733,30.2050104 C13.5856549,30.2050104 17.0367596,26.7536965 17.0367596,22.4968181 C17.0367596,18.2397305 13.5856549,14.7886258 9.32856733,14.7886258 L9.32856733,13.8251279 Z" id="Fill-7" fill="#457368"></path>
                        <path d="M0,18.8242302 C0.743646331,16.9373976 2.0426741,15.3306613 3.6952215,14.2058832 C5.3017486,13.1122733 7.24129537,12.4732186 9.32852549,12.4732186 C11.7818262,12.4732186 14.0305458,13.3563901 15.7742971,14.8225553 C17.5454514,16.3115214 18.794066,18.4018893 19.2049018,20.7784198 C18.1667255,21.1296384 18.4152352,18.1487776 15.2963134,15.3911153 C13.7188628,13.9960724 11.6025562,13.2193751 9.32852549,13.2193751 C7.39462667,13.2193751 5.57807962,13.7791494 4.11484303,14.8206727 C1.98138342,16.3401795 0.436565371,19.0662552 0,18.8242302" id="Fill-9" fill="#FF5E3B"></path>
                        <g id="Group-13" transform="translate(29.494833, 13.806092)">
                            <mask id="mask-39" fill="white">
                                <use xlink:href="#path-38"></use>
                            </mask>
                            <g id="Clip-12"></g>
                            <path d="M8.84893114,0.018993836 L8.84893114,0.018993836 L8.84893114,0.982491726 C4.59184352,0.982491726 1.14073883,4.43359642 1.14073883,8.69068403 C1.14073883,12.9477717 4.59184352,16.3988763 8.84893114,16.3988763 L8.84893114,17.362165 C4.05968142,17.362165 0.177450122,13.4799338 0.177450122,8.69068403 C0.177450122,3.9016435 4.05968142,0.018993836 8.84893114,0.018993836 L8.84893114,0.018993836 Z M8.84893114,0.018993836 C13.6381809,0.0192030192 17.5204122,3.9016435 17.5204122,8.69068403 C17.5204122,13.4799338 13.6381809,17.362165 8.84893114,17.362165 L8.84893114,16.3988763 C13.1060188,16.3988763 16.5571234,12.9477717 16.5571234,8.69068403 C16.5571234,4.43359642 13.1060188,0.982491726 8.84893114,0.982491726 L8.84893114,0.018993836 Z" id="Fill-11" fill="#457368" mask="url(#mask-39)"></path>
                        </g>
                        <path d="M29.3290557,26.8835156 C28.442328,25.0596472 28.1375481,23.0161363 28.4268485,21.0380999 C28.7079907,19.1150786 29.5491164,17.2543939 30.9608939,15.7168972 C32.6201352,13.9099726 34.7918754,12.8510872 37.0512633,12.558649 C39.3460031,12.2611905 41.7302734,12.7554904 43.7583047,14.0601662 C43.3150455,15.0623629 41.2874326,12.8632198 37.1466508,13.294974 C35.0520993,13.5133612 33.0487516,14.5465171 31.5106274,16.2216563 C30.2023956,17.646194 29.3859535,19.3625423 29.1635918,21.1447833 C28.839567,23.7440939 29.8026465,26.7257915 29.3290557,26.8835156" id="Fill-14" fill="#FF5E3B"></path>
                        <polygon id="Fill-16" fill="#FFFFFF" points="20.6923828 22.6373265 26.5449108 23.0713816 26.4604007 24.2093383 20.6080819 23.7752831"></polygon>
                        <polygon id="Fill-18" fill="#FFFFFF" points="17.0960422 13.3789401 18.1720806 12.998645 21.7275677 23.0563832 20.6517385 23.4364691"></polygon>
                        <polygon id="Fill-20" fill="#FFFFFF" points="15.7063126 8.77875017 16.3616836 8.54718435 18.5273574 14.6729056 17.8719864 14.9044714"></polygon>
                        <path d="M13.5981432,7.21416431 C12.9603436,7.66077047 12.5794209,8.47763093 13.8834691,8.92591056 C15.1877264,9.37398101 16.8584728,9.61851619 17.3475431,9.08886428 C17.8366135,8.5590032 19.3446153,8.5590032 20.1188024,8.4368402 C20.8931986,8.31446802 20.6488726,7.21416431 19.9150579,7.21416431 C19.1814524,7.21416431 17.103008,7.45869949 15.8805413,7.21416431 C14.6578654,6.96962913 14.1953613,6.79600706 13.5981432,7.21416431" id="Fill-22" fill="#457368"></path>
                        <path d="M25.6158653,23.0495638 C25.6838499,20.2301924 26.2883894,18.1214164 27.4035451,15.8388092 C28.5969353,13.3959676 30.2568042,11.4072628 32.0900859,10.2067603 L32.6000745,10.9863861 C30.9056905,12.0958939 29.3619184,13.9534409 28.2415331,16.2469257 C27.1797191,18.4203393 26.6094856,20.3962839 26.544848,23.0713189 L25.6158653,23.0495638 Z" id="Fill-24" fill="#FFFFFF"></path>
                        <path d="M9.10091324,20.7473352 C11.8684072,19.1855733 14.8821098,18.4584524 17.7085934,18.2860855 C21.228101,18.0714635 24.4731602,18.7193039 26.5982525,19.6882406 L26.2121003,20.5335499 C24.2079159,19.6196285 21.1270655,19.0100686 17.7633994,19.2150681 C15.0617981,19.3799045 12.1869932,20.0718826 9.5563051,21.5562467 L9.10091324,20.7473352 Z" id="Fill-26" fill="#FFFFFF"></path>
                        <polygon id="Fill-28" fill="#FFFFFF" points="31.2334597 8.35812456 32.309289 7.97782947 38.8378971 22.248936 37.7618586 22.6294402"></polygon>
                        <polygon id="Fill-30" fill="#FFFFFF" points="30.9587184 7.00926935 31.4450694 6.83732074 34.397063 13.2899954 33.9105028 13.4621532"></polygon>
                        <polygon id="Fill-32" fill="#FFFFFF" points="32.3001267 0.920071455 32.7921257 1.07549458 31.4506337 7.16481799 30.9586348 7.00918567"></polygon>
                        <g id="Group-36" transform="translate(29.076467, 0.000000)" fill="#457368">
                            <path d="M0.301119239,1.48898705 L7.48175148,0.0864135863 C7.6708531,0.0493881572 7.85598025,0.174061354 7.89300568,0.363372164 C7.93003111,0.552682974 7.80535791,0.737600936 7.6160471,0.774626365 L0.435624046,2.17740901 C0.246313236,2.21443444 0.0613952737,2.08976124 0.0243698446,1.90045043 C-0.0126555845,1.71113962 0.111808429,1.52601248 0.301119239,1.48898705" id="Fill-34"></path>
                        </g>
                        <path d="M9.32867192,24.2362393 C10.286731,24.2362393 11.0682395,23.45494 11.0682395,22.4968808 C11.0682395,21.5386125 10.286731,20.757104 9.32867192,20.757104 C8.37040361,20.757104 7.5891043,21.5386125 7.5891043,22.4968808 C7.5891043,23.45494 8.37040361,24.2362393 9.32867192,24.2362393" id="Fill-37" fill="#FF5E3B"></path>
                        <path d="M38.3437645,24.2362393 C39.3020328,24.2362393 40.0833321,23.45494 40.0833321,22.4968808 C40.0833321,21.5386125 39.3020328,20.757104 38.3437645,20.757104 C37.3857054,20.757104 36.6041969,21.5386125 36.6041969,22.4968808 C36.6041969,23.45494 37.3857054,24.2362393 38.3437645,24.2362393" id="Fill-39" fill="#FF5E3B"></path>
                        <polygon id="Fill-41" fill="#FF5E3B" points="21.1897159 20.6529517 9.32860917 20.757125 9.32860917 24.2362602 21.1897159 25.8398587"></polygon>
                        <path d="M21.1897159,25.8398378 C22.618228,25.8398378 23.7831694,24.6748965 23.7831694,23.2463843 C23.7831694,21.8176629 22.618228,20.6529308 21.1897159,20.6529308 C19.7612037,20.6529308 18.5962623,21.8176629 18.5962623,23.2463843 C18.5962623,24.6748965 19.7612037,25.8398378 21.1897159,25.8398378" id="Fill-43" fill="#FF5E3B"></path>
                        <path d="M20.99095,23.3519172 C21.301587,23.9376302 21.4356735,24.8705874 21.0187713,25.8232077 C20.7037414,26.542798 20.0734724,27.2736842 18.9673115,27.8796879 L19.1829794,28.2750442 C20.3876656,27.6152804 21.0798528,26.8063689 21.4308623,26.0043604 C21.9105194,24.9084495 21.7511218,23.8252989 21.3881889,23.1410606 L20.99095,23.3519172 Z" id="Fill-45" fill="#457368"></path>
                        <path d="M18.3407032,28.1153119 L18.3407032,28.1153119 C18.3407032,28.283286 18.4781366,28.4207194 18.6461107,28.4207194 L21.2117428,28.4209286 C21.379717,28.4209286 21.5173595,28.2834952 21.5173595,28.1155211 L21.5173595,28.1153119 C21.5173595,27.9473378 21.379717,27.8101136 21.211952,27.8101136 L18.6461107,27.8099044 C18.4781366,27.8099044 18.3407032,27.9473378 18.3407032,28.1153119" id="Fill-47" fill="#457368"></path>
                        <path d="M36.2937063,6.40728189 L37.2611786,6.40728189 L37.2611786,5.43960034 L36.2937063,5.43960034 L36.2937063,6.40728189 Z M34.9779438,6.40728189 L35.9454162,6.40728189 L35.9454162,5.43960034 L34.9779438,5.43960034 L34.9779438,6.40728189 Z M33.6621814,6.40728189 L34.6296538,6.40728189 L34.6296538,5.43960034 L33.6621814,5.43960034 L33.6621814,6.40728189 Z M36.2937063,5.09131028 L37.2611786,5.09131028 L37.2611786,4.12383791 L36.2937063,4.12383791 L36.2937063,5.09131028 Z M34.9779438,5.09131028 L35.9454162,5.09131028 L35.9454162,4.12383791 L34.9779438,4.12383791 L34.9779438,5.09131028 Z M33.6621814,5.09131028 L34.6296538,5.09131028 L34.6296538,4.12383791 L33.6621814,4.12383791 L33.6621814,5.09131028 Z M36.2937063,3.77554786 L37.2611786,3.77554786 L37.2611786,2.80807548 L36.2937063,2.80807548 L36.2937063,3.77554786 Z M34.9779438,3.77554786 L35.9454162,3.77554786 L35.9454162,2.80807548 L34.9779438,2.80807548 L34.9779438,3.77554786 Z M33.6621814,3.77554786 L34.6296538,3.77554786 L34.6296538,2.80807548 L33.6621814,2.80807548 L33.6621814,3.77554786 Z M32.3096027,3.77554786 L32.3181792,2.80807548 L33.3136822,2.80807548 L33.3136822,3.77554786 L32.3096027,3.77554786 Z M32.2978885,5.09131028 L32.306465,4.12383791 L33.3136822,4.12383791 L33.3136822,5.09131028 L32.2978885,5.09131028 Z M32.2861742,6.40728189 L32.2947507,5.43960034 L33.3136822,5.43960034 L33.3136822,6.40728189 L32.2861742,6.40728189 Z M33.3136822,7.89039089 L33.0632899,7.89039089 C32.6325816,7.89039089 32.2761334,7.53770799 32.2798987,7.10699975 L32.2830365,6.75557194 L33.3136822,6.75557194 L33.3136822,7.89039089 Z M33.6621814,7.89039089 L34.6296538,7.89039089 L34.6296538,6.75557194 L33.6621814,6.75557194 L33.6621814,7.89039089 Z M34.9779438,7.89039089 L35.9454162,7.89039089 L35.9454162,6.75557194 L34.9779438,6.75557194 L34.9779438,7.89039089 Z M36.2937063,7.89039089 L37.2611786,7.89039089 L37.2611786,6.75557194 L36.2937063,6.75557194 L36.2937063,7.89039089 Z M38.2817835,6.75557194 L38.2163092,7.10699975 C38.1491614,7.46909589 37.9387231,7.78517173 37.6094687,7.86863583 L37.6094687,6.75557194 L38.2817835,6.75557194 Z M38.5263187,5.43960034 L38.3464211,6.40728189 L37.6094687,6.40728189 L37.6094687,5.43960034 L38.5263187,5.43960034 Z M38.7710631,4.12383791 L38.5911655,5.09131028 L37.6094687,5.09131028 L37.6094687,4.12383791 L38.7710631,4.12383791 Z M39.0155983,2.80807548 L38.8359099,3.77554786 L37.6094687,3.77554786 L37.6094687,2.80807548 L39.0155983,2.80807548 Z M37.6094687,0.788620722 L38.4769515,0.708712734 C38.9061954,0.668967923 39.3392047,1.06850786 39.2603426,1.49189469 L39.080445,2.45978543 L37.6094687,2.45978543 L37.6094687,0.788620722 Z M36.2937063,0.909737804 L37.2611786,0.820625754 L37.2611786,2.45978543 L36.2937063,2.45978543 L36.2937063,0.909737804 Z M34.9779438,1.03106407 L35.9454162,0.941952019 L35.9454162,2.45978543 L34.9779438,2.45978543 L34.9779438,1.03106407 Z M33.6621814,1.15239033 L34.6296538,1.0630691 L34.6296538,2.45978543 L33.6621814,2.45978543 L33.6621814,1.15239033 Z M33.1088918,1.20322186 L33.3136822,1.18439537 L33.3136822,2.45978543 L32.3211078,2.45978543 L32.3255007,1.986613 C32.329266,1.55569557 32.679857,1.24275748 33.1088918,1.20322186 L33.1088918,1.20322186 Z" id="Fill-49" fill="#FF5E3B"></path>
                    </g>
                </g>
            </g>
        </g>
    </g>
</svg>